M48
;DRILL file {KiCad (5.0.0-3-g5ebb6b6)} date Wednesday, 10 October 2018 at 18:16:09
;FORMAT={-:-/ absolute / metric / decimal}
FMAT,2
METRIC,TZ
T1C5.300
T2C6.400
%
G90
G05
M71
T1
X524.51Y-113.538
X54.61Y-113.665
X376.094Y-111.76
X335.483Y-111.76
X524.51Y-82.042
X54.61Y-81.915
X294.814Y-111.76
X172.923Y-111.76
X254.152Y-111.76
X132.254Y-111.76
X91.614Y-111.76
X213.512Y-111.76
T2
X132.791Y-86.36
X214.042Y-86.36
X92.05Y-86.258
X173.402Y-86.36
X471.17Y-86.411
X295.3Y-86.36
X254.682Y-86.36
X335.839Y-86.36
X376.602Y-86.36
X430.53Y-86.411
T0
M30
