M48
;DRILL file {KiCad 4.0.7} date Thursday, 24 May 2018 'AMt' 09:36:07
;FORMAT={-:-/ absolute / metric / decimal}
FMAT,2
METRIC,TZ
T1C1.200
T2C3.200
T3C3.600
%
G90
G05
M71
T1
X109.775Y-82.804
X150.415Y-82.804
X191.055Y-82.804
X231.695Y-82.804
X272.335Y-82.804
X312.975Y-82.804
X353.615Y-82.804
X394.255Y-82.804
X445.215Y-82.804
X485.855Y-82.804
T2
X84.023Y-116.357
X84.036Y-79.184
X495.656Y-79.197
X495.656Y-116.37
T3
X91.995Y-86.36
X132.762Y-86.36
X173.402Y-86.36
X214.042Y-86.36
X254.682Y-86.36
X295.322Y-86.36
X335.835Y-86.36
X376.602Y-86.36
X430.562Y-86.36
X471.202Y-86.36
T0
M30
