G04 #@! TF.FileFunction,Soldermask,Bot*
%FSLAX46Y46*%
G04 Gerber Fmt 4.6, Leading zero omitted, Abs format (unit mm)*
G04 Created by KiCad (PCBNEW 4.0.7) date 05/24/18 01:24:13*
%MOMM*%
%LPD*%
G01*
G04 APERTURE LIST*
%ADD10C,0.100000*%
%ADD11C,4.000000*%
%ADD12O,2.700000X2.000000*%
%ADD13O,2.900000X2.000000*%
%ADD14O,2.900000X1.900000*%
%ADD15C,1.924000*%
%ADD16C,2.400000*%
%ADD17R,2.100000X2.100000*%
%ADD18O,2.100000X2.100000*%
%ADD19C,3.600000*%
G04 APERTURE END LIST*
D10*
D11*
X295322000Y-86360000D03*
D12*
X295322000Y-79883000D03*
D13*
X295322000Y-82981800D03*
D14*
X295322000Y-91287600D03*
D15*
X445215000Y-82804000D03*
X447755000Y-82804000D03*
X447755000Y-112776000D03*
X442738500Y-112776000D03*
X450231500Y-82804000D03*
X442738500Y-82804000D03*
X272335000Y-82804000D03*
X274875000Y-82804000D03*
X274875000Y-112776000D03*
X269858500Y-112776000D03*
X277351500Y-82804000D03*
X269858500Y-82804000D03*
X231695000Y-82804000D03*
X234235000Y-82804000D03*
X234235000Y-112776000D03*
X229218500Y-112776000D03*
X236711500Y-82804000D03*
X229218500Y-82804000D03*
D16*
X172894000Y-111760000D03*
X170354000Y-111760000D03*
X175434000Y-111760000D03*
D15*
X485855000Y-82804000D03*
X488395000Y-82804000D03*
X488395000Y-112776000D03*
X483378500Y-112776000D03*
X490871500Y-82804000D03*
X483378500Y-82804000D03*
D16*
X376094000Y-111760000D03*
X373554000Y-111760000D03*
X378634000Y-111760000D03*
X335454000Y-111760000D03*
X332914000Y-111760000D03*
X337994000Y-111760000D03*
X294814000Y-111760000D03*
X292274000Y-111760000D03*
X297354000Y-111760000D03*
X254174000Y-111760000D03*
X251634000Y-111760000D03*
X256714000Y-111760000D03*
X213534000Y-111760000D03*
X210994000Y-111760000D03*
X216074000Y-111760000D03*
X132254000Y-111760000D03*
X129714000Y-111760000D03*
X134794000Y-111760000D03*
X91614000Y-111760000D03*
X89074000Y-111760000D03*
X94154000Y-111760000D03*
D15*
X150415000Y-82804000D03*
X152955000Y-82804000D03*
X152955000Y-112776000D03*
X147938500Y-112776000D03*
X155431500Y-82804000D03*
X147938500Y-82804000D03*
X191055000Y-82804000D03*
X193595000Y-82804000D03*
X193595000Y-112776000D03*
X188578500Y-112776000D03*
X196071500Y-82804000D03*
X188578500Y-82804000D03*
X312975000Y-82804000D03*
X315515000Y-82804000D03*
X315515000Y-112776000D03*
X310498500Y-112776000D03*
X317991500Y-82804000D03*
X310498500Y-82804000D03*
X353615000Y-82804000D03*
X356155000Y-82804000D03*
X356155000Y-112776000D03*
X351138500Y-112776000D03*
X358631500Y-82804000D03*
X351138500Y-82804000D03*
X394255000Y-82804000D03*
X396795000Y-82804000D03*
X396795000Y-112776000D03*
X391778500Y-112776000D03*
X399271500Y-82804000D03*
X391778500Y-82804000D03*
D17*
X410904700Y-93027500D03*
D18*
X413444700Y-93027500D03*
X410904700Y-95567500D03*
X413444700Y-95567500D03*
X410904700Y-98107500D03*
X413444700Y-98107500D03*
X410904700Y-100647500D03*
X413444700Y-100647500D03*
X410904700Y-103187500D03*
X413444700Y-103187500D03*
D11*
X430562000Y-86360000D03*
D12*
X430562000Y-79883000D03*
D13*
X430562000Y-82981800D03*
D14*
X430562000Y-91287600D03*
D11*
X471202000Y-86360000D03*
D12*
X471202000Y-79883000D03*
D13*
X471202000Y-82981800D03*
D14*
X471202000Y-91287600D03*
D11*
X91995000Y-86360000D03*
D12*
X91995000Y-79883000D03*
D13*
X91995000Y-82981800D03*
D14*
X91995000Y-91287600D03*
D11*
X132762000Y-86360000D03*
D12*
X132762000Y-79883000D03*
D13*
X132762000Y-82981800D03*
D14*
X132762000Y-91287600D03*
D11*
X173402000Y-86360000D03*
D12*
X173402000Y-79883000D03*
D13*
X173402000Y-82981800D03*
D14*
X173402000Y-91287600D03*
D11*
X214042000Y-86360000D03*
D12*
X214042000Y-79883000D03*
D13*
X214042000Y-82981800D03*
D14*
X214042000Y-91287600D03*
D11*
X254682000Y-86360000D03*
D12*
X254682000Y-79883000D03*
D13*
X254682000Y-82981800D03*
D14*
X254682000Y-91287600D03*
D11*
X335835000Y-86360000D03*
D12*
X335835000Y-79883000D03*
D13*
X335835000Y-82981800D03*
D14*
X335835000Y-91287600D03*
D11*
X376602000Y-86360000D03*
D12*
X376602000Y-79883000D03*
D13*
X376602000Y-82981800D03*
D14*
X376602000Y-91287600D03*
D15*
X109775000Y-82804000D03*
X112315000Y-82804000D03*
X112315000Y-112776000D03*
X107298500Y-112776000D03*
X114791500Y-82804000D03*
X107298500Y-82804000D03*
D19*
X84035900Y-79184500D03*
X84023200Y-116357400D03*
X495655600Y-116370100D03*
X495655600Y-79197200D03*
M02*
