G04 #@! TF.FileFunction,Legend,Bot*
%FSLAX46Y46*%
G04 Gerber Fmt 4.6, Leading zero omitted, Abs format (unit mm)*
G04 Created by KiCad (PCBNEW 4.0.7) date 05/24/18 01:24:13*
%MOMM*%
%LPD*%
G01*
G04 APERTURE LIST*
%ADD10C,0.100000*%
%ADD11C,0.400000*%
%ADD12C,0.250000*%
%ADD13C,0.300000*%
G04 APERTURE END LIST*
D10*
D11*
X457280000Y-78740000D02*
X457280000Y-116840000D01*
X417597600Y-116814600D02*
X417597600Y-78714600D01*
X406320000Y-78740000D02*
X406320000Y-116840000D01*
X365680000Y-78740000D02*
X365680000Y-116840000D01*
X325040000Y-78740000D02*
X325040000Y-116840000D01*
X284400000Y-78740000D02*
X284400000Y-116840000D01*
X243760000Y-78740000D02*
X243760000Y-116840000D01*
X203120000Y-116840000D02*
X203120000Y-78740000D01*
X162480000Y-78740000D02*
X162480000Y-116840000D01*
X121840000Y-78740000D02*
X121840000Y-116840000D01*
D12*
X407267800Y-97409096D02*
X407220181Y-97313858D01*
X407220181Y-97171001D01*
X407267800Y-97028143D01*
X407363038Y-96932905D01*
X407458276Y-96885286D01*
X407648752Y-96837667D01*
X407791610Y-96837667D01*
X407982086Y-96885286D01*
X408077324Y-96932905D01*
X408172562Y-97028143D01*
X408220181Y-97171001D01*
X408220181Y-97266239D01*
X408172562Y-97409096D01*
X408124943Y-97456715D01*
X407791610Y-97456715D01*
X407791610Y-97266239D01*
X408220181Y-97885286D02*
X407220181Y-97885286D01*
X408220181Y-98456715D01*
X407220181Y-98456715D01*
X408220181Y-98932905D02*
X407220181Y-98932905D01*
X407220181Y-99171000D01*
X407267800Y-99313858D01*
X407363038Y-99409096D01*
X407458276Y-99456715D01*
X407648752Y-99504334D01*
X407791610Y-99504334D01*
X407982086Y-99456715D01*
X408077324Y-99409096D01*
X408172562Y-99313858D01*
X408220181Y-99171000D01*
X408220181Y-98932905D01*
X411039629Y-85779195D02*
X411039629Y-86541100D01*
X411420581Y-86160148D02*
X410658676Y-86160148D01*
X411420581Y-87541100D02*
X411420581Y-86969671D01*
X411420581Y-87255385D02*
X410420581Y-87255385D01*
X410563438Y-87160147D01*
X410658676Y-87064909D01*
X410706295Y-86969671D01*
X410515819Y-87922052D02*
X410468200Y-87969671D01*
X410420581Y-88064909D01*
X410420581Y-88303005D01*
X410468200Y-88398243D01*
X410515819Y-88445862D01*
X410611057Y-88493481D01*
X410706295Y-88493481D01*
X410849152Y-88445862D01*
X411420581Y-87874433D01*
X411420581Y-88493481D01*
X410420581Y-88779195D02*
X411420581Y-89112528D01*
X410420581Y-89445862D01*
X410899929Y-105946795D02*
X410899929Y-106708700D01*
X411280881Y-107708700D02*
X411280881Y-107137271D01*
X411280881Y-107422985D02*
X410280881Y-107422985D01*
X410423738Y-107327747D01*
X410518976Y-107232509D01*
X410566595Y-107137271D01*
X410376119Y-108089652D02*
X410328500Y-108137271D01*
X410280881Y-108232509D01*
X410280881Y-108470605D01*
X410328500Y-108565843D01*
X410376119Y-108613462D01*
X410471357Y-108661081D01*
X410566595Y-108661081D01*
X410709452Y-108613462D01*
X411280881Y-108042033D01*
X411280881Y-108661081D01*
X410280881Y-108946795D02*
X411280881Y-109280128D01*
X410280881Y-109613462D01*
D13*
X476607857Y-98702857D02*
X475893571Y-98940952D01*
X475655476Y-99179048D01*
X475417381Y-99655238D01*
X475417381Y-100369524D01*
X475655476Y-100845714D01*
X475893571Y-101083810D01*
X476369762Y-101321905D01*
X478274524Y-101321905D01*
X478274524Y-96321905D01*
X476607857Y-96321905D01*
X476131667Y-96560000D01*
X475893571Y-96798095D01*
X475655476Y-97274286D01*
X475655476Y-97750476D01*
X475893571Y-98226667D01*
X476131667Y-98464762D01*
X476607857Y-98702857D01*
X478274524Y-98702857D01*
X439880476Y-99893333D02*
X437499524Y-99893333D01*
X440356667Y-101321905D02*
X438690000Y-96321905D01*
X437023333Y-101321905D01*
X347026666Y-96321905D02*
X343693333Y-96321905D01*
X345836190Y-101321905D01*
X386476190Y-98464762D02*
X386952381Y-98226667D01*
X387190476Y-97988571D01*
X387428571Y-97512381D01*
X387428571Y-97274286D01*
X387190476Y-96798095D01*
X386952381Y-96560000D01*
X386476190Y-96321905D01*
X385523809Y-96321905D01*
X385047619Y-96560000D01*
X384809523Y-96798095D01*
X384571428Y-97274286D01*
X384571428Y-97512381D01*
X384809523Y-97988571D01*
X385047619Y-98226667D01*
X385523809Y-98464762D01*
X386476190Y-98464762D01*
X386952381Y-98702857D01*
X387190476Y-98940952D01*
X387428571Y-99417143D01*
X387428571Y-100369524D01*
X387190476Y-100845714D01*
X386952381Y-101083810D01*
X386476190Y-101321905D01*
X385523809Y-101321905D01*
X385047619Y-101083810D01*
X384809523Y-100845714D01*
X384571428Y-100369524D01*
X384571428Y-99417143D01*
X384809523Y-98940952D01*
X385047619Y-98702857D01*
X385523809Y-98464762D01*
X303767619Y-96321905D02*
X304720000Y-96321905D01*
X305196190Y-96560000D01*
X305434285Y-96798095D01*
X305910476Y-97512381D01*
X306148571Y-98464762D01*
X306148571Y-100369524D01*
X305910476Y-100845714D01*
X305672381Y-101083810D01*
X305196190Y-101321905D01*
X304243809Y-101321905D01*
X303767619Y-101083810D01*
X303529523Y-100845714D01*
X303291428Y-100369524D01*
X303291428Y-99179048D01*
X303529523Y-98702857D01*
X303767619Y-98464762D01*
X304243809Y-98226667D01*
X305196190Y-98226667D01*
X305672381Y-98464762D01*
X305910476Y-98702857D01*
X306148571Y-99179048D01*
X262889523Y-96321905D02*
X265270476Y-96321905D01*
X265508571Y-98702857D01*
X265270476Y-98464762D01*
X264794285Y-98226667D01*
X263603809Y-98226667D01*
X263127619Y-98464762D01*
X262889523Y-98702857D01*
X262651428Y-99179048D01*
X262651428Y-100369524D01*
X262889523Y-100845714D01*
X263127619Y-101083810D01*
X263603809Y-101321905D01*
X264794285Y-101321905D01*
X265270476Y-101083810D01*
X265508571Y-100845714D01*
X221217619Y-97988571D02*
X221217619Y-101321905D01*
X222408095Y-96083810D02*
X223598571Y-99655238D01*
X220503333Y-99655238D01*
X184466666Y-96321905D02*
X181371428Y-96321905D01*
X183038095Y-98226667D01*
X182323809Y-98226667D01*
X181847619Y-98464762D01*
X181609523Y-98702857D01*
X181371428Y-99179048D01*
X181371428Y-100369524D01*
X181609523Y-100845714D01*
X181847619Y-101083810D01*
X182323809Y-101321905D01*
X183752381Y-101321905D01*
X184228571Y-101083810D01*
X184466666Y-100845714D01*
X143588571Y-96798095D02*
X143350476Y-96560000D01*
X142874285Y-96321905D01*
X141683809Y-96321905D01*
X141207619Y-96560000D01*
X140969523Y-96798095D01*
X140731428Y-97274286D01*
X140731428Y-97750476D01*
X140969523Y-98464762D01*
X143826666Y-101321905D01*
X140731428Y-101321905D01*
X100091428Y-101321905D02*
X102948571Y-101321905D01*
X101520000Y-101321905D02*
X101520000Y-96321905D01*
X101996190Y-97036190D01*
X102472381Y-97512381D01*
X102948571Y-97750476D01*
M02*
