G04 #@! TF.FileFunction,Copper,L1,Top,Signal*
%FSLAX46Y46*%
G04 Gerber Fmt 4.6, Leading zero omitted, Abs format (unit mm)*
G04 Created by KiCad (PCBNEW 4.0.7) date 05/24/18 01:24:13*
%MOMM*%
%LPD*%
G01*
G04 APERTURE LIST*
%ADD10C,0.100000*%
%ADD11O,2.300000X1.600000*%
%ADD12O,2.500000X1.600000*%
%ADD13O,2.500000X1.500000*%
%ADD14C,1.524000*%
%ADD15R,0.508000X1.143000*%
%ADD16R,1.500000X1.300000*%
%ADD17C,2.000000*%
%ADD18R,1.300000X1.500000*%
%ADD19R,1.500000X1.250000*%
%ADD20R,1.250000X1.500000*%
%ADD21R,1.700000X1.700000*%
%ADD22O,1.700000X1.700000*%
%ADD23C,0.600000*%
%ADD24C,0.750000*%
%ADD25C,1.000000*%
G04 APERTURE END LIST*
D10*
D11*
X295322000Y-79883000D03*
D12*
X295322000Y-82981800D03*
D13*
X295322000Y-91287600D03*
D14*
X445215000Y-82804000D03*
X447755000Y-82804000D03*
X447755000Y-112776000D03*
X442738500Y-112776000D03*
X450231500Y-82804000D03*
X442738500Y-82804000D03*
D15*
X431705000Y-102235000D03*
X432975000Y-102235000D03*
X434245000Y-102235000D03*
X435515000Y-102235000D03*
X435515000Y-108585000D03*
X434245000Y-108585000D03*
X432975000Y-108585000D03*
X431705000Y-108585000D03*
D16*
X143350000Y-82630000D03*
X140650000Y-82630000D03*
D14*
X272335000Y-82804000D03*
X274875000Y-82804000D03*
X274875000Y-112776000D03*
X269858500Y-112776000D03*
X277351500Y-82804000D03*
X269858500Y-82804000D03*
X231695000Y-82804000D03*
X234235000Y-82804000D03*
X234235000Y-112776000D03*
X229218500Y-112776000D03*
X236711500Y-82804000D03*
X229218500Y-82804000D03*
D17*
X172894000Y-111760000D03*
X170354000Y-111760000D03*
X175434000Y-111760000D03*
D14*
X485855000Y-82804000D03*
X488395000Y-82804000D03*
X488395000Y-112776000D03*
X483378500Y-112776000D03*
X490871500Y-82804000D03*
X483378500Y-82804000D03*
D17*
X376094000Y-111760000D03*
X373554000Y-111760000D03*
X378634000Y-111760000D03*
X335454000Y-111760000D03*
X332914000Y-111760000D03*
X337994000Y-111760000D03*
X294814000Y-111760000D03*
X292274000Y-111760000D03*
X297354000Y-111760000D03*
X254174000Y-111760000D03*
X251634000Y-111760000D03*
X256714000Y-111760000D03*
X213534000Y-111760000D03*
X210994000Y-111760000D03*
X216074000Y-111760000D03*
X132254000Y-111760000D03*
X129714000Y-111760000D03*
X134794000Y-111760000D03*
X91614000Y-111760000D03*
X89074000Y-111760000D03*
X94154000Y-111760000D03*
D16*
X386635000Y-82550000D03*
X383935000Y-82550000D03*
X346550000Y-82630000D03*
X343850000Y-82630000D03*
X306150000Y-82630000D03*
X303450000Y-82630000D03*
X265270000Y-82630000D03*
X262570000Y-82630000D03*
X224950000Y-82550000D03*
X222250000Y-82550000D03*
X184070000Y-82550000D03*
X181370000Y-82550000D03*
X102950000Y-82630000D03*
X100250000Y-82630000D03*
D18*
X466630000Y-104060000D03*
X466630000Y-106760000D03*
D16*
X466550000Y-111760000D03*
X469250000Y-111760000D03*
D18*
X425990000Y-104060000D03*
X425990000Y-106760000D03*
D16*
X425910000Y-111760000D03*
X428610000Y-111760000D03*
D18*
X373300000Y-102950000D03*
X373300000Y-100250000D03*
X332660000Y-102870000D03*
X332660000Y-100170000D03*
X292020000Y-102950000D03*
X292020000Y-100250000D03*
X251380000Y-102950000D03*
X251380000Y-100250000D03*
X210740000Y-102950000D03*
X210740000Y-100250000D03*
X170100000Y-102950000D03*
X170100000Y-100250000D03*
X129460000Y-102950000D03*
X129460000Y-100250000D03*
X88820000Y-102950000D03*
X88820000Y-100250000D03*
D19*
X414000000Y-113830100D03*
X411500000Y-113830100D03*
X410886600Y-81648300D03*
X413386600Y-81648300D03*
D15*
X472345000Y-102235000D03*
X473615000Y-102235000D03*
X474885000Y-102235000D03*
X476155000Y-102235000D03*
X476155000Y-108585000D03*
X474885000Y-108585000D03*
X473615000Y-108585000D03*
X472345000Y-108585000D03*
D14*
X150415000Y-82804000D03*
X152955000Y-82804000D03*
X152955000Y-112776000D03*
X147938500Y-112776000D03*
X155431500Y-82804000D03*
X147938500Y-82804000D03*
X191055000Y-82804000D03*
X193595000Y-82804000D03*
X193595000Y-112776000D03*
X188578500Y-112776000D03*
X196071500Y-82804000D03*
X188578500Y-82804000D03*
X312975000Y-82804000D03*
X315515000Y-82804000D03*
X315515000Y-112776000D03*
X310498500Y-112776000D03*
X317991500Y-82804000D03*
X310498500Y-82804000D03*
X353615000Y-82804000D03*
X356155000Y-82804000D03*
X356155000Y-112776000D03*
X351138500Y-112776000D03*
X358631500Y-82804000D03*
X351138500Y-82804000D03*
X394255000Y-82804000D03*
X396795000Y-82804000D03*
X396795000Y-112776000D03*
X391778500Y-112776000D03*
X399271500Y-82804000D03*
X391778500Y-82804000D03*
D20*
X435515000Y-111760000D03*
X435515000Y-114260000D03*
X431705000Y-99060000D03*
X431705000Y-96560000D03*
X476155000Y-111760000D03*
X476155000Y-114260000D03*
X472345000Y-99060000D03*
X472345000Y-96560000D03*
D21*
X410904700Y-93027500D03*
D22*
X413444700Y-93027500D03*
X410904700Y-95567500D03*
X413444700Y-95567500D03*
X410904700Y-98107500D03*
X413444700Y-98107500D03*
X410904700Y-100647500D03*
X413444700Y-100647500D03*
X410904700Y-103187500D03*
X413444700Y-103187500D03*
D18*
X438658000Y-82724000D03*
X438658000Y-85424000D03*
X478870000Y-82724000D03*
X478870000Y-85424000D03*
D11*
X430562000Y-79883000D03*
D12*
X430562000Y-82981800D03*
D13*
X430562000Y-91287600D03*
D11*
X471202000Y-79883000D03*
D12*
X471202000Y-82981800D03*
D13*
X471202000Y-91287600D03*
D11*
X91995000Y-79883000D03*
D12*
X91995000Y-82981800D03*
D13*
X91995000Y-91287600D03*
D11*
X132762000Y-79883000D03*
D12*
X132762000Y-82981800D03*
D13*
X132762000Y-91287600D03*
D11*
X173402000Y-79883000D03*
D12*
X173402000Y-82981800D03*
D13*
X173402000Y-91287600D03*
D11*
X214042000Y-79883000D03*
D12*
X214042000Y-82981800D03*
D13*
X214042000Y-91287600D03*
D11*
X254682000Y-79883000D03*
D12*
X254682000Y-82981800D03*
D13*
X254682000Y-91287600D03*
D11*
X335835000Y-79883000D03*
D12*
X335835000Y-82981800D03*
D13*
X335835000Y-91287600D03*
D11*
X376602000Y-79883000D03*
D12*
X376602000Y-82981800D03*
D13*
X376602000Y-91287600D03*
D14*
X109775000Y-82804000D03*
X112315000Y-82804000D03*
X112315000Y-112776000D03*
X107298500Y-112776000D03*
X114791500Y-82804000D03*
X107298500Y-82804000D03*
D23*
X97870000Y-82630000D03*
X138510000Y-82630000D03*
X179070000Y-82550000D03*
X219710000Y-82550000D03*
X260430000Y-82630000D03*
X301070000Y-82630000D03*
X341710000Y-82630000D03*
X382270000Y-82550000D03*
X437095900Y-114223800D03*
X476155000Y-116010000D03*
X474885000Y-107013500D03*
X476155000Y-100692200D03*
X472345000Y-94810000D03*
X478870000Y-86991200D03*
X413386600Y-83273300D03*
X414000000Y-111780000D03*
X438658000Y-87630000D03*
X435515000Y-103556500D03*
X434213000Y-106807000D03*
X431673000Y-94615000D03*
X427990000Y-109220000D03*
X469250000Y-113160000D03*
D24*
X100250000Y-82630000D02*
X97870000Y-82630000D01*
X140650000Y-82630000D02*
X138510000Y-82630000D01*
X181370000Y-82550000D02*
X179070000Y-82550000D01*
X222250000Y-82550000D02*
X219710000Y-82550000D01*
X262570000Y-82630000D02*
X260430000Y-82630000D01*
X303450000Y-82630000D02*
X301070000Y-82630000D01*
X343850000Y-82630000D02*
X341710000Y-82630000D01*
X383935000Y-82550000D02*
X382270000Y-82550000D01*
X437059700Y-114260000D02*
X437095900Y-114223800D01*
X435515000Y-114260000D02*
X437059700Y-114260000D01*
D25*
X476155000Y-114260000D02*
X476155000Y-116010000D01*
X474885000Y-108585000D02*
X474885000Y-107013500D01*
X476155000Y-102235000D02*
X476155000Y-100692200D01*
X472345000Y-96560000D02*
X472345000Y-94810000D01*
X478870000Y-85424000D02*
X478870000Y-86991200D01*
X413386600Y-81648300D02*
X413386600Y-83273300D01*
X414000000Y-113830100D02*
X414000000Y-111780000D01*
D24*
X438658000Y-86924000D02*
X438658000Y-87630000D01*
X438658000Y-85424000D02*
X438658000Y-86924000D01*
X435515000Y-102235000D02*
X435515000Y-103556500D01*
X434213000Y-107231500D02*
X434213000Y-106807000D01*
X434245000Y-108585000D02*
X434245000Y-107263500D01*
X434245000Y-107263500D02*
X434213000Y-107231500D01*
X431673000Y-96560000D02*
X431673000Y-94615000D01*
D25*
X411500000Y-113830100D02*
X411500000Y-115455100D01*
X411500000Y-115455100D02*
X413519900Y-117475000D01*
X434340000Y-111760000D02*
X435515000Y-111760000D01*
X413519900Y-117475000D02*
X428586900Y-117475000D01*
X428586900Y-117475000D02*
X428904400Y-117157500D01*
X428904400Y-117157500D02*
X428942500Y-117157500D01*
X428942500Y-117157500D02*
X434340000Y-111760000D01*
X442595000Y-117475000D02*
X468122000Y-117475000D01*
X476155000Y-111760000D02*
X474530000Y-111760000D01*
X474530000Y-111760000D02*
X468815000Y-117475000D01*
X468815000Y-117475000D02*
X468122000Y-117475000D01*
X476155000Y-108585000D02*
X476155000Y-111760000D01*
X410904700Y-103187500D02*
X410904700Y-113234800D01*
X410904700Y-113234800D02*
X411500000Y-113830100D01*
D24*
X435515000Y-108585000D02*
X435515000Y-111760000D01*
D25*
X435610000Y-111760000D02*
X436880000Y-111760000D01*
X436880000Y-111760000D02*
X442595000Y-117475000D01*
X472345000Y-102235000D02*
X472345000Y-99060000D01*
X469900000Y-99060000D02*
X472345000Y-99060000D01*
X442738500Y-112776000D02*
X445405500Y-115443000D01*
X445405500Y-115443000D02*
X449580000Y-115443000D01*
X449580000Y-115443000D02*
X455295000Y-109728000D01*
X455295000Y-109728000D02*
X455295000Y-99695000D01*
X455295000Y-99695000D02*
X460375000Y-94615000D01*
X460375000Y-94615000D02*
X465455000Y-94615000D01*
X410886600Y-81648300D02*
X402729700Y-81648300D01*
X402729700Y-81648300D02*
X402717000Y-81661000D01*
D24*
X431705000Y-102235000D02*
X431705000Y-99060000D01*
D25*
X410904700Y-93027500D02*
X410904700Y-91177500D01*
X413182200Y-88900000D02*
X417449000Y-88900000D01*
X410904700Y-91177500D02*
X413182200Y-88900000D01*
X417449000Y-88900000D02*
X427609000Y-99060000D01*
X427609000Y-99060000D02*
X431705000Y-99060000D01*
X402717000Y-93091000D02*
X402717000Y-81661000D01*
X402717000Y-81661000D02*
X402717000Y-77470000D01*
X402717000Y-100759870D02*
X402717000Y-93091000D01*
X402717000Y-93091000D02*
X402780500Y-93027500D01*
X402780500Y-93027500D02*
X410904700Y-93027500D01*
X398145000Y-77470000D02*
X402717000Y-77470000D01*
X402717000Y-77470000D02*
X405765000Y-77470000D01*
X391778500Y-112776000D02*
X391778500Y-111698370D01*
X391778500Y-111698370D02*
X402717000Y-100759870D01*
X351138500Y-112776000D02*
X351155000Y-112759500D01*
X351155000Y-112759500D02*
X351155000Y-110363000D01*
X351155000Y-110363000D02*
X362712000Y-98806000D01*
X362712000Y-98806000D02*
X362712000Y-77470000D01*
X358051100Y-77470000D02*
X362712000Y-77470000D01*
X362712000Y-77470000D02*
X365760000Y-77470000D01*
X317373000Y-77470000D02*
X322072000Y-77470000D01*
X322072000Y-77470000D02*
X323850000Y-77470000D01*
X310498500Y-112776000D02*
X310498500Y-111698370D01*
X310498500Y-111698370D02*
X322072000Y-100124870D01*
X322072000Y-100124870D02*
X322072000Y-77470000D01*
X276847300Y-77470000D02*
X281381200Y-77470000D01*
X281381200Y-77470000D02*
X283845000Y-77470000D01*
X269811500Y-110337600D02*
X281381200Y-98767900D01*
X281381200Y-98767900D02*
X281381200Y-77470000D01*
X269811500Y-111651370D02*
X269811500Y-110337600D01*
X269858500Y-112776000D02*
X269858500Y-111698370D01*
X269858500Y-111698370D02*
X269811500Y-111651370D01*
X235585000Y-77470000D02*
X240233200Y-77470000D01*
X240233200Y-77470000D02*
X242570000Y-77470000D01*
X229218500Y-112776000D02*
X229218500Y-111698370D01*
X229218500Y-111698370D02*
X240233200Y-100683670D01*
X240233200Y-100683670D02*
X240233200Y-77470000D01*
X195059300Y-77470000D02*
X200215500Y-77470000D01*
X200215500Y-77470000D02*
X201930000Y-77470000D01*
X188578500Y-110925600D02*
X200215500Y-99288600D01*
X200215500Y-99288600D02*
X200215500Y-77470000D01*
X188578500Y-112776000D02*
X188578500Y-110925600D01*
X155016200Y-77470000D02*
X159766000Y-77470000D01*
X159766000Y-77470000D02*
X163195000Y-77470000D01*
X148700499Y-108804701D02*
X159766000Y-97739200D01*
X159766000Y-97739200D02*
X159766000Y-77470000D01*
X147938500Y-112776000D02*
X148700499Y-112014001D01*
X148700499Y-112014001D02*
X148700499Y-108804701D01*
X118973600Y-101100900D02*
X118973600Y-80416400D01*
X118973600Y-80416400D02*
X121920000Y-77470000D01*
X107298500Y-112776000D02*
X118973600Y-101100900D01*
X405765000Y-77470000D02*
X410324300Y-77470000D01*
X410324300Y-77470000D02*
X465455000Y-77470000D01*
X346075000Y-77470000D02*
X358051100Y-77470000D01*
X305435000Y-77470000D02*
X317373000Y-77470000D01*
X264795000Y-77470000D02*
X276847300Y-77470000D01*
X142875000Y-77470000D02*
X155016200Y-77470000D01*
X183515000Y-77470000D02*
X195059300Y-77470000D01*
X224155000Y-77470000D02*
X235585000Y-77470000D01*
X469900000Y-99060000D02*
X465455000Y-94615000D01*
X465455000Y-94615000D02*
X465455000Y-77470000D01*
X386715000Y-77470000D02*
X398145000Y-77470000D01*
X365760000Y-77470000D02*
X386715000Y-77470000D01*
X323850000Y-77470000D02*
X346075000Y-77470000D01*
X283845000Y-77470000D02*
X305435000Y-77470000D01*
X242570000Y-77470000D02*
X264795000Y-77470000D01*
X201930000Y-77470000D02*
X224155000Y-77470000D01*
X163195000Y-77470000D02*
X183515000Y-77470000D01*
X121920000Y-77470000D02*
X142875000Y-77470000D01*
D24*
X91614000Y-111760000D02*
X91614000Y-104344000D01*
X91614000Y-104344000D02*
X90220000Y-102950000D01*
X90220000Y-102950000D02*
X88820000Y-102950000D01*
X129460000Y-102950000D02*
X130860000Y-102950000D01*
X130860000Y-102950000D02*
X132254000Y-104344000D01*
X132254000Y-104344000D02*
X132254000Y-110345787D01*
X132254000Y-110345787D02*
X132254000Y-111760000D01*
X172894000Y-111760000D02*
X172894000Y-104344000D01*
X172894000Y-104344000D02*
X171500000Y-102950000D01*
X171500000Y-102950000D02*
X170100000Y-102950000D01*
X210740000Y-102950000D02*
X210740000Y-104999800D01*
X210740000Y-104999800D02*
X213534000Y-107793800D01*
X213534000Y-107793800D02*
X213534000Y-111760000D01*
X251380000Y-105215700D02*
X254174000Y-108009700D01*
X254174000Y-108009700D02*
X254174000Y-111760000D01*
X251380000Y-102950000D02*
X251380000Y-105215700D01*
X292020000Y-104618800D02*
X294814000Y-107412800D01*
X294814000Y-107412800D02*
X294814000Y-111760000D01*
X292020000Y-102950000D02*
X292020000Y-104618800D01*
X335610200Y-105920200D02*
X335454000Y-106076400D01*
X335454000Y-106076400D02*
X335454000Y-111760000D01*
X332660000Y-102870000D02*
X332660000Y-102970000D01*
X332660000Y-102970000D02*
X335610200Y-105920200D01*
X373300000Y-104517200D02*
X376094000Y-107311200D01*
X376094000Y-107311200D02*
X376094000Y-111760000D01*
X373300000Y-102950000D02*
X373300000Y-104517200D01*
X435991000Y-91287600D02*
X441896500Y-91287600D01*
X443560200Y-91300300D02*
X447755000Y-87105500D01*
X441896500Y-91287600D02*
X441909200Y-91300300D01*
X441909200Y-91300300D02*
X443560200Y-91300300D01*
X447755000Y-87105500D02*
X447755000Y-82804000D01*
X447755000Y-82804000D02*
X450231500Y-82804000D01*
X435991000Y-91287600D02*
X430562000Y-91287600D01*
X430689000Y-91160600D02*
X430562000Y-91287600D01*
X435991000Y-97897500D02*
X435991000Y-91287600D01*
X432975000Y-102235000D02*
X432975000Y-100913500D01*
X432975000Y-100913500D02*
X435991000Y-97897500D01*
X471202000Y-91287600D02*
X477139000Y-91287600D01*
X477139000Y-91287600D02*
X482371400Y-91287600D01*
X473615000Y-102235000D02*
X473615000Y-100913500D01*
X473615000Y-100913500D02*
X477139000Y-97389500D01*
X477139000Y-97389500D02*
X477139000Y-91287600D01*
X490871500Y-82804000D02*
X488395000Y-82804000D01*
X482371400Y-91287600D02*
X488395000Y-85264000D01*
X488395000Y-85264000D02*
X488395000Y-82804000D01*
X91995000Y-91287600D02*
X103831400Y-91287600D01*
X103831400Y-91287600D02*
X112315000Y-82804000D01*
X132762000Y-91287600D02*
X144471400Y-91287600D01*
X144471400Y-91287600D02*
X152955000Y-82804000D01*
X173402000Y-91287600D02*
X185111400Y-91287600D01*
X185111400Y-91287600D02*
X193595000Y-82804000D01*
X214042000Y-91287600D02*
X225751400Y-91287600D01*
X225751400Y-91287600D02*
X234235000Y-82804000D01*
X254682000Y-91287600D02*
X266391400Y-91287600D01*
X266391400Y-91287600D02*
X274875000Y-82804000D01*
X297372800Y-91338400D02*
X306980600Y-91338400D01*
X306980600Y-91338400D02*
X315515000Y-82804000D01*
X295322000Y-91287600D02*
X297322000Y-91287600D01*
X297322000Y-91287600D02*
X297372800Y-91338400D01*
X335835000Y-91287600D02*
X347671400Y-91287600D01*
X347671400Y-91287600D02*
X356155000Y-82804000D01*
X391930900Y-87668100D02*
X396795000Y-82804000D01*
X382221500Y-87668100D02*
X391930900Y-87668100D01*
X376602000Y-91287600D02*
X378602000Y-91287600D01*
X378602000Y-91287600D02*
X382221500Y-87668100D01*
X114791500Y-82804000D02*
X97345500Y-100250000D01*
X97345500Y-100250000D02*
X88820000Y-100250000D01*
X155431500Y-82804000D02*
X137985500Y-100250000D01*
X137985500Y-100250000D02*
X129460000Y-100250000D01*
X196071500Y-82804000D02*
X178625500Y-100250000D01*
X178625500Y-100250000D02*
X170100000Y-100250000D01*
X236711500Y-82804000D02*
X219265500Y-100250000D01*
X219265500Y-100250000D02*
X210740000Y-100250000D01*
X277351500Y-82804000D02*
X259905500Y-100250000D01*
X259905500Y-100250000D02*
X251380000Y-100250000D01*
X317991500Y-82804000D02*
X300545500Y-100250000D01*
X300545500Y-100250000D02*
X292020000Y-100250000D01*
X358631500Y-82804000D02*
X341265500Y-100170000D01*
X341265500Y-100170000D02*
X332660000Y-100170000D01*
X399300700Y-91071700D02*
X390122400Y-100250000D01*
X390122400Y-100250000D02*
X373300000Y-100250000D01*
X399300700Y-83910830D02*
X399300700Y-91071700D01*
X399271500Y-82804000D02*
X399271500Y-83881630D01*
X399271500Y-83881630D02*
X399300700Y-83910830D01*
X425990000Y-106760000D02*
X429880000Y-106760000D01*
X429880000Y-106760000D02*
X431705000Y-108585000D01*
X425910000Y-111760000D02*
X425910000Y-106840000D01*
X425910000Y-106840000D02*
X425990000Y-106760000D01*
X428625000Y-109855000D02*
X428610000Y-109870000D01*
X428610000Y-109870000D02*
X428610000Y-111760000D01*
X427990000Y-109220000D02*
X428625000Y-109855000D01*
X98937387Y-117957600D02*
X134772400Y-117957600D01*
X134772400Y-117957600D02*
X175463200Y-117957600D01*
X134794000Y-111760000D02*
X134794000Y-113174213D01*
X134794000Y-113174213D02*
X134772400Y-113195813D01*
X134772400Y-113195813D02*
X134772400Y-117957600D01*
X175463200Y-117957600D02*
X216090500Y-117957600D01*
X175434000Y-111760000D02*
X175434000Y-117928400D01*
X175434000Y-117928400D02*
X175463200Y-117957600D01*
X216090500Y-117957600D02*
X256717800Y-117957600D01*
X216074000Y-111760000D02*
X216074000Y-113174213D01*
X216074000Y-113174213D02*
X216090500Y-113190713D01*
X216090500Y-113190713D02*
X216090500Y-117957600D01*
X256717800Y-117957600D02*
X297345100Y-117957600D01*
X256714000Y-111760000D02*
X256714000Y-113174213D01*
X256714000Y-113174213D02*
X256717800Y-113178013D01*
X256717800Y-113178013D02*
X256717800Y-117957600D01*
X297345100Y-117957600D02*
X337997800Y-117957600D01*
X297354000Y-111760000D02*
X297354000Y-113174213D01*
X297354000Y-113174213D02*
X297345100Y-113183113D01*
X297345100Y-113183113D02*
X297345100Y-117957600D01*
X337997800Y-117957600D02*
X376859800Y-117957600D01*
X337994000Y-111760000D02*
X337994000Y-113174213D01*
X337994000Y-113174213D02*
X337997800Y-113178013D01*
X337997800Y-113178013D02*
X337997800Y-117957600D01*
X376859800Y-117957600D02*
X378634000Y-116183400D01*
X378634000Y-116183400D02*
X378634000Y-111760000D01*
X94154000Y-111760000D02*
X94154000Y-113174213D01*
X94154000Y-113174213D02*
X98937387Y-117957600D01*
X428610000Y-111760000D02*
X431292000Y-111760000D01*
X431292000Y-111760000D02*
X432975000Y-110077000D01*
X432975000Y-110077000D02*
X432975000Y-108585000D01*
X447755000Y-112776000D02*
X444961000Y-109982000D01*
X444961000Y-109982000D02*
X440182000Y-109982000D01*
X439674000Y-109474000D02*
X440182000Y-109982000D01*
X434245000Y-104045000D02*
X439674000Y-109474000D01*
X434245000Y-102235000D02*
X434245000Y-104045000D01*
X434245000Y-104045000D02*
X434260000Y-104060000D01*
X425990000Y-104060000D02*
X434260000Y-104060000D01*
X466630000Y-106760000D02*
X470520000Y-106760000D01*
X470520000Y-106760000D02*
X472345000Y-108585000D01*
X466550000Y-111760000D02*
X466550000Y-106840000D01*
X466550000Y-106840000D02*
X466630000Y-106760000D01*
X469250000Y-111760000D02*
X469250000Y-113160000D01*
X473615000Y-108585000D02*
X473615000Y-109906500D01*
X473615000Y-109906500D02*
X471761500Y-111760000D01*
X471761500Y-111760000D02*
X470750000Y-111760000D01*
X470750000Y-111760000D02*
X469250000Y-111760000D01*
X483167700Y-104060000D02*
X488395000Y-109287300D01*
X488395000Y-109287300D02*
X488395000Y-112776000D01*
X474381500Y-104060000D02*
X483167700Y-104060000D01*
X466630000Y-104060000D02*
X474381500Y-104060000D01*
X474381500Y-104060000D02*
X474885000Y-103556500D01*
X474885000Y-103556500D02*
X474885000Y-102235000D01*
X103425000Y-82630000D02*
X107124500Y-82630000D01*
X107124500Y-82630000D02*
X107298500Y-82804000D01*
X147938500Y-82804000D02*
X143524000Y-82804000D01*
X143524000Y-82804000D02*
X143350000Y-82630000D01*
X147764500Y-82630000D02*
X147938500Y-82804000D01*
X184070000Y-82550000D02*
X188324500Y-82550000D01*
X188324500Y-82550000D02*
X188578500Y-82804000D01*
X224950000Y-82550000D02*
X228964500Y-82550000D01*
X228964500Y-82550000D02*
X229218500Y-82804000D01*
X265270000Y-82630000D02*
X269684500Y-82630000D01*
X269684500Y-82630000D02*
X269858500Y-82804000D01*
X306150000Y-82630000D02*
X310324500Y-82630000D01*
X310324500Y-82630000D02*
X310498500Y-82804000D01*
X346550000Y-82630000D02*
X350964500Y-82630000D01*
X350964500Y-82630000D02*
X351138500Y-82804000D01*
X386635000Y-82550000D02*
X391524500Y-82550000D01*
X391524500Y-82550000D02*
X391778500Y-82804000D01*
X438658000Y-82724000D02*
X442658500Y-82724000D01*
X442658500Y-82724000D02*
X442738500Y-82804000D01*
X483378500Y-82804000D02*
X478950000Y-82804000D01*
X478950000Y-82804000D02*
X478870000Y-82724000D01*
M02*
