G04 #@! TF.FileFunction,Copper,L2,Bot,Signal*
%FSLAX46Y46*%
G04 Gerber Fmt 4.6, Leading zero omitted, Abs format (unit mm)*
G04 Created by KiCad (PCBNEW 4.0.7) date Thursday, 24 May 2018 'AMt' 09:36:03*
%MOMM*%
%LPD*%
G01*
G04 APERTURE LIST*
%ADD10C,0.100000*%
%ADD11O,2.300000X1.600000*%
%ADD12O,2.500000X1.600000*%
%ADD13O,2.500000X1.500000*%
%ADD14C,1.524000*%
%ADD15C,2.000000*%
%ADD16R,1.700000X1.700000*%
%ADD17O,1.700000X1.700000*%
%ADD18C,0.600000*%
%ADD19C,0.750000*%
%ADD20C,1.000000*%
%ADD21C,0.254000*%
G04 APERTURE END LIST*
D10*
D11*
X295322000Y-79883000D03*
D12*
X295322000Y-82981800D03*
D13*
X295322000Y-91287600D03*
D14*
X445215000Y-82804000D03*
X447755000Y-82804000D03*
X447755000Y-112776000D03*
X442738500Y-112776000D03*
X450231500Y-82804000D03*
X442738500Y-82804000D03*
X272335000Y-82804000D03*
X274875000Y-82804000D03*
X274875000Y-112776000D03*
X269858500Y-112776000D03*
X277351500Y-82804000D03*
X269858500Y-82804000D03*
X231695000Y-82804000D03*
X234235000Y-82804000D03*
X234235000Y-112776000D03*
X229218500Y-112776000D03*
X236711500Y-82804000D03*
X229218500Y-82804000D03*
D15*
X172894000Y-111760000D03*
X170354000Y-111760000D03*
X175434000Y-111760000D03*
D14*
X485855000Y-82804000D03*
X488395000Y-82804000D03*
X488395000Y-112776000D03*
X483378500Y-112776000D03*
X490871500Y-82804000D03*
X483378500Y-82804000D03*
D15*
X376094000Y-111760000D03*
X373554000Y-111760000D03*
X378634000Y-111760000D03*
X335454000Y-111760000D03*
X332914000Y-111760000D03*
X337994000Y-111760000D03*
X294814000Y-111760000D03*
X292274000Y-111760000D03*
X297354000Y-111760000D03*
X254174000Y-111760000D03*
X251634000Y-111760000D03*
X256714000Y-111760000D03*
X213534000Y-111760000D03*
X210994000Y-111760000D03*
X216074000Y-111760000D03*
X132254000Y-111760000D03*
X129714000Y-111760000D03*
X134794000Y-111760000D03*
X91614000Y-111760000D03*
X89074000Y-111760000D03*
X94154000Y-111760000D03*
D14*
X150415000Y-82804000D03*
X152955000Y-82804000D03*
X152955000Y-112776000D03*
X147938500Y-112776000D03*
X155431500Y-82804000D03*
X147938500Y-82804000D03*
X191055000Y-82804000D03*
X193595000Y-82804000D03*
X193595000Y-112776000D03*
X188578500Y-112776000D03*
X196071500Y-82804000D03*
X188578500Y-82804000D03*
X312975000Y-82804000D03*
X315515000Y-82804000D03*
X315515000Y-112776000D03*
X310498500Y-112776000D03*
X317991500Y-82804000D03*
X310498500Y-82804000D03*
X353615000Y-82804000D03*
X356155000Y-82804000D03*
X356155000Y-112776000D03*
X351138500Y-112776000D03*
X358631500Y-82804000D03*
X351138500Y-82804000D03*
X394255000Y-82804000D03*
X396795000Y-82804000D03*
X396795000Y-112776000D03*
X391778500Y-112776000D03*
X399271500Y-82804000D03*
X391778500Y-82804000D03*
D16*
X410904700Y-93027500D03*
D17*
X413444700Y-93027500D03*
X410904700Y-95567500D03*
X413444700Y-95567500D03*
X410904700Y-98107500D03*
X413444700Y-98107500D03*
X410904700Y-100647500D03*
X413444700Y-100647500D03*
X410904700Y-103187500D03*
X413444700Y-103187500D03*
D11*
X430562000Y-79883000D03*
D12*
X430562000Y-82981800D03*
D13*
X430562000Y-91287600D03*
D11*
X471202000Y-79883000D03*
D12*
X471202000Y-82981800D03*
D13*
X471202000Y-91287600D03*
D11*
X91995000Y-79883000D03*
D12*
X91995000Y-82981800D03*
D13*
X91995000Y-91287600D03*
D11*
X132762000Y-79883000D03*
D12*
X132762000Y-82981800D03*
D13*
X132762000Y-91287600D03*
D11*
X173402000Y-79883000D03*
D12*
X173402000Y-82981800D03*
D13*
X173402000Y-91287600D03*
D11*
X214042000Y-79883000D03*
D12*
X214042000Y-82981800D03*
D13*
X214042000Y-91287600D03*
D11*
X254682000Y-79883000D03*
D12*
X254682000Y-82981800D03*
D13*
X254682000Y-91287600D03*
D11*
X335835000Y-79883000D03*
D12*
X335835000Y-82981800D03*
D13*
X335835000Y-91287600D03*
D11*
X376602000Y-79883000D03*
D12*
X376602000Y-82981800D03*
D13*
X376602000Y-91287600D03*
D14*
X109775000Y-82804000D03*
X112315000Y-82804000D03*
X112315000Y-112776000D03*
X107298500Y-112776000D03*
X114791500Y-82804000D03*
X107298500Y-82804000D03*
D18*
X410845000Y-84630000D03*
X410972000Y-111760000D03*
X97870000Y-82630000D03*
X138510000Y-82630000D03*
X179070000Y-82550000D03*
X219710000Y-82550000D03*
X260430000Y-82630000D03*
X301070000Y-82630000D03*
X341710000Y-82630000D03*
X382270000Y-82550000D03*
X437095900Y-114223800D03*
X476155000Y-116010000D03*
X474885000Y-107013500D03*
X476155000Y-100692200D03*
X472345000Y-94810000D03*
X478870000Y-86991200D03*
X438658000Y-87630000D03*
X435515000Y-103556500D03*
X434213000Y-106807000D03*
X431673000Y-94615000D03*
X427990000Y-109220000D03*
X469250000Y-113160000D03*
D19*
X434213000Y-106807000D02*
X434213000Y-103537000D01*
D20*
X446294500Y-109220000D02*
X479822500Y-109220000D01*
X479822500Y-109220000D02*
X483378500Y-112776000D01*
X442738500Y-112776000D02*
X446294500Y-109220000D01*
D19*
X378634000Y-111760000D02*
X378634000Y-110316000D01*
X378634000Y-110316000D02*
X379730000Y-109220000D01*
X379730000Y-109220000D02*
X427990000Y-109220000D01*
X469250000Y-113160000D02*
X469250000Y-113584264D01*
X469250000Y-113584264D02*
X465994264Y-116840000D01*
X465994264Y-116840000D02*
X374523000Y-116840000D01*
X374523000Y-116840000D02*
X373634000Y-115951000D01*
X373380000Y-116205000D02*
X332740000Y-116205000D01*
X373634000Y-111760000D02*
X373634000Y-115951000D01*
X373634000Y-115951000D02*
X373380000Y-116205000D01*
X332740000Y-116205000D02*
X292735000Y-116205000D01*
X332994000Y-111760000D02*
X332994000Y-115951000D01*
X332994000Y-115951000D02*
X332740000Y-116205000D01*
X292735000Y-116205000D02*
X251460000Y-116205000D01*
X292354000Y-111760000D02*
X292354000Y-115824000D01*
X292354000Y-115824000D02*
X292735000Y-116205000D01*
X251460000Y-116205000D02*
X210820000Y-116205000D01*
X251714000Y-111760000D02*
X251714000Y-115951000D01*
X251714000Y-115951000D02*
X251460000Y-116205000D01*
X211074000Y-115951000D02*
X210820000Y-116205000D01*
X210820000Y-116205000D02*
X170815000Y-116205000D01*
X211074000Y-111760000D02*
X211074000Y-115951000D01*
X170815000Y-116205000D02*
X130175000Y-116205000D01*
X170434000Y-111760000D02*
X170434000Y-115824000D01*
X170434000Y-115824000D02*
X170815000Y-116205000D01*
X130175000Y-116205000D02*
X90170000Y-116205000D01*
X129794000Y-111760000D02*
X129794000Y-115824000D01*
X129794000Y-115824000D02*
X130175000Y-116205000D01*
X90170000Y-116205000D02*
X89154000Y-115189000D01*
X89154000Y-115189000D02*
X89154000Y-113919000D01*
X89154000Y-113919000D02*
X89154000Y-111760000D01*
D21*
G36*
X501841700Y-118670000D02*
X77265600Y-118670000D01*
X77265600Y-116800019D01*
X81787813Y-116800019D01*
X82127355Y-117621772D01*
X82755521Y-118251036D01*
X83576681Y-118592011D01*
X84465819Y-118592787D01*
X85287572Y-118253245D01*
X85916836Y-117625079D01*
X86257811Y-116803919D01*
X86258587Y-115914781D01*
X85919045Y-115093028D01*
X85290879Y-114463764D01*
X84469719Y-114122789D01*
X83580581Y-114122013D01*
X82758828Y-114461555D01*
X82129564Y-115089721D01*
X81788589Y-115910881D01*
X81787813Y-116800019D01*
X77265600Y-116800019D01*
X77265600Y-112083795D01*
X87438716Y-112083795D01*
X87687106Y-112684943D01*
X88144000Y-113142636D01*
X88144000Y-115189000D01*
X88220882Y-115575510D01*
X88439822Y-115903178D01*
X89455822Y-116919178D01*
X89783490Y-117138118D01*
X90170000Y-117215000D01*
X373380000Y-117215000D01*
X373454771Y-117200127D01*
X373808822Y-117554178D01*
X374136490Y-117773118D01*
X374523000Y-117850000D01*
X465994264Y-117850000D01*
X466380774Y-117773118D01*
X466708442Y-117554178D01*
X467449901Y-116812719D01*
X493420213Y-116812719D01*
X493759755Y-117634472D01*
X494387921Y-118263736D01*
X495209081Y-118604711D01*
X496098219Y-118605487D01*
X496919972Y-118265945D01*
X497549236Y-117637779D01*
X497890211Y-116816619D01*
X497890987Y-115927481D01*
X497551445Y-115105728D01*
X496923279Y-114476464D01*
X496102119Y-114135489D01*
X495212981Y-114134713D01*
X494391228Y-114474255D01*
X493761964Y-115102421D01*
X493420989Y-115923581D01*
X493420213Y-116812719D01*
X467449901Y-116812719D01*
X469964178Y-114298442D01*
X470183118Y-113970774D01*
X470260000Y-113584264D01*
X470260000Y-113160000D01*
X470183118Y-112773490D01*
X469964178Y-112445822D01*
X469636510Y-112226882D01*
X469250000Y-112150000D01*
X468863490Y-112226882D01*
X468535822Y-112445822D01*
X468316882Y-112773490D01*
X468240000Y-113160000D01*
X468240000Y-113165908D01*
X465575908Y-115830000D01*
X374941356Y-115830000D01*
X374644000Y-115532644D01*
X374644000Y-112982125D01*
X374824199Y-112802241D01*
X375166637Y-113145278D01*
X375767352Y-113394716D01*
X376417795Y-113395284D01*
X377018943Y-113146894D01*
X377364199Y-112802241D01*
X377706637Y-113145278D01*
X378307352Y-113394716D01*
X378957795Y-113395284D01*
X379558943Y-113146894D01*
X379653340Y-113052661D01*
X390381258Y-113052661D01*
X390593490Y-113566303D01*
X390986130Y-113959629D01*
X391499400Y-114172757D01*
X392055161Y-114173242D01*
X392568803Y-113961010D01*
X392962129Y-113568370D01*
X393175257Y-113055100D01*
X393175259Y-113052661D01*
X441341258Y-113052661D01*
X441553490Y-113566303D01*
X441946130Y-113959629D01*
X442459400Y-114172757D01*
X443015161Y-114173242D01*
X443528803Y-113961010D01*
X443922129Y-113568370D01*
X444135257Y-113055100D01*
X444135259Y-113052661D01*
X446357758Y-113052661D01*
X446569990Y-113566303D01*
X446962630Y-113959629D01*
X447475900Y-114172757D01*
X448031661Y-114173242D01*
X448545303Y-113961010D01*
X448938629Y-113568370D01*
X449151757Y-113055100D01*
X449152242Y-112499339D01*
X448940010Y-111985697D01*
X448547370Y-111592371D01*
X448034100Y-111379243D01*
X447478339Y-111378758D01*
X446964697Y-111590990D01*
X446571371Y-111983630D01*
X446358243Y-112496900D01*
X446357758Y-113052661D01*
X444135259Y-113052661D01*
X444135319Y-112984313D01*
X446764632Y-110355000D01*
X479352368Y-110355000D01*
X481981318Y-112983950D01*
X481981258Y-113052661D01*
X482193490Y-113566303D01*
X482586130Y-113959629D01*
X483099400Y-114172757D01*
X483655161Y-114173242D01*
X484168803Y-113961010D01*
X484562129Y-113568370D01*
X484775257Y-113055100D01*
X484775259Y-113052661D01*
X486997758Y-113052661D01*
X487209990Y-113566303D01*
X487602630Y-113959629D01*
X488115900Y-114172757D01*
X488671661Y-114173242D01*
X489185303Y-113961010D01*
X489578629Y-113568370D01*
X489791757Y-113055100D01*
X489792242Y-112499339D01*
X489580010Y-111985697D01*
X489187370Y-111592371D01*
X488674100Y-111379243D01*
X488118339Y-111378758D01*
X487604697Y-111590990D01*
X487211371Y-111983630D01*
X486998243Y-112496900D01*
X486997758Y-113052661D01*
X484775259Y-113052661D01*
X484775742Y-112499339D01*
X484563510Y-111985697D01*
X484170870Y-111592371D01*
X483657600Y-111379243D01*
X483586813Y-111379181D01*
X480625066Y-108417434D01*
X480314619Y-108210000D01*
X480256846Y-108171397D01*
X479822500Y-108085000D01*
X446294500Y-108085000D01*
X445860154Y-108171397D01*
X445491934Y-108417434D01*
X442530550Y-111378818D01*
X442461839Y-111378758D01*
X441948197Y-111590990D01*
X441554871Y-111983630D01*
X441341743Y-112496900D01*
X441341258Y-113052661D01*
X393175259Y-113052661D01*
X393175742Y-112499339D01*
X392963510Y-111985697D01*
X392570870Y-111592371D01*
X392057600Y-111379243D01*
X391501839Y-111378758D01*
X390988197Y-111590990D01*
X390594871Y-111983630D01*
X390381743Y-112496900D01*
X390381258Y-113052661D01*
X379653340Y-113052661D01*
X380019278Y-112687363D01*
X380268716Y-112086648D01*
X380269284Y-111436205D01*
X380020894Y-110835057D01*
X379782305Y-110596051D01*
X380148356Y-110230000D01*
X427990000Y-110230000D01*
X428376510Y-110153118D01*
X428704178Y-109934178D01*
X428923118Y-109606510D01*
X429000000Y-109220000D01*
X428923118Y-108833490D01*
X428704178Y-108505822D01*
X428376510Y-108286882D01*
X427990000Y-108210000D01*
X379730000Y-108210000D01*
X379343490Y-108286882D01*
X379015822Y-108505822D01*
X377919822Y-109601822D01*
X377700882Y-109929490D01*
X377624000Y-110316000D01*
X377624000Y-110458014D01*
X377363801Y-110717759D01*
X377021363Y-110374722D01*
X376420648Y-110125284D01*
X375770205Y-110124716D01*
X375169057Y-110373106D01*
X374823801Y-110717759D01*
X374481363Y-110374722D01*
X373880648Y-110125284D01*
X373230205Y-110124716D01*
X372629057Y-110373106D01*
X372168722Y-110832637D01*
X371919284Y-111433352D01*
X371918716Y-112083795D01*
X372167106Y-112684943D01*
X372624000Y-113142636D01*
X372624000Y-115195000D01*
X334004000Y-115195000D01*
X334004000Y-112982125D01*
X334184199Y-112802241D01*
X334526637Y-113145278D01*
X335127352Y-113394716D01*
X335777795Y-113395284D01*
X336378943Y-113146894D01*
X336724199Y-112802241D01*
X337066637Y-113145278D01*
X337667352Y-113394716D01*
X338317795Y-113395284D01*
X338918943Y-113146894D01*
X339013340Y-113052661D01*
X349741258Y-113052661D01*
X349953490Y-113566303D01*
X350346130Y-113959629D01*
X350859400Y-114172757D01*
X351415161Y-114173242D01*
X351928803Y-113961010D01*
X352322129Y-113568370D01*
X352535257Y-113055100D01*
X352535742Y-112499339D01*
X352323510Y-111985697D01*
X351930870Y-111592371D01*
X351417600Y-111379243D01*
X350861839Y-111378758D01*
X350348197Y-111590990D01*
X349954871Y-111983630D01*
X349741743Y-112496900D01*
X349741258Y-113052661D01*
X339013340Y-113052661D01*
X339379278Y-112687363D01*
X339628716Y-112086648D01*
X339629284Y-111436205D01*
X339380894Y-110835057D01*
X338921363Y-110374722D01*
X338320648Y-110125284D01*
X337670205Y-110124716D01*
X337069057Y-110373106D01*
X336723801Y-110717759D01*
X336381363Y-110374722D01*
X335780648Y-110125284D01*
X335130205Y-110124716D01*
X334529057Y-110373106D01*
X334183801Y-110717759D01*
X333841363Y-110374722D01*
X333240648Y-110125284D01*
X332590205Y-110124716D01*
X331989057Y-110373106D01*
X331528722Y-110832637D01*
X331279284Y-111433352D01*
X331278716Y-112083795D01*
X331527106Y-112684943D01*
X331984000Y-113142636D01*
X331984000Y-115195000D01*
X293364000Y-115195000D01*
X293364000Y-112982125D01*
X293544199Y-112802241D01*
X293886637Y-113145278D01*
X294487352Y-113394716D01*
X295137795Y-113395284D01*
X295738943Y-113146894D01*
X296084199Y-112802241D01*
X296426637Y-113145278D01*
X297027352Y-113394716D01*
X297677795Y-113395284D01*
X298278943Y-113146894D01*
X298373340Y-113052661D01*
X309101258Y-113052661D01*
X309313490Y-113566303D01*
X309706130Y-113959629D01*
X310219400Y-114172757D01*
X310775161Y-114173242D01*
X311288803Y-113961010D01*
X311682129Y-113568370D01*
X311895257Y-113055100D01*
X311895742Y-112499339D01*
X311683510Y-111985697D01*
X311290870Y-111592371D01*
X310777600Y-111379243D01*
X310221839Y-111378758D01*
X309708197Y-111590990D01*
X309314871Y-111983630D01*
X309101743Y-112496900D01*
X309101258Y-113052661D01*
X298373340Y-113052661D01*
X298739278Y-112687363D01*
X298988716Y-112086648D01*
X298989284Y-111436205D01*
X298740894Y-110835057D01*
X298281363Y-110374722D01*
X297680648Y-110125284D01*
X297030205Y-110124716D01*
X296429057Y-110373106D01*
X296083801Y-110717759D01*
X295741363Y-110374722D01*
X295140648Y-110125284D01*
X294490205Y-110124716D01*
X293889057Y-110373106D01*
X293543801Y-110717759D01*
X293201363Y-110374722D01*
X292600648Y-110125284D01*
X291950205Y-110124716D01*
X291349057Y-110373106D01*
X290888722Y-110832637D01*
X290639284Y-111433352D01*
X290638716Y-112083795D01*
X290887106Y-112684943D01*
X291344000Y-113142636D01*
X291344000Y-115195000D01*
X252724000Y-115195000D01*
X252724000Y-112982125D01*
X252904199Y-112802241D01*
X253246637Y-113145278D01*
X253847352Y-113394716D01*
X254497795Y-113395284D01*
X255098943Y-113146894D01*
X255444199Y-112802241D01*
X255786637Y-113145278D01*
X256387352Y-113394716D01*
X257037795Y-113395284D01*
X257638943Y-113146894D01*
X257733340Y-113052661D01*
X268461258Y-113052661D01*
X268673490Y-113566303D01*
X269066130Y-113959629D01*
X269579400Y-114172757D01*
X270135161Y-114173242D01*
X270648803Y-113961010D01*
X271042129Y-113568370D01*
X271255257Y-113055100D01*
X271255742Y-112499339D01*
X271043510Y-111985697D01*
X270650870Y-111592371D01*
X270137600Y-111379243D01*
X269581839Y-111378758D01*
X269068197Y-111590990D01*
X268674871Y-111983630D01*
X268461743Y-112496900D01*
X268461258Y-113052661D01*
X257733340Y-113052661D01*
X258099278Y-112687363D01*
X258348716Y-112086648D01*
X258349284Y-111436205D01*
X258100894Y-110835057D01*
X257641363Y-110374722D01*
X257040648Y-110125284D01*
X256390205Y-110124716D01*
X255789057Y-110373106D01*
X255443801Y-110717759D01*
X255101363Y-110374722D01*
X254500648Y-110125284D01*
X253850205Y-110124716D01*
X253249057Y-110373106D01*
X252903801Y-110717759D01*
X252561363Y-110374722D01*
X251960648Y-110125284D01*
X251310205Y-110124716D01*
X250709057Y-110373106D01*
X250248722Y-110832637D01*
X249999284Y-111433352D01*
X249998716Y-112083795D01*
X250247106Y-112684943D01*
X250704000Y-113142636D01*
X250704000Y-115195000D01*
X212084000Y-115195000D01*
X212084000Y-112982125D01*
X212264199Y-112802241D01*
X212606637Y-113145278D01*
X213207352Y-113394716D01*
X213857795Y-113395284D01*
X214458943Y-113146894D01*
X214804199Y-112802241D01*
X215146637Y-113145278D01*
X215747352Y-113394716D01*
X216397795Y-113395284D01*
X216998943Y-113146894D01*
X217093340Y-113052661D01*
X227821258Y-113052661D01*
X228033490Y-113566303D01*
X228426130Y-113959629D01*
X228939400Y-114172757D01*
X229495161Y-114173242D01*
X230008803Y-113961010D01*
X230402129Y-113568370D01*
X230615257Y-113055100D01*
X230615742Y-112499339D01*
X230403510Y-111985697D01*
X230010870Y-111592371D01*
X229497600Y-111379243D01*
X228941839Y-111378758D01*
X228428197Y-111590990D01*
X228034871Y-111983630D01*
X227821743Y-112496900D01*
X227821258Y-113052661D01*
X217093340Y-113052661D01*
X217459278Y-112687363D01*
X217708716Y-112086648D01*
X217709284Y-111436205D01*
X217460894Y-110835057D01*
X217001363Y-110374722D01*
X216400648Y-110125284D01*
X215750205Y-110124716D01*
X215149057Y-110373106D01*
X214803801Y-110717759D01*
X214461363Y-110374722D01*
X213860648Y-110125284D01*
X213210205Y-110124716D01*
X212609057Y-110373106D01*
X212263801Y-110717759D01*
X211921363Y-110374722D01*
X211320648Y-110125284D01*
X210670205Y-110124716D01*
X210069057Y-110373106D01*
X209608722Y-110832637D01*
X209359284Y-111433352D01*
X209358716Y-112083795D01*
X209607106Y-112684943D01*
X210064000Y-113142636D01*
X210064000Y-115195000D01*
X171444000Y-115195000D01*
X171444000Y-112982125D01*
X171624199Y-112802241D01*
X171966637Y-113145278D01*
X172567352Y-113394716D01*
X173217795Y-113395284D01*
X173818943Y-113146894D01*
X174164199Y-112802241D01*
X174506637Y-113145278D01*
X175107352Y-113394716D01*
X175757795Y-113395284D01*
X176358943Y-113146894D01*
X176453340Y-113052661D01*
X187181258Y-113052661D01*
X187393490Y-113566303D01*
X187786130Y-113959629D01*
X188299400Y-114172757D01*
X188855161Y-114173242D01*
X189368803Y-113961010D01*
X189762129Y-113568370D01*
X189975257Y-113055100D01*
X189975742Y-112499339D01*
X189763510Y-111985697D01*
X189370870Y-111592371D01*
X188857600Y-111379243D01*
X188301839Y-111378758D01*
X187788197Y-111590990D01*
X187394871Y-111983630D01*
X187181743Y-112496900D01*
X187181258Y-113052661D01*
X176453340Y-113052661D01*
X176819278Y-112687363D01*
X177068716Y-112086648D01*
X177069284Y-111436205D01*
X176820894Y-110835057D01*
X176361363Y-110374722D01*
X175760648Y-110125284D01*
X175110205Y-110124716D01*
X174509057Y-110373106D01*
X174163801Y-110717759D01*
X173821363Y-110374722D01*
X173220648Y-110125284D01*
X172570205Y-110124716D01*
X171969057Y-110373106D01*
X171623801Y-110717759D01*
X171281363Y-110374722D01*
X170680648Y-110125284D01*
X170030205Y-110124716D01*
X169429057Y-110373106D01*
X168968722Y-110832637D01*
X168719284Y-111433352D01*
X168718716Y-112083795D01*
X168967106Y-112684943D01*
X169424000Y-113142636D01*
X169424000Y-115195000D01*
X130804000Y-115195000D01*
X130804000Y-112982125D01*
X130984199Y-112802241D01*
X131326637Y-113145278D01*
X131927352Y-113394716D01*
X132577795Y-113395284D01*
X133178943Y-113146894D01*
X133524199Y-112802241D01*
X133866637Y-113145278D01*
X134467352Y-113394716D01*
X135117795Y-113395284D01*
X135718943Y-113146894D01*
X135813340Y-113052661D01*
X146541258Y-113052661D01*
X146753490Y-113566303D01*
X147146130Y-113959629D01*
X147659400Y-114172757D01*
X148215161Y-114173242D01*
X148728803Y-113961010D01*
X149122129Y-113568370D01*
X149335257Y-113055100D01*
X149335742Y-112499339D01*
X149123510Y-111985697D01*
X148730870Y-111592371D01*
X148217600Y-111379243D01*
X147661839Y-111378758D01*
X147148197Y-111590990D01*
X146754871Y-111983630D01*
X146541743Y-112496900D01*
X146541258Y-113052661D01*
X135813340Y-113052661D01*
X136179278Y-112687363D01*
X136428716Y-112086648D01*
X136429284Y-111436205D01*
X136180894Y-110835057D01*
X135721363Y-110374722D01*
X135120648Y-110125284D01*
X134470205Y-110124716D01*
X133869057Y-110373106D01*
X133523801Y-110717759D01*
X133181363Y-110374722D01*
X132580648Y-110125284D01*
X131930205Y-110124716D01*
X131329057Y-110373106D01*
X130983801Y-110717759D01*
X130641363Y-110374722D01*
X130040648Y-110125284D01*
X129390205Y-110124716D01*
X128789057Y-110373106D01*
X128328722Y-110832637D01*
X128079284Y-111433352D01*
X128078716Y-112083795D01*
X128327106Y-112684943D01*
X128784000Y-113142636D01*
X128784000Y-115195000D01*
X90588356Y-115195000D01*
X90164000Y-114770644D01*
X90164000Y-112982125D01*
X90344199Y-112802241D01*
X90686637Y-113145278D01*
X91287352Y-113394716D01*
X91937795Y-113395284D01*
X92538943Y-113146894D01*
X92884199Y-112802241D01*
X93226637Y-113145278D01*
X93827352Y-113394716D01*
X94477795Y-113395284D01*
X95078943Y-113146894D01*
X95173340Y-113052661D01*
X105901258Y-113052661D01*
X106113490Y-113566303D01*
X106506130Y-113959629D01*
X107019400Y-114172757D01*
X107575161Y-114173242D01*
X108088803Y-113961010D01*
X108482129Y-113568370D01*
X108695257Y-113055100D01*
X108695742Y-112499339D01*
X108483510Y-111985697D01*
X108090870Y-111592371D01*
X107577600Y-111379243D01*
X107021839Y-111378758D01*
X106508197Y-111590990D01*
X106114871Y-111983630D01*
X105901743Y-112496900D01*
X105901258Y-113052661D01*
X95173340Y-113052661D01*
X95539278Y-112687363D01*
X95788716Y-112086648D01*
X95789284Y-111436205D01*
X95540894Y-110835057D01*
X95081363Y-110374722D01*
X94480648Y-110125284D01*
X93830205Y-110124716D01*
X93229057Y-110373106D01*
X92883801Y-110717759D01*
X92541363Y-110374722D01*
X91940648Y-110125284D01*
X91290205Y-110124716D01*
X90689057Y-110373106D01*
X90343801Y-110717759D01*
X90001363Y-110374722D01*
X89400648Y-110125284D01*
X88750205Y-110124716D01*
X88149057Y-110373106D01*
X87688722Y-110832637D01*
X87439284Y-111433352D01*
X87438716Y-112083795D01*
X77265600Y-112083795D01*
X77265600Y-95567500D01*
X409390607Y-95567500D01*
X409503646Y-96135785D01*
X409825553Y-96617554D01*
X410307322Y-96939461D01*
X410875607Y-97052500D01*
X410933793Y-97052500D01*
X411502078Y-96939461D01*
X411983847Y-96617554D01*
X412174700Y-96331922D01*
X412365553Y-96617554D01*
X412694726Y-96837500D01*
X412365553Y-97057446D01*
X412043646Y-97539215D01*
X411930607Y-98107500D01*
X412043646Y-98675785D01*
X412365553Y-99157554D01*
X412694726Y-99377500D01*
X412365553Y-99597446D01*
X412174700Y-99883078D01*
X411983847Y-99597446D01*
X411502078Y-99275539D01*
X410933793Y-99162500D01*
X410875607Y-99162500D01*
X410307322Y-99275539D01*
X409825553Y-99597446D01*
X409503646Y-100079215D01*
X409390607Y-100647500D01*
X409503646Y-101215785D01*
X409825553Y-101697554D01*
X410154726Y-101917500D01*
X409825553Y-102137446D01*
X409503646Y-102619215D01*
X409390607Y-103187500D01*
X409503646Y-103755785D01*
X409825553Y-104237554D01*
X410307322Y-104559461D01*
X410875607Y-104672500D01*
X410933793Y-104672500D01*
X411502078Y-104559461D01*
X411983847Y-104237554D01*
X412174700Y-103951922D01*
X412365553Y-104237554D01*
X412847322Y-104559461D01*
X413415607Y-104672500D01*
X413473793Y-104672500D01*
X414042078Y-104559461D01*
X414523847Y-104237554D01*
X414845754Y-103755785D01*
X414958793Y-103187500D01*
X414845754Y-102619215D01*
X414523847Y-102137446D01*
X414194674Y-101917500D01*
X414523847Y-101697554D01*
X414845754Y-101215785D01*
X414958793Y-100647500D01*
X414845754Y-100079215D01*
X414523847Y-99597446D01*
X414194674Y-99377500D01*
X414523847Y-99157554D01*
X414845754Y-98675785D01*
X414958793Y-98107500D01*
X414845754Y-97539215D01*
X414523847Y-97057446D01*
X414194674Y-96837500D01*
X414523847Y-96617554D01*
X414845754Y-96135785D01*
X414958793Y-95567500D01*
X414845754Y-94999215D01*
X414523847Y-94517446D01*
X414194674Y-94297500D01*
X414523847Y-94077554D01*
X414845754Y-93595785D01*
X414958793Y-93027500D01*
X414845754Y-92459215D01*
X414523847Y-91977446D01*
X414042078Y-91655539D01*
X413473793Y-91542500D01*
X413415607Y-91542500D01*
X412847322Y-91655539D01*
X412365553Y-91977446D01*
X412364729Y-91978679D01*
X412357862Y-91942183D01*
X412218790Y-91726059D01*
X412006590Y-91581069D01*
X411754700Y-91530060D01*
X410054700Y-91530060D01*
X409819383Y-91574338D01*
X409603259Y-91713410D01*
X409458269Y-91925610D01*
X409407260Y-92177500D01*
X409407260Y-93877500D01*
X409451538Y-94112817D01*
X409590610Y-94328941D01*
X409802810Y-94473931D01*
X409870241Y-94487586D01*
X409825553Y-94517446D01*
X409503646Y-94999215D01*
X409390607Y-95567500D01*
X77265600Y-95567500D01*
X77265600Y-91287600D01*
X90073071Y-91287600D01*
X90178498Y-91817617D01*
X90478728Y-92266943D01*
X90928054Y-92567173D01*
X91458071Y-92672600D01*
X92531929Y-92672600D01*
X93061946Y-92567173D01*
X93511272Y-92266943D01*
X93811502Y-91817617D01*
X93916929Y-91287600D01*
X130840071Y-91287600D01*
X130945498Y-91817617D01*
X131245728Y-92266943D01*
X131695054Y-92567173D01*
X132225071Y-92672600D01*
X133298929Y-92672600D01*
X133828946Y-92567173D01*
X134278272Y-92266943D01*
X134578502Y-91817617D01*
X134683929Y-91287600D01*
X171480071Y-91287600D01*
X171585498Y-91817617D01*
X171885728Y-92266943D01*
X172335054Y-92567173D01*
X172865071Y-92672600D01*
X173938929Y-92672600D01*
X174468946Y-92567173D01*
X174918272Y-92266943D01*
X175218502Y-91817617D01*
X175323929Y-91287600D01*
X212120071Y-91287600D01*
X212225498Y-91817617D01*
X212525728Y-92266943D01*
X212975054Y-92567173D01*
X213505071Y-92672600D01*
X214578929Y-92672600D01*
X215108946Y-92567173D01*
X215558272Y-92266943D01*
X215858502Y-91817617D01*
X215963929Y-91287600D01*
X252760071Y-91287600D01*
X252865498Y-91817617D01*
X253165728Y-92266943D01*
X253615054Y-92567173D01*
X254145071Y-92672600D01*
X255218929Y-92672600D01*
X255748946Y-92567173D01*
X256198272Y-92266943D01*
X256498502Y-91817617D01*
X256603929Y-91287600D01*
X293400071Y-91287600D01*
X293505498Y-91817617D01*
X293805728Y-92266943D01*
X294255054Y-92567173D01*
X294785071Y-92672600D01*
X295858929Y-92672600D01*
X296388946Y-92567173D01*
X296838272Y-92266943D01*
X297138502Y-91817617D01*
X297243929Y-91287600D01*
X333913071Y-91287600D01*
X334018498Y-91817617D01*
X334318728Y-92266943D01*
X334768054Y-92567173D01*
X335298071Y-92672600D01*
X336371929Y-92672600D01*
X336901946Y-92567173D01*
X337351272Y-92266943D01*
X337651502Y-91817617D01*
X337756929Y-91287600D01*
X374680071Y-91287600D01*
X374785498Y-91817617D01*
X375085728Y-92266943D01*
X375535054Y-92567173D01*
X376065071Y-92672600D01*
X377138929Y-92672600D01*
X377668946Y-92567173D01*
X378118272Y-92266943D01*
X378418502Y-91817617D01*
X378523929Y-91287600D01*
X428640071Y-91287600D01*
X428745498Y-91817617D01*
X429045728Y-92266943D01*
X429495054Y-92567173D01*
X430025071Y-92672600D01*
X431098929Y-92672600D01*
X431628946Y-92567173D01*
X432078272Y-92266943D01*
X432378502Y-91817617D01*
X432483929Y-91287600D01*
X469280071Y-91287600D01*
X469385498Y-91817617D01*
X469685728Y-92266943D01*
X470135054Y-92567173D01*
X470665071Y-92672600D01*
X471738929Y-92672600D01*
X472268946Y-92567173D01*
X472718272Y-92266943D01*
X473018502Y-91817617D01*
X473123929Y-91287600D01*
X473018502Y-90757583D01*
X472718272Y-90308257D01*
X472268946Y-90008027D01*
X471738929Y-89902600D01*
X470665071Y-89902600D01*
X470135054Y-90008027D01*
X469685728Y-90308257D01*
X469385498Y-90757583D01*
X469280071Y-91287600D01*
X432483929Y-91287600D01*
X432378502Y-90757583D01*
X432078272Y-90308257D01*
X431628946Y-90008027D01*
X431098929Y-89902600D01*
X430025071Y-89902600D01*
X429495054Y-90008027D01*
X429045728Y-90308257D01*
X428745498Y-90757583D01*
X428640071Y-91287600D01*
X378523929Y-91287600D01*
X378418502Y-90757583D01*
X378118272Y-90308257D01*
X377668946Y-90008027D01*
X377138929Y-89902600D01*
X376065071Y-89902600D01*
X375535054Y-90008027D01*
X375085728Y-90308257D01*
X374785498Y-90757583D01*
X374680071Y-91287600D01*
X337756929Y-91287600D01*
X337651502Y-90757583D01*
X337351272Y-90308257D01*
X336901946Y-90008027D01*
X336371929Y-89902600D01*
X335298071Y-89902600D01*
X334768054Y-90008027D01*
X334318728Y-90308257D01*
X334018498Y-90757583D01*
X333913071Y-91287600D01*
X297243929Y-91287600D01*
X297138502Y-90757583D01*
X296838272Y-90308257D01*
X296388946Y-90008027D01*
X295858929Y-89902600D01*
X294785071Y-89902600D01*
X294255054Y-90008027D01*
X293805728Y-90308257D01*
X293505498Y-90757583D01*
X293400071Y-91287600D01*
X256603929Y-91287600D01*
X256498502Y-90757583D01*
X256198272Y-90308257D01*
X255748946Y-90008027D01*
X255218929Y-89902600D01*
X254145071Y-89902600D01*
X253615054Y-90008027D01*
X253165728Y-90308257D01*
X252865498Y-90757583D01*
X252760071Y-91287600D01*
X215963929Y-91287600D01*
X215858502Y-90757583D01*
X215558272Y-90308257D01*
X215108946Y-90008027D01*
X214578929Y-89902600D01*
X213505071Y-89902600D01*
X212975054Y-90008027D01*
X212525728Y-90308257D01*
X212225498Y-90757583D01*
X212120071Y-91287600D01*
X175323929Y-91287600D01*
X175218502Y-90757583D01*
X174918272Y-90308257D01*
X174468946Y-90008027D01*
X173938929Y-89902600D01*
X172865071Y-89902600D01*
X172335054Y-90008027D01*
X171885728Y-90308257D01*
X171585498Y-90757583D01*
X171480071Y-91287600D01*
X134683929Y-91287600D01*
X134578502Y-90757583D01*
X134278272Y-90308257D01*
X133828946Y-90008027D01*
X133298929Y-89902600D01*
X132225071Y-89902600D01*
X131695054Y-90008027D01*
X131245728Y-90308257D01*
X130945498Y-90757583D01*
X130840071Y-91287600D01*
X93916929Y-91287600D01*
X93811502Y-90757583D01*
X93511272Y-90308257D01*
X93061946Y-90008027D01*
X92531929Y-89902600D01*
X91458071Y-89902600D01*
X90928054Y-90008027D01*
X90478728Y-90308257D01*
X90178498Y-90757583D01*
X90073071Y-91287600D01*
X77265600Y-91287600D01*
X77265600Y-86842226D01*
X89559579Y-86842226D01*
X89929504Y-87737514D01*
X90613883Y-88423088D01*
X91508524Y-88794576D01*
X92477226Y-88795421D01*
X93372514Y-88425496D01*
X94058088Y-87741117D01*
X94429576Y-86846476D01*
X94429579Y-86842226D01*
X130326579Y-86842226D01*
X130696504Y-87737514D01*
X131380883Y-88423088D01*
X132275524Y-88794576D01*
X133244226Y-88795421D01*
X134139514Y-88425496D01*
X134825088Y-87741117D01*
X135196576Y-86846476D01*
X135196579Y-86842226D01*
X170966579Y-86842226D01*
X171336504Y-87737514D01*
X172020883Y-88423088D01*
X172915524Y-88794576D01*
X173884226Y-88795421D01*
X174779514Y-88425496D01*
X175465088Y-87741117D01*
X175836576Y-86846476D01*
X175836579Y-86842226D01*
X211606579Y-86842226D01*
X211976504Y-87737514D01*
X212660883Y-88423088D01*
X213555524Y-88794576D01*
X214524226Y-88795421D01*
X215419514Y-88425496D01*
X216105088Y-87741117D01*
X216476576Y-86846476D01*
X216476579Y-86842226D01*
X252246579Y-86842226D01*
X252616504Y-87737514D01*
X253300883Y-88423088D01*
X254195524Y-88794576D01*
X255164226Y-88795421D01*
X256059514Y-88425496D01*
X256745088Y-87741117D01*
X257116576Y-86846476D01*
X257116579Y-86842226D01*
X292886579Y-86842226D01*
X293256504Y-87737514D01*
X293940883Y-88423088D01*
X294835524Y-88794576D01*
X295804226Y-88795421D01*
X296699514Y-88425496D01*
X297385088Y-87741117D01*
X297756576Y-86846476D01*
X297756579Y-86842226D01*
X333399579Y-86842226D01*
X333769504Y-87737514D01*
X334453883Y-88423088D01*
X335348524Y-88794576D01*
X336317226Y-88795421D01*
X337212514Y-88425496D01*
X337898088Y-87741117D01*
X338269576Y-86846476D01*
X338269579Y-86842226D01*
X374166579Y-86842226D01*
X374536504Y-87737514D01*
X375220883Y-88423088D01*
X376115524Y-88794576D01*
X377084226Y-88795421D01*
X377979514Y-88425496D01*
X378665088Y-87741117D01*
X379036576Y-86846476D01*
X379036579Y-86842226D01*
X428126579Y-86842226D01*
X428496504Y-87737514D01*
X429180883Y-88423088D01*
X430075524Y-88794576D01*
X431044226Y-88795421D01*
X431939514Y-88425496D01*
X432625088Y-87741117D01*
X432996576Y-86846476D01*
X432996579Y-86842226D01*
X468766579Y-86842226D01*
X469136504Y-87737514D01*
X469820883Y-88423088D01*
X470715524Y-88794576D01*
X471684226Y-88795421D01*
X472579514Y-88425496D01*
X473265088Y-87741117D01*
X473636576Y-86846476D01*
X473637421Y-85877774D01*
X473267496Y-84982486D01*
X472583117Y-84296912D01*
X471688476Y-83925424D01*
X470719774Y-83924579D01*
X469824486Y-84294504D01*
X469138912Y-84978883D01*
X468767424Y-85873524D01*
X468766579Y-86842226D01*
X432996579Y-86842226D01*
X432997421Y-85877774D01*
X432627496Y-84982486D01*
X431943117Y-84296912D01*
X431048476Y-83925424D01*
X430079774Y-83924579D01*
X429184486Y-84294504D01*
X428498912Y-84978883D01*
X428127424Y-85873524D01*
X428126579Y-86842226D01*
X379036579Y-86842226D01*
X379037421Y-85877774D01*
X378667496Y-84982486D01*
X377983117Y-84296912D01*
X377088476Y-83925424D01*
X376119774Y-83924579D01*
X375224486Y-84294504D01*
X374538912Y-84978883D01*
X374167424Y-85873524D01*
X374166579Y-86842226D01*
X338269579Y-86842226D01*
X338270421Y-85877774D01*
X337900496Y-84982486D01*
X337216117Y-84296912D01*
X336321476Y-83925424D01*
X335352774Y-83924579D01*
X334457486Y-84294504D01*
X333771912Y-84978883D01*
X333400424Y-85873524D01*
X333399579Y-86842226D01*
X297756579Y-86842226D01*
X297757421Y-85877774D01*
X297387496Y-84982486D01*
X296703117Y-84296912D01*
X295808476Y-83925424D01*
X294839774Y-83924579D01*
X293944486Y-84294504D01*
X293258912Y-84978883D01*
X292887424Y-85873524D01*
X292886579Y-86842226D01*
X257116579Y-86842226D01*
X257117421Y-85877774D01*
X256747496Y-84982486D01*
X256063117Y-84296912D01*
X255168476Y-83925424D01*
X254199774Y-83924579D01*
X253304486Y-84294504D01*
X252618912Y-84978883D01*
X252247424Y-85873524D01*
X252246579Y-86842226D01*
X216476579Y-86842226D01*
X216477421Y-85877774D01*
X216107496Y-84982486D01*
X215423117Y-84296912D01*
X214528476Y-83925424D01*
X213559774Y-83924579D01*
X212664486Y-84294504D01*
X211978912Y-84978883D01*
X211607424Y-85873524D01*
X211606579Y-86842226D01*
X175836579Y-86842226D01*
X175837421Y-85877774D01*
X175467496Y-84982486D01*
X174783117Y-84296912D01*
X173888476Y-83925424D01*
X172919774Y-83924579D01*
X172024486Y-84294504D01*
X171338912Y-84978883D01*
X170967424Y-85873524D01*
X170966579Y-86842226D01*
X135196579Y-86842226D01*
X135197421Y-85877774D01*
X134827496Y-84982486D01*
X134143117Y-84296912D01*
X133248476Y-83925424D01*
X132279774Y-83924579D01*
X131384486Y-84294504D01*
X130698912Y-84978883D01*
X130327424Y-85873524D01*
X130326579Y-86842226D01*
X94429579Y-86842226D01*
X94430421Y-85877774D01*
X94060496Y-84982486D01*
X93376117Y-84296912D01*
X92481476Y-83925424D01*
X91512774Y-83924579D01*
X90617486Y-84294504D01*
X89931912Y-84978883D01*
X89560424Y-85873524D01*
X89559579Y-86842226D01*
X77265600Y-86842226D01*
X77265600Y-83080661D01*
X105901258Y-83080661D01*
X106113490Y-83594303D01*
X106506130Y-83987629D01*
X107019400Y-84200757D01*
X107575161Y-84201242D01*
X108088803Y-83989010D01*
X108482129Y-83596370D01*
X108536621Y-83465139D01*
X108589990Y-83594303D01*
X108982630Y-83987629D01*
X109495900Y-84200757D01*
X110051661Y-84201242D01*
X110565303Y-83989010D01*
X110958629Y-83596370D01*
X111044949Y-83388488D01*
X111129990Y-83594303D01*
X111522630Y-83987629D01*
X112035900Y-84200757D01*
X112591661Y-84201242D01*
X113105303Y-83989010D01*
X113498629Y-83596370D01*
X113553121Y-83465139D01*
X113606490Y-83594303D01*
X113999130Y-83987629D01*
X114512400Y-84200757D01*
X115068161Y-84201242D01*
X115581803Y-83989010D01*
X115975129Y-83596370D01*
X116188257Y-83083100D01*
X116188259Y-83080661D01*
X146541258Y-83080661D01*
X146753490Y-83594303D01*
X147146130Y-83987629D01*
X147659400Y-84200757D01*
X148215161Y-84201242D01*
X148728803Y-83989010D01*
X149122129Y-83596370D01*
X149176621Y-83465139D01*
X149229990Y-83594303D01*
X149622630Y-83987629D01*
X150135900Y-84200757D01*
X150691661Y-84201242D01*
X151205303Y-83989010D01*
X151598629Y-83596370D01*
X151684949Y-83388488D01*
X151769990Y-83594303D01*
X152162630Y-83987629D01*
X152675900Y-84200757D01*
X153231661Y-84201242D01*
X153745303Y-83989010D01*
X154138629Y-83596370D01*
X154193121Y-83465139D01*
X154246490Y-83594303D01*
X154639130Y-83987629D01*
X155152400Y-84200757D01*
X155708161Y-84201242D01*
X156221803Y-83989010D01*
X156615129Y-83596370D01*
X156828257Y-83083100D01*
X156828259Y-83080661D01*
X187181258Y-83080661D01*
X187393490Y-83594303D01*
X187786130Y-83987629D01*
X188299400Y-84200757D01*
X188855161Y-84201242D01*
X189368803Y-83989010D01*
X189762129Y-83596370D01*
X189816621Y-83465139D01*
X189869990Y-83594303D01*
X190262630Y-83987629D01*
X190775900Y-84200757D01*
X191331661Y-84201242D01*
X191845303Y-83989010D01*
X192238629Y-83596370D01*
X192324949Y-83388488D01*
X192409990Y-83594303D01*
X192802630Y-83987629D01*
X193315900Y-84200757D01*
X193871661Y-84201242D01*
X194385303Y-83989010D01*
X194778629Y-83596370D01*
X194833121Y-83465139D01*
X194886490Y-83594303D01*
X195279130Y-83987629D01*
X195792400Y-84200757D01*
X196348161Y-84201242D01*
X196861803Y-83989010D01*
X197255129Y-83596370D01*
X197468257Y-83083100D01*
X197468259Y-83080661D01*
X227821258Y-83080661D01*
X228033490Y-83594303D01*
X228426130Y-83987629D01*
X228939400Y-84200757D01*
X229495161Y-84201242D01*
X230008803Y-83989010D01*
X230402129Y-83596370D01*
X230456621Y-83465139D01*
X230509990Y-83594303D01*
X230902630Y-83987629D01*
X231415900Y-84200757D01*
X231971661Y-84201242D01*
X232485303Y-83989010D01*
X232878629Y-83596370D01*
X232964949Y-83388488D01*
X233049990Y-83594303D01*
X233442630Y-83987629D01*
X233955900Y-84200757D01*
X234511661Y-84201242D01*
X235025303Y-83989010D01*
X235418629Y-83596370D01*
X235473121Y-83465139D01*
X235526490Y-83594303D01*
X235919130Y-83987629D01*
X236432400Y-84200757D01*
X236988161Y-84201242D01*
X237501803Y-83989010D01*
X237895129Y-83596370D01*
X238108257Y-83083100D01*
X238108259Y-83080661D01*
X268461258Y-83080661D01*
X268673490Y-83594303D01*
X269066130Y-83987629D01*
X269579400Y-84200757D01*
X270135161Y-84201242D01*
X270648803Y-83989010D01*
X271042129Y-83596370D01*
X271096621Y-83465139D01*
X271149990Y-83594303D01*
X271542630Y-83987629D01*
X272055900Y-84200757D01*
X272611661Y-84201242D01*
X273125303Y-83989010D01*
X273518629Y-83596370D01*
X273604949Y-83388488D01*
X273689990Y-83594303D01*
X274082630Y-83987629D01*
X274595900Y-84200757D01*
X275151661Y-84201242D01*
X275665303Y-83989010D01*
X276058629Y-83596370D01*
X276113121Y-83465139D01*
X276166490Y-83594303D01*
X276559130Y-83987629D01*
X277072400Y-84200757D01*
X277628161Y-84201242D01*
X278141803Y-83989010D01*
X278535129Y-83596370D01*
X278748257Y-83083100D01*
X278748259Y-83080661D01*
X309101258Y-83080661D01*
X309313490Y-83594303D01*
X309706130Y-83987629D01*
X310219400Y-84200757D01*
X310775161Y-84201242D01*
X311288803Y-83989010D01*
X311682129Y-83596370D01*
X311736621Y-83465139D01*
X311789990Y-83594303D01*
X312182630Y-83987629D01*
X312695900Y-84200757D01*
X313251661Y-84201242D01*
X313765303Y-83989010D01*
X314158629Y-83596370D01*
X314244949Y-83388488D01*
X314329990Y-83594303D01*
X314722630Y-83987629D01*
X315235900Y-84200757D01*
X315791661Y-84201242D01*
X316305303Y-83989010D01*
X316698629Y-83596370D01*
X316753121Y-83465139D01*
X316806490Y-83594303D01*
X317199130Y-83987629D01*
X317712400Y-84200757D01*
X318268161Y-84201242D01*
X318781803Y-83989010D01*
X319175129Y-83596370D01*
X319388257Y-83083100D01*
X319388259Y-83080661D01*
X349741258Y-83080661D01*
X349953490Y-83594303D01*
X350346130Y-83987629D01*
X350859400Y-84200757D01*
X351415161Y-84201242D01*
X351928803Y-83989010D01*
X352322129Y-83596370D01*
X352376621Y-83465139D01*
X352429990Y-83594303D01*
X352822630Y-83987629D01*
X353335900Y-84200757D01*
X353891661Y-84201242D01*
X354405303Y-83989010D01*
X354798629Y-83596370D01*
X354884949Y-83388488D01*
X354969990Y-83594303D01*
X355362630Y-83987629D01*
X355875900Y-84200757D01*
X356431661Y-84201242D01*
X356945303Y-83989010D01*
X357338629Y-83596370D01*
X357393121Y-83465139D01*
X357446490Y-83594303D01*
X357839130Y-83987629D01*
X358352400Y-84200757D01*
X358908161Y-84201242D01*
X359421803Y-83989010D01*
X359815129Y-83596370D01*
X360028257Y-83083100D01*
X360028259Y-83080661D01*
X390381258Y-83080661D01*
X390593490Y-83594303D01*
X390986130Y-83987629D01*
X391499400Y-84200757D01*
X392055161Y-84201242D01*
X392568803Y-83989010D01*
X392962129Y-83596370D01*
X393016621Y-83465139D01*
X393069990Y-83594303D01*
X393462630Y-83987629D01*
X393975900Y-84200757D01*
X394531661Y-84201242D01*
X395045303Y-83989010D01*
X395438629Y-83596370D01*
X395524949Y-83388488D01*
X395609990Y-83594303D01*
X396002630Y-83987629D01*
X396515900Y-84200757D01*
X397071661Y-84201242D01*
X397585303Y-83989010D01*
X397978629Y-83596370D01*
X398033121Y-83465139D01*
X398086490Y-83594303D01*
X398479130Y-83987629D01*
X398992400Y-84200757D01*
X399548161Y-84201242D01*
X400061803Y-83989010D01*
X400455129Y-83596370D01*
X400668257Y-83083100D01*
X400668259Y-83080661D01*
X441341258Y-83080661D01*
X441553490Y-83594303D01*
X441946130Y-83987629D01*
X442459400Y-84200757D01*
X443015161Y-84201242D01*
X443528803Y-83989010D01*
X443922129Y-83596370D01*
X443976621Y-83465139D01*
X444029990Y-83594303D01*
X444422630Y-83987629D01*
X444935900Y-84200757D01*
X445491661Y-84201242D01*
X446005303Y-83989010D01*
X446398629Y-83596370D01*
X446484949Y-83388488D01*
X446569990Y-83594303D01*
X446962630Y-83987629D01*
X447475900Y-84200757D01*
X448031661Y-84201242D01*
X448545303Y-83989010D01*
X448938629Y-83596370D01*
X448993121Y-83465139D01*
X449046490Y-83594303D01*
X449439130Y-83987629D01*
X449952400Y-84200757D01*
X450508161Y-84201242D01*
X451021803Y-83989010D01*
X451415129Y-83596370D01*
X451628257Y-83083100D01*
X451628259Y-83080661D01*
X481981258Y-83080661D01*
X482193490Y-83594303D01*
X482586130Y-83987629D01*
X483099400Y-84200757D01*
X483655161Y-84201242D01*
X484168803Y-83989010D01*
X484562129Y-83596370D01*
X484616621Y-83465139D01*
X484669990Y-83594303D01*
X485062630Y-83987629D01*
X485575900Y-84200757D01*
X486131661Y-84201242D01*
X486645303Y-83989010D01*
X487038629Y-83596370D01*
X487124949Y-83388488D01*
X487209990Y-83594303D01*
X487602630Y-83987629D01*
X488115900Y-84200757D01*
X488671661Y-84201242D01*
X489185303Y-83989010D01*
X489578629Y-83596370D01*
X489633121Y-83465139D01*
X489686490Y-83594303D01*
X490079130Y-83987629D01*
X490592400Y-84200757D01*
X491148161Y-84201242D01*
X491661803Y-83989010D01*
X492055129Y-83596370D01*
X492268257Y-83083100D01*
X492268742Y-82527339D01*
X492056510Y-82013697D01*
X491663870Y-81620371D01*
X491150600Y-81407243D01*
X490594839Y-81406758D01*
X490081197Y-81618990D01*
X489687871Y-82011630D01*
X489633379Y-82142861D01*
X489580010Y-82013697D01*
X489187370Y-81620371D01*
X488674100Y-81407243D01*
X488118339Y-81406758D01*
X487604697Y-81618990D01*
X487211371Y-82011630D01*
X487125051Y-82219512D01*
X487040010Y-82013697D01*
X486647370Y-81620371D01*
X486134100Y-81407243D01*
X485578339Y-81406758D01*
X485064697Y-81618990D01*
X484671371Y-82011630D01*
X484616879Y-82142861D01*
X484563510Y-82013697D01*
X484170870Y-81620371D01*
X483657600Y-81407243D01*
X483101839Y-81406758D01*
X482588197Y-81618990D01*
X482194871Y-82011630D01*
X481981743Y-82524900D01*
X481981258Y-83080661D01*
X451628259Y-83080661D01*
X451628742Y-82527339D01*
X451416510Y-82013697D01*
X451023870Y-81620371D01*
X450510600Y-81407243D01*
X449954839Y-81406758D01*
X449441197Y-81618990D01*
X449047871Y-82011630D01*
X448993379Y-82142861D01*
X448940010Y-82013697D01*
X448547370Y-81620371D01*
X448034100Y-81407243D01*
X447478339Y-81406758D01*
X446964697Y-81618990D01*
X446571371Y-82011630D01*
X446485051Y-82219512D01*
X446400010Y-82013697D01*
X446007370Y-81620371D01*
X445494100Y-81407243D01*
X444938339Y-81406758D01*
X444424697Y-81618990D01*
X444031371Y-82011630D01*
X443976879Y-82142861D01*
X443923510Y-82013697D01*
X443530870Y-81620371D01*
X443017600Y-81407243D01*
X442461839Y-81406758D01*
X441948197Y-81618990D01*
X441554871Y-82011630D01*
X441341743Y-82524900D01*
X441341258Y-83080661D01*
X400668259Y-83080661D01*
X400668742Y-82527339D01*
X400456510Y-82013697D01*
X400063870Y-81620371D01*
X399550600Y-81407243D01*
X398994839Y-81406758D01*
X398481197Y-81618990D01*
X398087871Y-82011630D01*
X398033379Y-82142861D01*
X397980010Y-82013697D01*
X397587370Y-81620371D01*
X397074100Y-81407243D01*
X396518339Y-81406758D01*
X396004697Y-81618990D01*
X395611371Y-82011630D01*
X395525051Y-82219512D01*
X395440010Y-82013697D01*
X395047370Y-81620371D01*
X394534100Y-81407243D01*
X393978339Y-81406758D01*
X393464697Y-81618990D01*
X393071371Y-82011630D01*
X393016879Y-82142861D01*
X392963510Y-82013697D01*
X392570870Y-81620371D01*
X392057600Y-81407243D01*
X391501839Y-81406758D01*
X390988197Y-81618990D01*
X390594871Y-82011630D01*
X390381743Y-82524900D01*
X390381258Y-83080661D01*
X360028259Y-83080661D01*
X360028742Y-82527339D01*
X359816510Y-82013697D01*
X359423870Y-81620371D01*
X358910600Y-81407243D01*
X358354839Y-81406758D01*
X357841197Y-81618990D01*
X357447871Y-82011630D01*
X357393379Y-82142861D01*
X357340010Y-82013697D01*
X356947370Y-81620371D01*
X356434100Y-81407243D01*
X355878339Y-81406758D01*
X355364697Y-81618990D01*
X354971371Y-82011630D01*
X354885051Y-82219512D01*
X354800010Y-82013697D01*
X354407370Y-81620371D01*
X353894100Y-81407243D01*
X353338339Y-81406758D01*
X352824697Y-81618990D01*
X352431371Y-82011630D01*
X352376879Y-82142861D01*
X352323510Y-82013697D01*
X351930870Y-81620371D01*
X351417600Y-81407243D01*
X350861839Y-81406758D01*
X350348197Y-81618990D01*
X349954871Y-82011630D01*
X349741743Y-82524900D01*
X349741258Y-83080661D01*
X319388259Y-83080661D01*
X319388742Y-82527339D01*
X319176510Y-82013697D01*
X318783870Y-81620371D01*
X318270600Y-81407243D01*
X317714839Y-81406758D01*
X317201197Y-81618990D01*
X316807871Y-82011630D01*
X316753379Y-82142861D01*
X316700010Y-82013697D01*
X316307370Y-81620371D01*
X315794100Y-81407243D01*
X315238339Y-81406758D01*
X314724697Y-81618990D01*
X314331371Y-82011630D01*
X314245051Y-82219512D01*
X314160010Y-82013697D01*
X313767370Y-81620371D01*
X313254100Y-81407243D01*
X312698339Y-81406758D01*
X312184697Y-81618990D01*
X311791371Y-82011630D01*
X311736879Y-82142861D01*
X311683510Y-82013697D01*
X311290870Y-81620371D01*
X310777600Y-81407243D01*
X310221839Y-81406758D01*
X309708197Y-81618990D01*
X309314871Y-82011630D01*
X309101743Y-82524900D01*
X309101258Y-83080661D01*
X278748259Y-83080661D01*
X278748742Y-82527339D01*
X278536510Y-82013697D01*
X278143870Y-81620371D01*
X277630600Y-81407243D01*
X277074839Y-81406758D01*
X276561197Y-81618990D01*
X276167871Y-82011630D01*
X276113379Y-82142861D01*
X276060010Y-82013697D01*
X275667370Y-81620371D01*
X275154100Y-81407243D01*
X274598339Y-81406758D01*
X274084697Y-81618990D01*
X273691371Y-82011630D01*
X273605051Y-82219512D01*
X273520010Y-82013697D01*
X273127370Y-81620371D01*
X272614100Y-81407243D01*
X272058339Y-81406758D01*
X271544697Y-81618990D01*
X271151371Y-82011630D01*
X271096879Y-82142861D01*
X271043510Y-82013697D01*
X270650870Y-81620371D01*
X270137600Y-81407243D01*
X269581839Y-81406758D01*
X269068197Y-81618990D01*
X268674871Y-82011630D01*
X268461743Y-82524900D01*
X268461258Y-83080661D01*
X238108259Y-83080661D01*
X238108742Y-82527339D01*
X237896510Y-82013697D01*
X237503870Y-81620371D01*
X236990600Y-81407243D01*
X236434839Y-81406758D01*
X235921197Y-81618990D01*
X235527871Y-82011630D01*
X235473379Y-82142861D01*
X235420010Y-82013697D01*
X235027370Y-81620371D01*
X234514100Y-81407243D01*
X233958339Y-81406758D01*
X233444697Y-81618990D01*
X233051371Y-82011630D01*
X232965051Y-82219512D01*
X232880010Y-82013697D01*
X232487370Y-81620371D01*
X231974100Y-81407243D01*
X231418339Y-81406758D01*
X230904697Y-81618990D01*
X230511371Y-82011630D01*
X230456879Y-82142861D01*
X230403510Y-82013697D01*
X230010870Y-81620371D01*
X229497600Y-81407243D01*
X228941839Y-81406758D01*
X228428197Y-81618990D01*
X228034871Y-82011630D01*
X227821743Y-82524900D01*
X227821258Y-83080661D01*
X197468259Y-83080661D01*
X197468742Y-82527339D01*
X197256510Y-82013697D01*
X196863870Y-81620371D01*
X196350600Y-81407243D01*
X195794839Y-81406758D01*
X195281197Y-81618990D01*
X194887871Y-82011630D01*
X194833379Y-82142861D01*
X194780010Y-82013697D01*
X194387370Y-81620371D01*
X193874100Y-81407243D01*
X193318339Y-81406758D01*
X192804697Y-81618990D01*
X192411371Y-82011630D01*
X192325051Y-82219512D01*
X192240010Y-82013697D01*
X191847370Y-81620371D01*
X191334100Y-81407243D01*
X190778339Y-81406758D01*
X190264697Y-81618990D01*
X189871371Y-82011630D01*
X189816879Y-82142861D01*
X189763510Y-82013697D01*
X189370870Y-81620371D01*
X188857600Y-81407243D01*
X188301839Y-81406758D01*
X187788197Y-81618990D01*
X187394871Y-82011630D01*
X187181743Y-82524900D01*
X187181258Y-83080661D01*
X156828259Y-83080661D01*
X156828742Y-82527339D01*
X156616510Y-82013697D01*
X156223870Y-81620371D01*
X155710600Y-81407243D01*
X155154839Y-81406758D01*
X154641197Y-81618990D01*
X154247871Y-82011630D01*
X154193379Y-82142861D01*
X154140010Y-82013697D01*
X153747370Y-81620371D01*
X153234100Y-81407243D01*
X152678339Y-81406758D01*
X152164697Y-81618990D01*
X151771371Y-82011630D01*
X151685051Y-82219512D01*
X151600010Y-82013697D01*
X151207370Y-81620371D01*
X150694100Y-81407243D01*
X150138339Y-81406758D01*
X149624697Y-81618990D01*
X149231371Y-82011630D01*
X149176879Y-82142861D01*
X149123510Y-82013697D01*
X148730870Y-81620371D01*
X148217600Y-81407243D01*
X147661839Y-81406758D01*
X147148197Y-81618990D01*
X146754871Y-82011630D01*
X146541743Y-82524900D01*
X146541258Y-83080661D01*
X116188259Y-83080661D01*
X116188742Y-82527339D01*
X115976510Y-82013697D01*
X115583870Y-81620371D01*
X115070600Y-81407243D01*
X114514839Y-81406758D01*
X114001197Y-81618990D01*
X113607871Y-82011630D01*
X113553379Y-82142861D01*
X113500010Y-82013697D01*
X113107370Y-81620371D01*
X112594100Y-81407243D01*
X112038339Y-81406758D01*
X111524697Y-81618990D01*
X111131371Y-82011630D01*
X111045051Y-82219512D01*
X110960010Y-82013697D01*
X110567370Y-81620371D01*
X110054100Y-81407243D01*
X109498339Y-81406758D01*
X108984697Y-81618990D01*
X108591371Y-82011630D01*
X108536879Y-82142861D01*
X108483510Y-82013697D01*
X108090870Y-81620371D01*
X107577600Y-81407243D01*
X107021839Y-81406758D01*
X106508197Y-81618990D01*
X106114871Y-82011630D01*
X105901743Y-82524900D01*
X105901258Y-83080661D01*
X77265600Y-83080661D01*
X77265600Y-79627119D01*
X81800513Y-79627119D01*
X82140055Y-80448872D01*
X82768221Y-81078136D01*
X83589381Y-81419111D01*
X84478519Y-81419887D01*
X85300272Y-81080345D01*
X85929536Y-80452179D01*
X86266856Y-79639819D01*
X493420213Y-79639819D01*
X493759755Y-80461572D01*
X494387921Y-81090836D01*
X495209081Y-81431811D01*
X496098219Y-81432587D01*
X496919972Y-81093045D01*
X497549236Y-80464879D01*
X497890211Y-79643719D01*
X497890987Y-78754581D01*
X497551445Y-77932828D01*
X496923279Y-77303564D01*
X496102119Y-76962589D01*
X495212981Y-76961813D01*
X494391228Y-77301355D01*
X493761964Y-77929521D01*
X493420989Y-78750681D01*
X493420213Y-79639819D01*
X86266856Y-79639819D01*
X86270511Y-79631019D01*
X86271287Y-78741881D01*
X85931745Y-77920128D01*
X85303579Y-77290864D01*
X84482419Y-76949889D01*
X83593281Y-76949113D01*
X82771528Y-77288655D01*
X82142264Y-77916821D01*
X81801289Y-78737981D01*
X81800513Y-79627119D01*
X77265600Y-79627119D01*
X77265600Y-76910000D01*
X501841700Y-76910000D01*
X501841700Y-118670000D01*
X501841700Y-118670000D01*
G37*
X501841700Y-118670000D02*
X77265600Y-118670000D01*
X77265600Y-116800019D01*
X81787813Y-116800019D01*
X82127355Y-117621772D01*
X82755521Y-118251036D01*
X83576681Y-118592011D01*
X84465819Y-118592787D01*
X85287572Y-118253245D01*
X85916836Y-117625079D01*
X86257811Y-116803919D01*
X86258587Y-115914781D01*
X85919045Y-115093028D01*
X85290879Y-114463764D01*
X84469719Y-114122789D01*
X83580581Y-114122013D01*
X82758828Y-114461555D01*
X82129564Y-115089721D01*
X81788589Y-115910881D01*
X81787813Y-116800019D01*
X77265600Y-116800019D01*
X77265600Y-112083795D01*
X87438716Y-112083795D01*
X87687106Y-112684943D01*
X88144000Y-113142636D01*
X88144000Y-115189000D01*
X88220882Y-115575510D01*
X88439822Y-115903178D01*
X89455822Y-116919178D01*
X89783490Y-117138118D01*
X90170000Y-117215000D01*
X373380000Y-117215000D01*
X373454771Y-117200127D01*
X373808822Y-117554178D01*
X374136490Y-117773118D01*
X374523000Y-117850000D01*
X465994264Y-117850000D01*
X466380774Y-117773118D01*
X466708442Y-117554178D01*
X467449901Y-116812719D01*
X493420213Y-116812719D01*
X493759755Y-117634472D01*
X494387921Y-118263736D01*
X495209081Y-118604711D01*
X496098219Y-118605487D01*
X496919972Y-118265945D01*
X497549236Y-117637779D01*
X497890211Y-116816619D01*
X497890987Y-115927481D01*
X497551445Y-115105728D01*
X496923279Y-114476464D01*
X496102119Y-114135489D01*
X495212981Y-114134713D01*
X494391228Y-114474255D01*
X493761964Y-115102421D01*
X493420989Y-115923581D01*
X493420213Y-116812719D01*
X467449901Y-116812719D01*
X469964178Y-114298442D01*
X470183118Y-113970774D01*
X470260000Y-113584264D01*
X470260000Y-113160000D01*
X470183118Y-112773490D01*
X469964178Y-112445822D01*
X469636510Y-112226882D01*
X469250000Y-112150000D01*
X468863490Y-112226882D01*
X468535822Y-112445822D01*
X468316882Y-112773490D01*
X468240000Y-113160000D01*
X468240000Y-113165908D01*
X465575908Y-115830000D01*
X374941356Y-115830000D01*
X374644000Y-115532644D01*
X374644000Y-112982125D01*
X374824199Y-112802241D01*
X375166637Y-113145278D01*
X375767352Y-113394716D01*
X376417795Y-113395284D01*
X377018943Y-113146894D01*
X377364199Y-112802241D01*
X377706637Y-113145278D01*
X378307352Y-113394716D01*
X378957795Y-113395284D01*
X379558943Y-113146894D01*
X379653340Y-113052661D01*
X390381258Y-113052661D01*
X390593490Y-113566303D01*
X390986130Y-113959629D01*
X391499400Y-114172757D01*
X392055161Y-114173242D01*
X392568803Y-113961010D01*
X392962129Y-113568370D01*
X393175257Y-113055100D01*
X393175259Y-113052661D01*
X441341258Y-113052661D01*
X441553490Y-113566303D01*
X441946130Y-113959629D01*
X442459400Y-114172757D01*
X443015161Y-114173242D01*
X443528803Y-113961010D01*
X443922129Y-113568370D01*
X444135257Y-113055100D01*
X444135259Y-113052661D01*
X446357758Y-113052661D01*
X446569990Y-113566303D01*
X446962630Y-113959629D01*
X447475900Y-114172757D01*
X448031661Y-114173242D01*
X448545303Y-113961010D01*
X448938629Y-113568370D01*
X449151757Y-113055100D01*
X449152242Y-112499339D01*
X448940010Y-111985697D01*
X448547370Y-111592371D01*
X448034100Y-111379243D01*
X447478339Y-111378758D01*
X446964697Y-111590990D01*
X446571371Y-111983630D01*
X446358243Y-112496900D01*
X446357758Y-113052661D01*
X444135259Y-113052661D01*
X444135319Y-112984313D01*
X446764632Y-110355000D01*
X479352368Y-110355000D01*
X481981318Y-112983950D01*
X481981258Y-113052661D01*
X482193490Y-113566303D01*
X482586130Y-113959629D01*
X483099400Y-114172757D01*
X483655161Y-114173242D01*
X484168803Y-113961010D01*
X484562129Y-113568370D01*
X484775257Y-113055100D01*
X484775259Y-113052661D01*
X486997758Y-113052661D01*
X487209990Y-113566303D01*
X487602630Y-113959629D01*
X488115900Y-114172757D01*
X488671661Y-114173242D01*
X489185303Y-113961010D01*
X489578629Y-113568370D01*
X489791757Y-113055100D01*
X489792242Y-112499339D01*
X489580010Y-111985697D01*
X489187370Y-111592371D01*
X488674100Y-111379243D01*
X488118339Y-111378758D01*
X487604697Y-111590990D01*
X487211371Y-111983630D01*
X486998243Y-112496900D01*
X486997758Y-113052661D01*
X484775259Y-113052661D01*
X484775742Y-112499339D01*
X484563510Y-111985697D01*
X484170870Y-111592371D01*
X483657600Y-111379243D01*
X483586813Y-111379181D01*
X480625066Y-108417434D01*
X480314619Y-108210000D01*
X480256846Y-108171397D01*
X479822500Y-108085000D01*
X446294500Y-108085000D01*
X445860154Y-108171397D01*
X445491934Y-108417434D01*
X442530550Y-111378818D01*
X442461839Y-111378758D01*
X441948197Y-111590990D01*
X441554871Y-111983630D01*
X441341743Y-112496900D01*
X441341258Y-113052661D01*
X393175259Y-113052661D01*
X393175742Y-112499339D01*
X392963510Y-111985697D01*
X392570870Y-111592371D01*
X392057600Y-111379243D01*
X391501839Y-111378758D01*
X390988197Y-111590990D01*
X390594871Y-111983630D01*
X390381743Y-112496900D01*
X390381258Y-113052661D01*
X379653340Y-113052661D01*
X380019278Y-112687363D01*
X380268716Y-112086648D01*
X380269284Y-111436205D01*
X380020894Y-110835057D01*
X379782305Y-110596051D01*
X380148356Y-110230000D01*
X427990000Y-110230000D01*
X428376510Y-110153118D01*
X428704178Y-109934178D01*
X428923118Y-109606510D01*
X429000000Y-109220000D01*
X428923118Y-108833490D01*
X428704178Y-108505822D01*
X428376510Y-108286882D01*
X427990000Y-108210000D01*
X379730000Y-108210000D01*
X379343490Y-108286882D01*
X379015822Y-108505822D01*
X377919822Y-109601822D01*
X377700882Y-109929490D01*
X377624000Y-110316000D01*
X377624000Y-110458014D01*
X377363801Y-110717759D01*
X377021363Y-110374722D01*
X376420648Y-110125284D01*
X375770205Y-110124716D01*
X375169057Y-110373106D01*
X374823801Y-110717759D01*
X374481363Y-110374722D01*
X373880648Y-110125284D01*
X373230205Y-110124716D01*
X372629057Y-110373106D01*
X372168722Y-110832637D01*
X371919284Y-111433352D01*
X371918716Y-112083795D01*
X372167106Y-112684943D01*
X372624000Y-113142636D01*
X372624000Y-115195000D01*
X334004000Y-115195000D01*
X334004000Y-112982125D01*
X334184199Y-112802241D01*
X334526637Y-113145278D01*
X335127352Y-113394716D01*
X335777795Y-113395284D01*
X336378943Y-113146894D01*
X336724199Y-112802241D01*
X337066637Y-113145278D01*
X337667352Y-113394716D01*
X338317795Y-113395284D01*
X338918943Y-113146894D01*
X339013340Y-113052661D01*
X349741258Y-113052661D01*
X349953490Y-113566303D01*
X350346130Y-113959629D01*
X350859400Y-114172757D01*
X351415161Y-114173242D01*
X351928803Y-113961010D01*
X352322129Y-113568370D01*
X352535257Y-113055100D01*
X352535742Y-112499339D01*
X352323510Y-111985697D01*
X351930870Y-111592371D01*
X351417600Y-111379243D01*
X350861839Y-111378758D01*
X350348197Y-111590990D01*
X349954871Y-111983630D01*
X349741743Y-112496900D01*
X349741258Y-113052661D01*
X339013340Y-113052661D01*
X339379278Y-112687363D01*
X339628716Y-112086648D01*
X339629284Y-111436205D01*
X339380894Y-110835057D01*
X338921363Y-110374722D01*
X338320648Y-110125284D01*
X337670205Y-110124716D01*
X337069057Y-110373106D01*
X336723801Y-110717759D01*
X336381363Y-110374722D01*
X335780648Y-110125284D01*
X335130205Y-110124716D01*
X334529057Y-110373106D01*
X334183801Y-110717759D01*
X333841363Y-110374722D01*
X333240648Y-110125284D01*
X332590205Y-110124716D01*
X331989057Y-110373106D01*
X331528722Y-110832637D01*
X331279284Y-111433352D01*
X331278716Y-112083795D01*
X331527106Y-112684943D01*
X331984000Y-113142636D01*
X331984000Y-115195000D01*
X293364000Y-115195000D01*
X293364000Y-112982125D01*
X293544199Y-112802241D01*
X293886637Y-113145278D01*
X294487352Y-113394716D01*
X295137795Y-113395284D01*
X295738943Y-113146894D01*
X296084199Y-112802241D01*
X296426637Y-113145278D01*
X297027352Y-113394716D01*
X297677795Y-113395284D01*
X298278943Y-113146894D01*
X298373340Y-113052661D01*
X309101258Y-113052661D01*
X309313490Y-113566303D01*
X309706130Y-113959629D01*
X310219400Y-114172757D01*
X310775161Y-114173242D01*
X311288803Y-113961010D01*
X311682129Y-113568370D01*
X311895257Y-113055100D01*
X311895742Y-112499339D01*
X311683510Y-111985697D01*
X311290870Y-111592371D01*
X310777600Y-111379243D01*
X310221839Y-111378758D01*
X309708197Y-111590990D01*
X309314871Y-111983630D01*
X309101743Y-112496900D01*
X309101258Y-113052661D01*
X298373340Y-113052661D01*
X298739278Y-112687363D01*
X298988716Y-112086648D01*
X298989284Y-111436205D01*
X298740894Y-110835057D01*
X298281363Y-110374722D01*
X297680648Y-110125284D01*
X297030205Y-110124716D01*
X296429057Y-110373106D01*
X296083801Y-110717759D01*
X295741363Y-110374722D01*
X295140648Y-110125284D01*
X294490205Y-110124716D01*
X293889057Y-110373106D01*
X293543801Y-110717759D01*
X293201363Y-110374722D01*
X292600648Y-110125284D01*
X291950205Y-110124716D01*
X291349057Y-110373106D01*
X290888722Y-110832637D01*
X290639284Y-111433352D01*
X290638716Y-112083795D01*
X290887106Y-112684943D01*
X291344000Y-113142636D01*
X291344000Y-115195000D01*
X252724000Y-115195000D01*
X252724000Y-112982125D01*
X252904199Y-112802241D01*
X253246637Y-113145278D01*
X253847352Y-113394716D01*
X254497795Y-113395284D01*
X255098943Y-113146894D01*
X255444199Y-112802241D01*
X255786637Y-113145278D01*
X256387352Y-113394716D01*
X257037795Y-113395284D01*
X257638943Y-113146894D01*
X257733340Y-113052661D01*
X268461258Y-113052661D01*
X268673490Y-113566303D01*
X269066130Y-113959629D01*
X269579400Y-114172757D01*
X270135161Y-114173242D01*
X270648803Y-113961010D01*
X271042129Y-113568370D01*
X271255257Y-113055100D01*
X271255742Y-112499339D01*
X271043510Y-111985697D01*
X270650870Y-111592371D01*
X270137600Y-111379243D01*
X269581839Y-111378758D01*
X269068197Y-111590990D01*
X268674871Y-111983630D01*
X268461743Y-112496900D01*
X268461258Y-113052661D01*
X257733340Y-113052661D01*
X258099278Y-112687363D01*
X258348716Y-112086648D01*
X258349284Y-111436205D01*
X258100894Y-110835057D01*
X257641363Y-110374722D01*
X257040648Y-110125284D01*
X256390205Y-110124716D01*
X255789057Y-110373106D01*
X255443801Y-110717759D01*
X255101363Y-110374722D01*
X254500648Y-110125284D01*
X253850205Y-110124716D01*
X253249057Y-110373106D01*
X252903801Y-110717759D01*
X252561363Y-110374722D01*
X251960648Y-110125284D01*
X251310205Y-110124716D01*
X250709057Y-110373106D01*
X250248722Y-110832637D01*
X249999284Y-111433352D01*
X249998716Y-112083795D01*
X250247106Y-112684943D01*
X250704000Y-113142636D01*
X250704000Y-115195000D01*
X212084000Y-115195000D01*
X212084000Y-112982125D01*
X212264199Y-112802241D01*
X212606637Y-113145278D01*
X213207352Y-113394716D01*
X213857795Y-113395284D01*
X214458943Y-113146894D01*
X214804199Y-112802241D01*
X215146637Y-113145278D01*
X215747352Y-113394716D01*
X216397795Y-113395284D01*
X216998943Y-113146894D01*
X217093340Y-113052661D01*
X227821258Y-113052661D01*
X228033490Y-113566303D01*
X228426130Y-113959629D01*
X228939400Y-114172757D01*
X229495161Y-114173242D01*
X230008803Y-113961010D01*
X230402129Y-113568370D01*
X230615257Y-113055100D01*
X230615742Y-112499339D01*
X230403510Y-111985697D01*
X230010870Y-111592371D01*
X229497600Y-111379243D01*
X228941839Y-111378758D01*
X228428197Y-111590990D01*
X228034871Y-111983630D01*
X227821743Y-112496900D01*
X227821258Y-113052661D01*
X217093340Y-113052661D01*
X217459278Y-112687363D01*
X217708716Y-112086648D01*
X217709284Y-111436205D01*
X217460894Y-110835057D01*
X217001363Y-110374722D01*
X216400648Y-110125284D01*
X215750205Y-110124716D01*
X215149057Y-110373106D01*
X214803801Y-110717759D01*
X214461363Y-110374722D01*
X213860648Y-110125284D01*
X213210205Y-110124716D01*
X212609057Y-110373106D01*
X212263801Y-110717759D01*
X211921363Y-110374722D01*
X211320648Y-110125284D01*
X210670205Y-110124716D01*
X210069057Y-110373106D01*
X209608722Y-110832637D01*
X209359284Y-111433352D01*
X209358716Y-112083795D01*
X209607106Y-112684943D01*
X210064000Y-113142636D01*
X210064000Y-115195000D01*
X171444000Y-115195000D01*
X171444000Y-112982125D01*
X171624199Y-112802241D01*
X171966637Y-113145278D01*
X172567352Y-113394716D01*
X173217795Y-113395284D01*
X173818943Y-113146894D01*
X174164199Y-112802241D01*
X174506637Y-113145278D01*
X175107352Y-113394716D01*
X175757795Y-113395284D01*
X176358943Y-113146894D01*
X176453340Y-113052661D01*
X187181258Y-113052661D01*
X187393490Y-113566303D01*
X187786130Y-113959629D01*
X188299400Y-114172757D01*
X188855161Y-114173242D01*
X189368803Y-113961010D01*
X189762129Y-113568370D01*
X189975257Y-113055100D01*
X189975742Y-112499339D01*
X189763510Y-111985697D01*
X189370870Y-111592371D01*
X188857600Y-111379243D01*
X188301839Y-111378758D01*
X187788197Y-111590990D01*
X187394871Y-111983630D01*
X187181743Y-112496900D01*
X187181258Y-113052661D01*
X176453340Y-113052661D01*
X176819278Y-112687363D01*
X177068716Y-112086648D01*
X177069284Y-111436205D01*
X176820894Y-110835057D01*
X176361363Y-110374722D01*
X175760648Y-110125284D01*
X175110205Y-110124716D01*
X174509057Y-110373106D01*
X174163801Y-110717759D01*
X173821363Y-110374722D01*
X173220648Y-110125284D01*
X172570205Y-110124716D01*
X171969057Y-110373106D01*
X171623801Y-110717759D01*
X171281363Y-110374722D01*
X170680648Y-110125284D01*
X170030205Y-110124716D01*
X169429057Y-110373106D01*
X168968722Y-110832637D01*
X168719284Y-111433352D01*
X168718716Y-112083795D01*
X168967106Y-112684943D01*
X169424000Y-113142636D01*
X169424000Y-115195000D01*
X130804000Y-115195000D01*
X130804000Y-112982125D01*
X130984199Y-112802241D01*
X131326637Y-113145278D01*
X131927352Y-113394716D01*
X132577795Y-113395284D01*
X133178943Y-113146894D01*
X133524199Y-112802241D01*
X133866637Y-113145278D01*
X134467352Y-113394716D01*
X135117795Y-113395284D01*
X135718943Y-113146894D01*
X135813340Y-113052661D01*
X146541258Y-113052661D01*
X146753490Y-113566303D01*
X147146130Y-113959629D01*
X147659400Y-114172757D01*
X148215161Y-114173242D01*
X148728803Y-113961010D01*
X149122129Y-113568370D01*
X149335257Y-113055100D01*
X149335742Y-112499339D01*
X149123510Y-111985697D01*
X148730870Y-111592371D01*
X148217600Y-111379243D01*
X147661839Y-111378758D01*
X147148197Y-111590990D01*
X146754871Y-111983630D01*
X146541743Y-112496900D01*
X146541258Y-113052661D01*
X135813340Y-113052661D01*
X136179278Y-112687363D01*
X136428716Y-112086648D01*
X136429284Y-111436205D01*
X136180894Y-110835057D01*
X135721363Y-110374722D01*
X135120648Y-110125284D01*
X134470205Y-110124716D01*
X133869057Y-110373106D01*
X133523801Y-110717759D01*
X133181363Y-110374722D01*
X132580648Y-110125284D01*
X131930205Y-110124716D01*
X131329057Y-110373106D01*
X130983801Y-110717759D01*
X130641363Y-110374722D01*
X130040648Y-110125284D01*
X129390205Y-110124716D01*
X128789057Y-110373106D01*
X128328722Y-110832637D01*
X128079284Y-111433352D01*
X128078716Y-112083795D01*
X128327106Y-112684943D01*
X128784000Y-113142636D01*
X128784000Y-115195000D01*
X90588356Y-115195000D01*
X90164000Y-114770644D01*
X90164000Y-112982125D01*
X90344199Y-112802241D01*
X90686637Y-113145278D01*
X91287352Y-113394716D01*
X91937795Y-113395284D01*
X92538943Y-113146894D01*
X92884199Y-112802241D01*
X93226637Y-113145278D01*
X93827352Y-113394716D01*
X94477795Y-113395284D01*
X95078943Y-113146894D01*
X95173340Y-113052661D01*
X105901258Y-113052661D01*
X106113490Y-113566303D01*
X106506130Y-113959629D01*
X107019400Y-114172757D01*
X107575161Y-114173242D01*
X108088803Y-113961010D01*
X108482129Y-113568370D01*
X108695257Y-113055100D01*
X108695742Y-112499339D01*
X108483510Y-111985697D01*
X108090870Y-111592371D01*
X107577600Y-111379243D01*
X107021839Y-111378758D01*
X106508197Y-111590990D01*
X106114871Y-111983630D01*
X105901743Y-112496900D01*
X105901258Y-113052661D01*
X95173340Y-113052661D01*
X95539278Y-112687363D01*
X95788716Y-112086648D01*
X95789284Y-111436205D01*
X95540894Y-110835057D01*
X95081363Y-110374722D01*
X94480648Y-110125284D01*
X93830205Y-110124716D01*
X93229057Y-110373106D01*
X92883801Y-110717759D01*
X92541363Y-110374722D01*
X91940648Y-110125284D01*
X91290205Y-110124716D01*
X90689057Y-110373106D01*
X90343801Y-110717759D01*
X90001363Y-110374722D01*
X89400648Y-110125284D01*
X88750205Y-110124716D01*
X88149057Y-110373106D01*
X87688722Y-110832637D01*
X87439284Y-111433352D01*
X87438716Y-112083795D01*
X77265600Y-112083795D01*
X77265600Y-95567500D01*
X409390607Y-95567500D01*
X409503646Y-96135785D01*
X409825553Y-96617554D01*
X410307322Y-96939461D01*
X410875607Y-97052500D01*
X410933793Y-97052500D01*
X411502078Y-96939461D01*
X411983847Y-96617554D01*
X412174700Y-96331922D01*
X412365553Y-96617554D01*
X412694726Y-96837500D01*
X412365553Y-97057446D01*
X412043646Y-97539215D01*
X411930607Y-98107500D01*
X412043646Y-98675785D01*
X412365553Y-99157554D01*
X412694726Y-99377500D01*
X412365553Y-99597446D01*
X412174700Y-99883078D01*
X411983847Y-99597446D01*
X411502078Y-99275539D01*
X410933793Y-99162500D01*
X410875607Y-99162500D01*
X410307322Y-99275539D01*
X409825553Y-99597446D01*
X409503646Y-100079215D01*
X409390607Y-100647500D01*
X409503646Y-101215785D01*
X409825553Y-101697554D01*
X410154726Y-101917500D01*
X409825553Y-102137446D01*
X409503646Y-102619215D01*
X409390607Y-103187500D01*
X409503646Y-103755785D01*
X409825553Y-104237554D01*
X410307322Y-104559461D01*
X410875607Y-104672500D01*
X410933793Y-104672500D01*
X411502078Y-104559461D01*
X411983847Y-104237554D01*
X412174700Y-103951922D01*
X412365553Y-104237554D01*
X412847322Y-104559461D01*
X413415607Y-104672500D01*
X413473793Y-104672500D01*
X414042078Y-104559461D01*
X414523847Y-104237554D01*
X414845754Y-103755785D01*
X414958793Y-103187500D01*
X414845754Y-102619215D01*
X414523847Y-102137446D01*
X414194674Y-101917500D01*
X414523847Y-101697554D01*
X414845754Y-101215785D01*
X414958793Y-100647500D01*
X414845754Y-100079215D01*
X414523847Y-99597446D01*
X414194674Y-99377500D01*
X414523847Y-99157554D01*
X414845754Y-98675785D01*
X414958793Y-98107500D01*
X414845754Y-97539215D01*
X414523847Y-97057446D01*
X414194674Y-96837500D01*
X414523847Y-96617554D01*
X414845754Y-96135785D01*
X414958793Y-95567500D01*
X414845754Y-94999215D01*
X414523847Y-94517446D01*
X414194674Y-94297500D01*
X414523847Y-94077554D01*
X414845754Y-93595785D01*
X414958793Y-93027500D01*
X414845754Y-92459215D01*
X414523847Y-91977446D01*
X414042078Y-91655539D01*
X413473793Y-91542500D01*
X413415607Y-91542500D01*
X412847322Y-91655539D01*
X412365553Y-91977446D01*
X412364729Y-91978679D01*
X412357862Y-91942183D01*
X412218790Y-91726059D01*
X412006590Y-91581069D01*
X411754700Y-91530060D01*
X410054700Y-91530060D01*
X409819383Y-91574338D01*
X409603259Y-91713410D01*
X409458269Y-91925610D01*
X409407260Y-92177500D01*
X409407260Y-93877500D01*
X409451538Y-94112817D01*
X409590610Y-94328941D01*
X409802810Y-94473931D01*
X409870241Y-94487586D01*
X409825553Y-94517446D01*
X409503646Y-94999215D01*
X409390607Y-95567500D01*
X77265600Y-95567500D01*
X77265600Y-91287600D01*
X90073071Y-91287600D01*
X90178498Y-91817617D01*
X90478728Y-92266943D01*
X90928054Y-92567173D01*
X91458071Y-92672600D01*
X92531929Y-92672600D01*
X93061946Y-92567173D01*
X93511272Y-92266943D01*
X93811502Y-91817617D01*
X93916929Y-91287600D01*
X130840071Y-91287600D01*
X130945498Y-91817617D01*
X131245728Y-92266943D01*
X131695054Y-92567173D01*
X132225071Y-92672600D01*
X133298929Y-92672600D01*
X133828946Y-92567173D01*
X134278272Y-92266943D01*
X134578502Y-91817617D01*
X134683929Y-91287600D01*
X171480071Y-91287600D01*
X171585498Y-91817617D01*
X171885728Y-92266943D01*
X172335054Y-92567173D01*
X172865071Y-92672600D01*
X173938929Y-92672600D01*
X174468946Y-92567173D01*
X174918272Y-92266943D01*
X175218502Y-91817617D01*
X175323929Y-91287600D01*
X212120071Y-91287600D01*
X212225498Y-91817617D01*
X212525728Y-92266943D01*
X212975054Y-92567173D01*
X213505071Y-92672600D01*
X214578929Y-92672600D01*
X215108946Y-92567173D01*
X215558272Y-92266943D01*
X215858502Y-91817617D01*
X215963929Y-91287600D01*
X252760071Y-91287600D01*
X252865498Y-91817617D01*
X253165728Y-92266943D01*
X253615054Y-92567173D01*
X254145071Y-92672600D01*
X255218929Y-92672600D01*
X255748946Y-92567173D01*
X256198272Y-92266943D01*
X256498502Y-91817617D01*
X256603929Y-91287600D01*
X293400071Y-91287600D01*
X293505498Y-91817617D01*
X293805728Y-92266943D01*
X294255054Y-92567173D01*
X294785071Y-92672600D01*
X295858929Y-92672600D01*
X296388946Y-92567173D01*
X296838272Y-92266943D01*
X297138502Y-91817617D01*
X297243929Y-91287600D01*
X333913071Y-91287600D01*
X334018498Y-91817617D01*
X334318728Y-92266943D01*
X334768054Y-92567173D01*
X335298071Y-92672600D01*
X336371929Y-92672600D01*
X336901946Y-92567173D01*
X337351272Y-92266943D01*
X337651502Y-91817617D01*
X337756929Y-91287600D01*
X374680071Y-91287600D01*
X374785498Y-91817617D01*
X375085728Y-92266943D01*
X375535054Y-92567173D01*
X376065071Y-92672600D01*
X377138929Y-92672600D01*
X377668946Y-92567173D01*
X378118272Y-92266943D01*
X378418502Y-91817617D01*
X378523929Y-91287600D01*
X428640071Y-91287600D01*
X428745498Y-91817617D01*
X429045728Y-92266943D01*
X429495054Y-92567173D01*
X430025071Y-92672600D01*
X431098929Y-92672600D01*
X431628946Y-92567173D01*
X432078272Y-92266943D01*
X432378502Y-91817617D01*
X432483929Y-91287600D01*
X469280071Y-91287600D01*
X469385498Y-91817617D01*
X469685728Y-92266943D01*
X470135054Y-92567173D01*
X470665071Y-92672600D01*
X471738929Y-92672600D01*
X472268946Y-92567173D01*
X472718272Y-92266943D01*
X473018502Y-91817617D01*
X473123929Y-91287600D01*
X473018502Y-90757583D01*
X472718272Y-90308257D01*
X472268946Y-90008027D01*
X471738929Y-89902600D01*
X470665071Y-89902600D01*
X470135054Y-90008027D01*
X469685728Y-90308257D01*
X469385498Y-90757583D01*
X469280071Y-91287600D01*
X432483929Y-91287600D01*
X432378502Y-90757583D01*
X432078272Y-90308257D01*
X431628946Y-90008027D01*
X431098929Y-89902600D01*
X430025071Y-89902600D01*
X429495054Y-90008027D01*
X429045728Y-90308257D01*
X428745498Y-90757583D01*
X428640071Y-91287600D01*
X378523929Y-91287600D01*
X378418502Y-90757583D01*
X378118272Y-90308257D01*
X377668946Y-90008027D01*
X377138929Y-89902600D01*
X376065071Y-89902600D01*
X375535054Y-90008027D01*
X375085728Y-90308257D01*
X374785498Y-90757583D01*
X374680071Y-91287600D01*
X337756929Y-91287600D01*
X337651502Y-90757583D01*
X337351272Y-90308257D01*
X336901946Y-90008027D01*
X336371929Y-89902600D01*
X335298071Y-89902600D01*
X334768054Y-90008027D01*
X334318728Y-90308257D01*
X334018498Y-90757583D01*
X333913071Y-91287600D01*
X297243929Y-91287600D01*
X297138502Y-90757583D01*
X296838272Y-90308257D01*
X296388946Y-90008027D01*
X295858929Y-89902600D01*
X294785071Y-89902600D01*
X294255054Y-90008027D01*
X293805728Y-90308257D01*
X293505498Y-90757583D01*
X293400071Y-91287600D01*
X256603929Y-91287600D01*
X256498502Y-90757583D01*
X256198272Y-90308257D01*
X255748946Y-90008027D01*
X255218929Y-89902600D01*
X254145071Y-89902600D01*
X253615054Y-90008027D01*
X253165728Y-90308257D01*
X252865498Y-90757583D01*
X252760071Y-91287600D01*
X215963929Y-91287600D01*
X215858502Y-90757583D01*
X215558272Y-90308257D01*
X215108946Y-90008027D01*
X214578929Y-89902600D01*
X213505071Y-89902600D01*
X212975054Y-90008027D01*
X212525728Y-90308257D01*
X212225498Y-90757583D01*
X212120071Y-91287600D01*
X175323929Y-91287600D01*
X175218502Y-90757583D01*
X174918272Y-90308257D01*
X174468946Y-90008027D01*
X173938929Y-89902600D01*
X172865071Y-89902600D01*
X172335054Y-90008027D01*
X171885728Y-90308257D01*
X171585498Y-90757583D01*
X171480071Y-91287600D01*
X134683929Y-91287600D01*
X134578502Y-90757583D01*
X134278272Y-90308257D01*
X133828946Y-90008027D01*
X133298929Y-89902600D01*
X132225071Y-89902600D01*
X131695054Y-90008027D01*
X131245728Y-90308257D01*
X130945498Y-90757583D01*
X130840071Y-91287600D01*
X93916929Y-91287600D01*
X93811502Y-90757583D01*
X93511272Y-90308257D01*
X93061946Y-90008027D01*
X92531929Y-89902600D01*
X91458071Y-89902600D01*
X90928054Y-90008027D01*
X90478728Y-90308257D01*
X90178498Y-90757583D01*
X90073071Y-91287600D01*
X77265600Y-91287600D01*
X77265600Y-86842226D01*
X89559579Y-86842226D01*
X89929504Y-87737514D01*
X90613883Y-88423088D01*
X91508524Y-88794576D01*
X92477226Y-88795421D01*
X93372514Y-88425496D01*
X94058088Y-87741117D01*
X94429576Y-86846476D01*
X94429579Y-86842226D01*
X130326579Y-86842226D01*
X130696504Y-87737514D01*
X131380883Y-88423088D01*
X132275524Y-88794576D01*
X133244226Y-88795421D01*
X134139514Y-88425496D01*
X134825088Y-87741117D01*
X135196576Y-86846476D01*
X135196579Y-86842226D01*
X170966579Y-86842226D01*
X171336504Y-87737514D01*
X172020883Y-88423088D01*
X172915524Y-88794576D01*
X173884226Y-88795421D01*
X174779514Y-88425496D01*
X175465088Y-87741117D01*
X175836576Y-86846476D01*
X175836579Y-86842226D01*
X211606579Y-86842226D01*
X211976504Y-87737514D01*
X212660883Y-88423088D01*
X213555524Y-88794576D01*
X214524226Y-88795421D01*
X215419514Y-88425496D01*
X216105088Y-87741117D01*
X216476576Y-86846476D01*
X216476579Y-86842226D01*
X252246579Y-86842226D01*
X252616504Y-87737514D01*
X253300883Y-88423088D01*
X254195524Y-88794576D01*
X255164226Y-88795421D01*
X256059514Y-88425496D01*
X256745088Y-87741117D01*
X257116576Y-86846476D01*
X257116579Y-86842226D01*
X292886579Y-86842226D01*
X293256504Y-87737514D01*
X293940883Y-88423088D01*
X294835524Y-88794576D01*
X295804226Y-88795421D01*
X296699514Y-88425496D01*
X297385088Y-87741117D01*
X297756576Y-86846476D01*
X297756579Y-86842226D01*
X333399579Y-86842226D01*
X333769504Y-87737514D01*
X334453883Y-88423088D01*
X335348524Y-88794576D01*
X336317226Y-88795421D01*
X337212514Y-88425496D01*
X337898088Y-87741117D01*
X338269576Y-86846476D01*
X338269579Y-86842226D01*
X374166579Y-86842226D01*
X374536504Y-87737514D01*
X375220883Y-88423088D01*
X376115524Y-88794576D01*
X377084226Y-88795421D01*
X377979514Y-88425496D01*
X378665088Y-87741117D01*
X379036576Y-86846476D01*
X379036579Y-86842226D01*
X428126579Y-86842226D01*
X428496504Y-87737514D01*
X429180883Y-88423088D01*
X430075524Y-88794576D01*
X431044226Y-88795421D01*
X431939514Y-88425496D01*
X432625088Y-87741117D01*
X432996576Y-86846476D01*
X432996579Y-86842226D01*
X468766579Y-86842226D01*
X469136504Y-87737514D01*
X469820883Y-88423088D01*
X470715524Y-88794576D01*
X471684226Y-88795421D01*
X472579514Y-88425496D01*
X473265088Y-87741117D01*
X473636576Y-86846476D01*
X473637421Y-85877774D01*
X473267496Y-84982486D01*
X472583117Y-84296912D01*
X471688476Y-83925424D01*
X470719774Y-83924579D01*
X469824486Y-84294504D01*
X469138912Y-84978883D01*
X468767424Y-85873524D01*
X468766579Y-86842226D01*
X432996579Y-86842226D01*
X432997421Y-85877774D01*
X432627496Y-84982486D01*
X431943117Y-84296912D01*
X431048476Y-83925424D01*
X430079774Y-83924579D01*
X429184486Y-84294504D01*
X428498912Y-84978883D01*
X428127424Y-85873524D01*
X428126579Y-86842226D01*
X379036579Y-86842226D01*
X379037421Y-85877774D01*
X378667496Y-84982486D01*
X377983117Y-84296912D01*
X377088476Y-83925424D01*
X376119774Y-83924579D01*
X375224486Y-84294504D01*
X374538912Y-84978883D01*
X374167424Y-85873524D01*
X374166579Y-86842226D01*
X338269579Y-86842226D01*
X338270421Y-85877774D01*
X337900496Y-84982486D01*
X337216117Y-84296912D01*
X336321476Y-83925424D01*
X335352774Y-83924579D01*
X334457486Y-84294504D01*
X333771912Y-84978883D01*
X333400424Y-85873524D01*
X333399579Y-86842226D01*
X297756579Y-86842226D01*
X297757421Y-85877774D01*
X297387496Y-84982486D01*
X296703117Y-84296912D01*
X295808476Y-83925424D01*
X294839774Y-83924579D01*
X293944486Y-84294504D01*
X293258912Y-84978883D01*
X292887424Y-85873524D01*
X292886579Y-86842226D01*
X257116579Y-86842226D01*
X257117421Y-85877774D01*
X256747496Y-84982486D01*
X256063117Y-84296912D01*
X255168476Y-83925424D01*
X254199774Y-83924579D01*
X253304486Y-84294504D01*
X252618912Y-84978883D01*
X252247424Y-85873524D01*
X252246579Y-86842226D01*
X216476579Y-86842226D01*
X216477421Y-85877774D01*
X216107496Y-84982486D01*
X215423117Y-84296912D01*
X214528476Y-83925424D01*
X213559774Y-83924579D01*
X212664486Y-84294504D01*
X211978912Y-84978883D01*
X211607424Y-85873524D01*
X211606579Y-86842226D01*
X175836579Y-86842226D01*
X175837421Y-85877774D01*
X175467496Y-84982486D01*
X174783117Y-84296912D01*
X173888476Y-83925424D01*
X172919774Y-83924579D01*
X172024486Y-84294504D01*
X171338912Y-84978883D01*
X170967424Y-85873524D01*
X170966579Y-86842226D01*
X135196579Y-86842226D01*
X135197421Y-85877774D01*
X134827496Y-84982486D01*
X134143117Y-84296912D01*
X133248476Y-83925424D01*
X132279774Y-83924579D01*
X131384486Y-84294504D01*
X130698912Y-84978883D01*
X130327424Y-85873524D01*
X130326579Y-86842226D01*
X94429579Y-86842226D01*
X94430421Y-85877774D01*
X94060496Y-84982486D01*
X93376117Y-84296912D01*
X92481476Y-83925424D01*
X91512774Y-83924579D01*
X90617486Y-84294504D01*
X89931912Y-84978883D01*
X89560424Y-85873524D01*
X89559579Y-86842226D01*
X77265600Y-86842226D01*
X77265600Y-83080661D01*
X105901258Y-83080661D01*
X106113490Y-83594303D01*
X106506130Y-83987629D01*
X107019400Y-84200757D01*
X107575161Y-84201242D01*
X108088803Y-83989010D01*
X108482129Y-83596370D01*
X108536621Y-83465139D01*
X108589990Y-83594303D01*
X108982630Y-83987629D01*
X109495900Y-84200757D01*
X110051661Y-84201242D01*
X110565303Y-83989010D01*
X110958629Y-83596370D01*
X111044949Y-83388488D01*
X111129990Y-83594303D01*
X111522630Y-83987629D01*
X112035900Y-84200757D01*
X112591661Y-84201242D01*
X113105303Y-83989010D01*
X113498629Y-83596370D01*
X113553121Y-83465139D01*
X113606490Y-83594303D01*
X113999130Y-83987629D01*
X114512400Y-84200757D01*
X115068161Y-84201242D01*
X115581803Y-83989010D01*
X115975129Y-83596370D01*
X116188257Y-83083100D01*
X116188259Y-83080661D01*
X146541258Y-83080661D01*
X146753490Y-83594303D01*
X147146130Y-83987629D01*
X147659400Y-84200757D01*
X148215161Y-84201242D01*
X148728803Y-83989010D01*
X149122129Y-83596370D01*
X149176621Y-83465139D01*
X149229990Y-83594303D01*
X149622630Y-83987629D01*
X150135900Y-84200757D01*
X150691661Y-84201242D01*
X151205303Y-83989010D01*
X151598629Y-83596370D01*
X151684949Y-83388488D01*
X151769990Y-83594303D01*
X152162630Y-83987629D01*
X152675900Y-84200757D01*
X153231661Y-84201242D01*
X153745303Y-83989010D01*
X154138629Y-83596370D01*
X154193121Y-83465139D01*
X154246490Y-83594303D01*
X154639130Y-83987629D01*
X155152400Y-84200757D01*
X155708161Y-84201242D01*
X156221803Y-83989010D01*
X156615129Y-83596370D01*
X156828257Y-83083100D01*
X156828259Y-83080661D01*
X187181258Y-83080661D01*
X187393490Y-83594303D01*
X187786130Y-83987629D01*
X188299400Y-84200757D01*
X188855161Y-84201242D01*
X189368803Y-83989010D01*
X189762129Y-83596370D01*
X189816621Y-83465139D01*
X189869990Y-83594303D01*
X190262630Y-83987629D01*
X190775900Y-84200757D01*
X191331661Y-84201242D01*
X191845303Y-83989010D01*
X192238629Y-83596370D01*
X192324949Y-83388488D01*
X192409990Y-83594303D01*
X192802630Y-83987629D01*
X193315900Y-84200757D01*
X193871661Y-84201242D01*
X194385303Y-83989010D01*
X194778629Y-83596370D01*
X194833121Y-83465139D01*
X194886490Y-83594303D01*
X195279130Y-83987629D01*
X195792400Y-84200757D01*
X196348161Y-84201242D01*
X196861803Y-83989010D01*
X197255129Y-83596370D01*
X197468257Y-83083100D01*
X197468259Y-83080661D01*
X227821258Y-83080661D01*
X228033490Y-83594303D01*
X228426130Y-83987629D01*
X228939400Y-84200757D01*
X229495161Y-84201242D01*
X230008803Y-83989010D01*
X230402129Y-83596370D01*
X230456621Y-83465139D01*
X230509990Y-83594303D01*
X230902630Y-83987629D01*
X231415900Y-84200757D01*
X231971661Y-84201242D01*
X232485303Y-83989010D01*
X232878629Y-83596370D01*
X232964949Y-83388488D01*
X233049990Y-83594303D01*
X233442630Y-83987629D01*
X233955900Y-84200757D01*
X234511661Y-84201242D01*
X235025303Y-83989010D01*
X235418629Y-83596370D01*
X235473121Y-83465139D01*
X235526490Y-83594303D01*
X235919130Y-83987629D01*
X236432400Y-84200757D01*
X236988161Y-84201242D01*
X237501803Y-83989010D01*
X237895129Y-83596370D01*
X238108257Y-83083100D01*
X238108259Y-83080661D01*
X268461258Y-83080661D01*
X268673490Y-83594303D01*
X269066130Y-83987629D01*
X269579400Y-84200757D01*
X270135161Y-84201242D01*
X270648803Y-83989010D01*
X271042129Y-83596370D01*
X271096621Y-83465139D01*
X271149990Y-83594303D01*
X271542630Y-83987629D01*
X272055900Y-84200757D01*
X272611661Y-84201242D01*
X273125303Y-83989010D01*
X273518629Y-83596370D01*
X273604949Y-83388488D01*
X273689990Y-83594303D01*
X274082630Y-83987629D01*
X274595900Y-84200757D01*
X275151661Y-84201242D01*
X275665303Y-83989010D01*
X276058629Y-83596370D01*
X276113121Y-83465139D01*
X276166490Y-83594303D01*
X276559130Y-83987629D01*
X277072400Y-84200757D01*
X277628161Y-84201242D01*
X278141803Y-83989010D01*
X278535129Y-83596370D01*
X278748257Y-83083100D01*
X278748259Y-83080661D01*
X309101258Y-83080661D01*
X309313490Y-83594303D01*
X309706130Y-83987629D01*
X310219400Y-84200757D01*
X310775161Y-84201242D01*
X311288803Y-83989010D01*
X311682129Y-83596370D01*
X311736621Y-83465139D01*
X311789990Y-83594303D01*
X312182630Y-83987629D01*
X312695900Y-84200757D01*
X313251661Y-84201242D01*
X313765303Y-83989010D01*
X314158629Y-83596370D01*
X314244949Y-83388488D01*
X314329990Y-83594303D01*
X314722630Y-83987629D01*
X315235900Y-84200757D01*
X315791661Y-84201242D01*
X316305303Y-83989010D01*
X316698629Y-83596370D01*
X316753121Y-83465139D01*
X316806490Y-83594303D01*
X317199130Y-83987629D01*
X317712400Y-84200757D01*
X318268161Y-84201242D01*
X318781803Y-83989010D01*
X319175129Y-83596370D01*
X319388257Y-83083100D01*
X319388259Y-83080661D01*
X349741258Y-83080661D01*
X349953490Y-83594303D01*
X350346130Y-83987629D01*
X350859400Y-84200757D01*
X351415161Y-84201242D01*
X351928803Y-83989010D01*
X352322129Y-83596370D01*
X352376621Y-83465139D01*
X352429990Y-83594303D01*
X352822630Y-83987629D01*
X353335900Y-84200757D01*
X353891661Y-84201242D01*
X354405303Y-83989010D01*
X354798629Y-83596370D01*
X354884949Y-83388488D01*
X354969990Y-83594303D01*
X355362630Y-83987629D01*
X355875900Y-84200757D01*
X356431661Y-84201242D01*
X356945303Y-83989010D01*
X357338629Y-83596370D01*
X357393121Y-83465139D01*
X357446490Y-83594303D01*
X357839130Y-83987629D01*
X358352400Y-84200757D01*
X358908161Y-84201242D01*
X359421803Y-83989010D01*
X359815129Y-83596370D01*
X360028257Y-83083100D01*
X360028259Y-83080661D01*
X390381258Y-83080661D01*
X390593490Y-83594303D01*
X390986130Y-83987629D01*
X391499400Y-84200757D01*
X392055161Y-84201242D01*
X392568803Y-83989010D01*
X392962129Y-83596370D01*
X393016621Y-83465139D01*
X393069990Y-83594303D01*
X393462630Y-83987629D01*
X393975900Y-84200757D01*
X394531661Y-84201242D01*
X395045303Y-83989010D01*
X395438629Y-83596370D01*
X395524949Y-83388488D01*
X395609990Y-83594303D01*
X396002630Y-83987629D01*
X396515900Y-84200757D01*
X397071661Y-84201242D01*
X397585303Y-83989010D01*
X397978629Y-83596370D01*
X398033121Y-83465139D01*
X398086490Y-83594303D01*
X398479130Y-83987629D01*
X398992400Y-84200757D01*
X399548161Y-84201242D01*
X400061803Y-83989010D01*
X400455129Y-83596370D01*
X400668257Y-83083100D01*
X400668259Y-83080661D01*
X441341258Y-83080661D01*
X441553490Y-83594303D01*
X441946130Y-83987629D01*
X442459400Y-84200757D01*
X443015161Y-84201242D01*
X443528803Y-83989010D01*
X443922129Y-83596370D01*
X443976621Y-83465139D01*
X444029990Y-83594303D01*
X444422630Y-83987629D01*
X444935900Y-84200757D01*
X445491661Y-84201242D01*
X446005303Y-83989010D01*
X446398629Y-83596370D01*
X446484949Y-83388488D01*
X446569990Y-83594303D01*
X446962630Y-83987629D01*
X447475900Y-84200757D01*
X448031661Y-84201242D01*
X448545303Y-83989010D01*
X448938629Y-83596370D01*
X448993121Y-83465139D01*
X449046490Y-83594303D01*
X449439130Y-83987629D01*
X449952400Y-84200757D01*
X450508161Y-84201242D01*
X451021803Y-83989010D01*
X451415129Y-83596370D01*
X451628257Y-83083100D01*
X451628259Y-83080661D01*
X481981258Y-83080661D01*
X482193490Y-83594303D01*
X482586130Y-83987629D01*
X483099400Y-84200757D01*
X483655161Y-84201242D01*
X484168803Y-83989010D01*
X484562129Y-83596370D01*
X484616621Y-83465139D01*
X484669990Y-83594303D01*
X485062630Y-83987629D01*
X485575900Y-84200757D01*
X486131661Y-84201242D01*
X486645303Y-83989010D01*
X487038629Y-83596370D01*
X487124949Y-83388488D01*
X487209990Y-83594303D01*
X487602630Y-83987629D01*
X488115900Y-84200757D01*
X488671661Y-84201242D01*
X489185303Y-83989010D01*
X489578629Y-83596370D01*
X489633121Y-83465139D01*
X489686490Y-83594303D01*
X490079130Y-83987629D01*
X490592400Y-84200757D01*
X491148161Y-84201242D01*
X491661803Y-83989010D01*
X492055129Y-83596370D01*
X492268257Y-83083100D01*
X492268742Y-82527339D01*
X492056510Y-82013697D01*
X491663870Y-81620371D01*
X491150600Y-81407243D01*
X490594839Y-81406758D01*
X490081197Y-81618990D01*
X489687871Y-82011630D01*
X489633379Y-82142861D01*
X489580010Y-82013697D01*
X489187370Y-81620371D01*
X488674100Y-81407243D01*
X488118339Y-81406758D01*
X487604697Y-81618990D01*
X487211371Y-82011630D01*
X487125051Y-82219512D01*
X487040010Y-82013697D01*
X486647370Y-81620371D01*
X486134100Y-81407243D01*
X485578339Y-81406758D01*
X485064697Y-81618990D01*
X484671371Y-82011630D01*
X484616879Y-82142861D01*
X484563510Y-82013697D01*
X484170870Y-81620371D01*
X483657600Y-81407243D01*
X483101839Y-81406758D01*
X482588197Y-81618990D01*
X482194871Y-82011630D01*
X481981743Y-82524900D01*
X481981258Y-83080661D01*
X451628259Y-83080661D01*
X451628742Y-82527339D01*
X451416510Y-82013697D01*
X451023870Y-81620371D01*
X450510600Y-81407243D01*
X449954839Y-81406758D01*
X449441197Y-81618990D01*
X449047871Y-82011630D01*
X448993379Y-82142861D01*
X448940010Y-82013697D01*
X448547370Y-81620371D01*
X448034100Y-81407243D01*
X447478339Y-81406758D01*
X446964697Y-81618990D01*
X446571371Y-82011630D01*
X446485051Y-82219512D01*
X446400010Y-82013697D01*
X446007370Y-81620371D01*
X445494100Y-81407243D01*
X444938339Y-81406758D01*
X444424697Y-81618990D01*
X444031371Y-82011630D01*
X443976879Y-82142861D01*
X443923510Y-82013697D01*
X443530870Y-81620371D01*
X443017600Y-81407243D01*
X442461839Y-81406758D01*
X441948197Y-81618990D01*
X441554871Y-82011630D01*
X441341743Y-82524900D01*
X441341258Y-83080661D01*
X400668259Y-83080661D01*
X400668742Y-82527339D01*
X400456510Y-82013697D01*
X400063870Y-81620371D01*
X399550600Y-81407243D01*
X398994839Y-81406758D01*
X398481197Y-81618990D01*
X398087871Y-82011630D01*
X398033379Y-82142861D01*
X397980010Y-82013697D01*
X397587370Y-81620371D01*
X397074100Y-81407243D01*
X396518339Y-81406758D01*
X396004697Y-81618990D01*
X395611371Y-82011630D01*
X395525051Y-82219512D01*
X395440010Y-82013697D01*
X395047370Y-81620371D01*
X394534100Y-81407243D01*
X393978339Y-81406758D01*
X393464697Y-81618990D01*
X393071371Y-82011630D01*
X393016879Y-82142861D01*
X392963510Y-82013697D01*
X392570870Y-81620371D01*
X392057600Y-81407243D01*
X391501839Y-81406758D01*
X390988197Y-81618990D01*
X390594871Y-82011630D01*
X390381743Y-82524900D01*
X390381258Y-83080661D01*
X360028259Y-83080661D01*
X360028742Y-82527339D01*
X359816510Y-82013697D01*
X359423870Y-81620371D01*
X358910600Y-81407243D01*
X358354839Y-81406758D01*
X357841197Y-81618990D01*
X357447871Y-82011630D01*
X357393379Y-82142861D01*
X357340010Y-82013697D01*
X356947370Y-81620371D01*
X356434100Y-81407243D01*
X355878339Y-81406758D01*
X355364697Y-81618990D01*
X354971371Y-82011630D01*
X354885051Y-82219512D01*
X354800010Y-82013697D01*
X354407370Y-81620371D01*
X353894100Y-81407243D01*
X353338339Y-81406758D01*
X352824697Y-81618990D01*
X352431371Y-82011630D01*
X352376879Y-82142861D01*
X352323510Y-82013697D01*
X351930870Y-81620371D01*
X351417600Y-81407243D01*
X350861839Y-81406758D01*
X350348197Y-81618990D01*
X349954871Y-82011630D01*
X349741743Y-82524900D01*
X349741258Y-83080661D01*
X319388259Y-83080661D01*
X319388742Y-82527339D01*
X319176510Y-82013697D01*
X318783870Y-81620371D01*
X318270600Y-81407243D01*
X317714839Y-81406758D01*
X317201197Y-81618990D01*
X316807871Y-82011630D01*
X316753379Y-82142861D01*
X316700010Y-82013697D01*
X316307370Y-81620371D01*
X315794100Y-81407243D01*
X315238339Y-81406758D01*
X314724697Y-81618990D01*
X314331371Y-82011630D01*
X314245051Y-82219512D01*
X314160010Y-82013697D01*
X313767370Y-81620371D01*
X313254100Y-81407243D01*
X312698339Y-81406758D01*
X312184697Y-81618990D01*
X311791371Y-82011630D01*
X311736879Y-82142861D01*
X311683510Y-82013697D01*
X311290870Y-81620371D01*
X310777600Y-81407243D01*
X310221839Y-81406758D01*
X309708197Y-81618990D01*
X309314871Y-82011630D01*
X309101743Y-82524900D01*
X309101258Y-83080661D01*
X278748259Y-83080661D01*
X278748742Y-82527339D01*
X278536510Y-82013697D01*
X278143870Y-81620371D01*
X277630600Y-81407243D01*
X277074839Y-81406758D01*
X276561197Y-81618990D01*
X276167871Y-82011630D01*
X276113379Y-82142861D01*
X276060010Y-82013697D01*
X275667370Y-81620371D01*
X275154100Y-81407243D01*
X274598339Y-81406758D01*
X274084697Y-81618990D01*
X273691371Y-82011630D01*
X273605051Y-82219512D01*
X273520010Y-82013697D01*
X273127370Y-81620371D01*
X272614100Y-81407243D01*
X272058339Y-81406758D01*
X271544697Y-81618990D01*
X271151371Y-82011630D01*
X271096879Y-82142861D01*
X271043510Y-82013697D01*
X270650870Y-81620371D01*
X270137600Y-81407243D01*
X269581839Y-81406758D01*
X269068197Y-81618990D01*
X268674871Y-82011630D01*
X268461743Y-82524900D01*
X268461258Y-83080661D01*
X238108259Y-83080661D01*
X238108742Y-82527339D01*
X237896510Y-82013697D01*
X237503870Y-81620371D01*
X236990600Y-81407243D01*
X236434839Y-81406758D01*
X235921197Y-81618990D01*
X235527871Y-82011630D01*
X235473379Y-82142861D01*
X235420010Y-82013697D01*
X235027370Y-81620371D01*
X234514100Y-81407243D01*
X233958339Y-81406758D01*
X233444697Y-81618990D01*
X233051371Y-82011630D01*
X232965051Y-82219512D01*
X232880010Y-82013697D01*
X232487370Y-81620371D01*
X231974100Y-81407243D01*
X231418339Y-81406758D01*
X230904697Y-81618990D01*
X230511371Y-82011630D01*
X230456879Y-82142861D01*
X230403510Y-82013697D01*
X230010870Y-81620371D01*
X229497600Y-81407243D01*
X228941839Y-81406758D01*
X228428197Y-81618990D01*
X228034871Y-82011630D01*
X227821743Y-82524900D01*
X227821258Y-83080661D01*
X197468259Y-83080661D01*
X197468742Y-82527339D01*
X197256510Y-82013697D01*
X196863870Y-81620371D01*
X196350600Y-81407243D01*
X195794839Y-81406758D01*
X195281197Y-81618990D01*
X194887871Y-82011630D01*
X194833379Y-82142861D01*
X194780010Y-82013697D01*
X194387370Y-81620371D01*
X193874100Y-81407243D01*
X193318339Y-81406758D01*
X192804697Y-81618990D01*
X192411371Y-82011630D01*
X192325051Y-82219512D01*
X192240010Y-82013697D01*
X191847370Y-81620371D01*
X191334100Y-81407243D01*
X190778339Y-81406758D01*
X190264697Y-81618990D01*
X189871371Y-82011630D01*
X189816879Y-82142861D01*
X189763510Y-82013697D01*
X189370870Y-81620371D01*
X188857600Y-81407243D01*
X188301839Y-81406758D01*
X187788197Y-81618990D01*
X187394871Y-82011630D01*
X187181743Y-82524900D01*
X187181258Y-83080661D01*
X156828259Y-83080661D01*
X156828742Y-82527339D01*
X156616510Y-82013697D01*
X156223870Y-81620371D01*
X155710600Y-81407243D01*
X155154839Y-81406758D01*
X154641197Y-81618990D01*
X154247871Y-82011630D01*
X154193379Y-82142861D01*
X154140010Y-82013697D01*
X153747370Y-81620371D01*
X153234100Y-81407243D01*
X152678339Y-81406758D01*
X152164697Y-81618990D01*
X151771371Y-82011630D01*
X151685051Y-82219512D01*
X151600010Y-82013697D01*
X151207370Y-81620371D01*
X150694100Y-81407243D01*
X150138339Y-81406758D01*
X149624697Y-81618990D01*
X149231371Y-82011630D01*
X149176879Y-82142861D01*
X149123510Y-82013697D01*
X148730870Y-81620371D01*
X148217600Y-81407243D01*
X147661839Y-81406758D01*
X147148197Y-81618990D01*
X146754871Y-82011630D01*
X146541743Y-82524900D01*
X146541258Y-83080661D01*
X116188259Y-83080661D01*
X116188742Y-82527339D01*
X115976510Y-82013697D01*
X115583870Y-81620371D01*
X115070600Y-81407243D01*
X114514839Y-81406758D01*
X114001197Y-81618990D01*
X113607871Y-82011630D01*
X113553379Y-82142861D01*
X113500010Y-82013697D01*
X113107370Y-81620371D01*
X112594100Y-81407243D01*
X112038339Y-81406758D01*
X111524697Y-81618990D01*
X111131371Y-82011630D01*
X111045051Y-82219512D01*
X110960010Y-82013697D01*
X110567370Y-81620371D01*
X110054100Y-81407243D01*
X109498339Y-81406758D01*
X108984697Y-81618990D01*
X108591371Y-82011630D01*
X108536879Y-82142861D01*
X108483510Y-82013697D01*
X108090870Y-81620371D01*
X107577600Y-81407243D01*
X107021839Y-81406758D01*
X106508197Y-81618990D01*
X106114871Y-82011630D01*
X105901743Y-82524900D01*
X105901258Y-83080661D01*
X77265600Y-83080661D01*
X77265600Y-79627119D01*
X81800513Y-79627119D01*
X82140055Y-80448872D01*
X82768221Y-81078136D01*
X83589381Y-81419111D01*
X84478519Y-81419887D01*
X85300272Y-81080345D01*
X85929536Y-80452179D01*
X86266856Y-79639819D01*
X493420213Y-79639819D01*
X493759755Y-80461572D01*
X494387921Y-81090836D01*
X495209081Y-81431811D01*
X496098219Y-81432587D01*
X496919972Y-81093045D01*
X497549236Y-80464879D01*
X497890211Y-79643719D01*
X497890987Y-78754581D01*
X497551445Y-77932828D01*
X496923279Y-77303564D01*
X496102119Y-76962589D01*
X495212981Y-76961813D01*
X494391228Y-77301355D01*
X493761964Y-77929521D01*
X493420989Y-78750681D01*
X493420213Y-79639819D01*
X86266856Y-79639819D01*
X86270511Y-79631019D01*
X86271287Y-78741881D01*
X85931745Y-77920128D01*
X85303579Y-77290864D01*
X84482419Y-76949889D01*
X83593281Y-76949113D01*
X82771528Y-77288655D01*
X82142264Y-77916821D01*
X81801289Y-78737981D01*
X81800513Y-79627119D01*
X77265600Y-79627119D01*
X77265600Y-76910000D01*
X501841700Y-76910000D01*
X501841700Y-118670000D01*
M02*
