M48
;DRILL file {KiCad 4.0.7} date Thursday, 24 May 2018 'AMt' 09:36:07
;FORMAT={-:-/ absolute / metric / decimal}
FMAT,2
METRIC,TZ
T1C0.400
T2C0.500
T3C0.600
T4C1.000
T5C1.090
T6C1.200
%
G90
G05
M71
T1
X97.87Y-82.63
X138.51Y-82.63
X179.07Y-82.55
X219.71Y-82.55
X260.43Y-82.63
X301.07Y-82.63
X341.71Y-82.63
X382.27Y-82.55
X410.845Y-84.63
X410.972Y-111.76
X427.99Y-109.22
X431.673Y-94.615
X434.213Y-106.807
X435.515Y-103.556
X437.096Y-114.224
X438.658Y-87.63
X469.25Y-113.16
X472.345Y-94.81
X474.885Y-107.013
X476.155Y-100.692
X476.155Y-116.01
X478.87Y-86.991
T4
X410.905Y-93.027
X410.905Y-95.567
X410.905Y-98.108
X410.905Y-100.647
X410.905Y-103.188
X413.445Y-93.027
X413.445Y-95.567
X413.445Y-98.108
X413.445Y-100.647
X413.445Y-103.188
T5
X89.074Y-111.76
X91.614Y-111.76
X94.154Y-111.76
X129.714Y-111.76
X132.254Y-111.76
X134.794Y-111.76
X170.354Y-111.76
X172.894Y-111.76
X175.434Y-111.76
X210.994Y-111.76
X213.534Y-111.76
X216.074Y-111.76
X251.634Y-111.76
X254.174Y-111.76
X256.714Y-111.76
X292.274Y-111.76
X294.814Y-111.76
X297.354Y-111.76
X332.914Y-111.76
X335.454Y-111.76
X337.994Y-111.76
X373.554Y-111.76
X376.094Y-111.76
X378.634Y-111.76
T6
X107.298Y-82.804
X107.298Y-112.776
X112.315Y-82.804
X112.315Y-112.776
X114.791Y-82.804
X147.939Y-82.804
X147.939Y-112.776
X152.955Y-82.804
X152.955Y-112.776
X155.431Y-82.804
X188.578Y-82.804
X188.578Y-112.776
X193.595Y-82.804
X193.595Y-112.776
X196.071Y-82.804
X229.218Y-82.804
X229.218Y-112.776
X234.235Y-82.804
X234.235Y-112.776
X236.712Y-82.804
X269.858Y-82.804
X269.858Y-112.776
X274.875Y-82.804
X274.875Y-112.776
X277.351Y-82.804
X310.498Y-82.804
X310.498Y-112.776
X315.515Y-82.804
X315.515Y-112.776
X317.991Y-82.804
X351.138Y-82.804
X351.138Y-112.776
X356.155Y-82.804
X356.155Y-112.776
X358.631Y-82.804
X391.779Y-82.804
X391.779Y-112.776
X396.795Y-82.804
X396.795Y-112.776
X399.272Y-82.804
X442.738Y-82.804
X442.738Y-112.776
X447.755Y-82.804
X447.755Y-112.776
X450.231Y-82.804
X483.378Y-82.804
X483.378Y-112.776
X488.395Y-82.804
X488.395Y-112.776
X490.871Y-82.804
T2
X92.495Y-91.288G85X91.495Y-91.288
G05
X133.262Y-91.288G85X132.262Y-91.288
G05
X173.902Y-91.288G85X172.902Y-91.288
G05
X214.542Y-91.288G85X213.542Y-91.288
G05
X255.182Y-91.288G85X254.182Y-91.288
G05
X295.822Y-91.288G85X294.822Y-91.288
G05
X336.335Y-91.288G85X335.335Y-91.288
G05
X377.102Y-91.288G85X376.102Y-91.288
G05
X431.062Y-91.288G85X430.062Y-91.288
G05
X471.702Y-91.288G85X470.702Y-91.288
G05
T3
X92.345Y-79.883G85X91.645Y-79.883
G05
X92.445Y-82.982G85X91.545Y-82.982
G05
X133.112Y-79.883G85X132.412Y-79.883
G05
X133.212Y-82.982G85X132.312Y-82.982
G05
X173.752Y-79.883G85X173.052Y-79.883
G05
X173.852Y-82.982G85X172.952Y-82.982
G05
X214.392Y-79.883G85X213.692Y-79.883
G05
X214.492Y-82.982G85X213.592Y-82.982
G05
X255.032Y-79.883G85X254.332Y-79.883
G05
X255.132Y-82.982G85X254.232Y-82.982
G05
X295.672Y-79.883G85X294.972Y-79.883
G05
X295.772Y-82.982G85X294.872Y-82.982
G05
X336.185Y-79.883G85X335.485Y-79.883
G05
X336.285Y-82.982G85X335.385Y-82.982
G05
X376.952Y-79.883G85X376.252Y-79.883
G05
X377.052Y-82.982G85X376.152Y-82.982
G05
X430.912Y-79.883G85X430.212Y-79.883
G05
X431.012Y-82.982G85X430.112Y-82.982
G05
X471.552Y-79.883G85X470.852Y-79.883
G05
X471.652Y-82.982G85X470.752Y-82.982
G05
T0
M30
