M48
;DRILL file {KiCad (5.0.0)} date 10/02/18 01:24:35
;FORMAT={-:-/ absolute / metric / decimal}
FMAT,2
METRIC,TZ
T1C3.700
T2C4.500
%
G90
G05
M71
T1
X495.656Y-79.197
X495.656Y-116.383
X84.023Y-79.197
X84.023Y-116.332
T2
X173.402Y-86.36
X132.254Y-111.76
X254.682Y-86.36
X213.512Y-111.76
X335.839Y-86.36
X294.814Y-111.76
X430.53Y-86.411
X132.791Y-86.36
X376.094Y-111.76
X91.614Y-111.76
X214.042Y-86.36
X172.923Y-111.76
X295.3Y-86.36
X254.152Y-111.76
X376.602Y-86.36
X92.05Y-86.258
X335.483Y-111.76
X471.17Y-86.411
T0
M30
