G04 #@! TF.GenerationSoftware,KiCad,Pcbnew,(5.0.0-3-g5ebb6b6)*
G04 #@! TF.CreationDate,2018-10-10T18:16:06+01:00*
G04 #@! TF.ProjectId,FrontPanel_1URack_8Input_AB_2Output_Mixer,46726F6E7450616E656C5F3155526163,rev?*
G04 #@! TF.SameCoordinates,Original*
G04 #@! TF.FileFunction,Legend,Top*
G04 #@! TF.FilePolarity,Positive*
%FSLAX46Y46*%
G04 Gerber Fmt 4.6, Leading zero omitted, Abs format (unit mm)*
G04 Created by KiCad (PCBNEW (5.0.0-3-g5ebb6b6)) date Wednesday, 10 October 2018 at 18:16:06*
%MOMM*%
%LPD*%
G01*
G04 APERTURE LIST*
%ADD10C,0.300000*%
%ADD11C,0.400000*%
%ADD12C,0.250000*%
%ADD13C,0.150000*%
G04 APERTURE END LIST*
D10*
X374745428Y-105223571D02*
X375031142Y-105223571D01*
X375174000Y-105295000D01*
X375316857Y-105437857D01*
X375388285Y-105723571D01*
X375388285Y-106223571D01*
X375316857Y-106509285D01*
X375174000Y-106652142D01*
X375031142Y-106723571D01*
X374745428Y-106723571D01*
X374602571Y-106652142D01*
X374459714Y-106509285D01*
X374388285Y-106223571D01*
X374388285Y-105723571D01*
X374459714Y-105437857D01*
X374602571Y-105295000D01*
X374745428Y-105223571D01*
X376531142Y-105937857D02*
X376031142Y-105937857D01*
X376031142Y-106723571D02*
X376031142Y-105223571D01*
X376745428Y-105223571D01*
X377816857Y-105937857D02*
X377316857Y-105937857D01*
X377316857Y-106723571D02*
X377316857Y-105223571D01*
X378031142Y-105223571D01*
X334105428Y-105223571D02*
X334391142Y-105223571D01*
X334534000Y-105295000D01*
X334676857Y-105437857D01*
X334748285Y-105723571D01*
X334748285Y-106223571D01*
X334676857Y-106509285D01*
X334534000Y-106652142D01*
X334391142Y-106723571D01*
X334105428Y-106723571D01*
X333962571Y-106652142D01*
X333819714Y-106509285D01*
X333748285Y-106223571D01*
X333748285Y-105723571D01*
X333819714Y-105437857D01*
X333962571Y-105295000D01*
X334105428Y-105223571D01*
X335891142Y-105937857D02*
X335391142Y-105937857D01*
X335391142Y-106723571D02*
X335391142Y-105223571D01*
X336105428Y-105223571D01*
X337176857Y-105937857D02*
X336676857Y-105937857D01*
X336676857Y-106723571D02*
X336676857Y-105223571D01*
X337391142Y-105223571D01*
X293465428Y-105223571D02*
X293751142Y-105223571D01*
X293894000Y-105295000D01*
X294036857Y-105437857D01*
X294108285Y-105723571D01*
X294108285Y-106223571D01*
X294036857Y-106509285D01*
X293894000Y-106652142D01*
X293751142Y-106723571D01*
X293465428Y-106723571D01*
X293322571Y-106652142D01*
X293179714Y-106509285D01*
X293108285Y-106223571D01*
X293108285Y-105723571D01*
X293179714Y-105437857D01*
X293322571Y-105295000D01*
X293465428Y-105223571D01*
X295251142Y-105937857D02*
X294751142Y-105937857D01*
X294751142Y-106723571D02*
X294751142Y-105223571D01*
X295465428Y-105223571D01*
X296536857Y-105937857D02*
X296036857Y-105937857D01*
X296036857Y-106723571D02*
X296036857Y-105223571D01*
X296751142Y-105223571D01*
X252825428Y-105223571D02*
X253111142Y-105223571D01*
X253254000Y-105295000D01*
X253396857Y-105437857D01*
X253468285Y-105723571D01*
X253468285Y-106223571D01*
X253396857Y-106509285D01*
X253254000Y-106652142D01*
X253111142Y-106723571D01*
X252825428Y-106723571D01*
X252682571Y-106652142D01*
X252539714Y-106509285D01*
X252468285Y-106223571D01*
X252468285Y-105723571D01*
X252539714Y-105437857D01*
X252682571Y-105295000D01*
X252825428Y-105223571D01*
X254611142Y-105937857D02*
X254111142Y-105937857D01*
X254111142Y-106723571D02*
X254111142Y-105223571D01*
X254825428Y-105223571D01*
X255896857Y-105937857D02*
X255396857Y-105937857D01*
X255396857Y-106723571D02*
X255396857Y-105223571D01*
X256111142Y-105223571D01*
X212185428Y-105223571D02*
X212471142Y-105223571D01*
X212614000Y-105295000D01*
X212756857Y-105437857D01*
X212828285Y-105723571D01*
X212828285Y-106223571D01*
X212756857Y-106509285D01*
X212614000Y-106652142D01*
X212471142Y-106723571D01*
X212185428Y-106723571D01*
X212042571Y-106652142D01*
X211899714Y-106509285D01*
X211828285Y-106223571D01*
X211828285Y-105723571D01*
X211899714Y-105437857D01*
X212042571Y-105295000D01*
X212185428Y-105223571D01*
X213971142Y-105937857D02*
X213471142Y-105937857D01*
X213471142Y-106723571D02*
X213471142Y-105223571D01*
X214185428Y-105223571D01*
X215256857Y-105937857D02*
X214756857Y-105937857D01*
X214756857Y-106723571D02*
X214756857Y-105223571D01*
X215471142Y-105223571D01*
X171545428Y-105223571D02*
X171831142Y-105223571D01*
X171974000Y-105295000D01*
X172116857Y-105437857D01*
X172188285Y-105723571D01*
X172188285Y-106223571D01*
X172116857Y-106509285D01*
X171974000Y-106652142D01*
X171831142Y-106723571D01*
X171545428Y-106723571D01*
X171402571Y-106652142D01*
X171259714Y-106509285D01*
X171188285Y-106223571D01*
X171188285Y-105723571D01*
X171259714Y-105437857D01*
X171402571Y-105295000D01*
X171545428Y-105223571D01*
X173331142Y-105937857D02*
X172831142Y-105937857D01*
X172831142Y-106723571D02*
X172831142Y-105223571D01*
X173545428Y-105223571D01*
X174616857Y-105937857D02*
X174116857Y-105937857D01*
X174116857Y-106723571D02*
X174116857Y-105223571D01*
X174831142Y-105223571D01*
X130905428Y-105223571D02*
X131191142Y-105223571D01*
X131334000Y-105295000D01*
X131476857Y-105437857D01*
X131548285Y-105723571D01*
X131548285Y-106223571D01*
X131476857Y-106509285D01*
X131334000Y-106652142D01*
X131191142Y-106723571D01*
X130905428Y-106723571D01*
X130762571Y-106652142D01*
X130619714Y-106509285D01*
X130548285Y-106223571D01*
X130548285Y-105723571D01*
X130619714Y-105437857D01*
X130762571Y-105295000D01*
X130905428Y-105223571D01*
X132691142Y-105937857D02*
X132191142Y-105937857D01*
X132191142Y-106723571D02*
X132191142Y-105223571D01*
X132905428Y-105223571D01*
X133976857Y-105937857D02*
X133476857Y-105937857D01*
X133476857Y-106723571D02*
X133476857Y-105223571D01*
X134191142Y-105223571D01*
X90265428Y-105223571D02*
X90551142Y-105223571D01*
X90694000Y-105295000D01*
X90836857Y-105437857D01*
X90908285Y-105723571D01*
X90908285Y-106223571D01*
X90836857Y-106509285D01*
X90694000Y-106652142D01*
X90551142Y-106723571D01*
X90265428Y-106723571D01*
X90122571Y-106652142D01*
X89979714Y-106509285D01*
X89908285Y-106223571D01*
X89908285Y-105723571D01*
X89979714Y-105437857D01*
X90122571Y-105295000D01*
X90265428Y-105223571D01*
X92051142Y-105937857D02*
X91551142Y-105937857D01*
X91551142Y-106723571D02*
X91551142Y-105223571D01*
X92265428Y-105223571D01*
X93336857Y-105937857D02*
X92836857Y-105937857D01*
X92836857Y-106723571D02*
X92836857Y-105223571D01*
X93551142Y-105223571D01*
D11*
X422910000Y-116840000D02*
X422910000Y-78740000D01*
D10*
X116554285Y-107878571D02*
X116268571Y-107735714D01*
X115982857Y-107878571D01*
X115840000Y-108164285D01*
X115982857Y-108450000D01*
X116268571Y-108592857D01*
X116554285Y-108450000D01*
X117125714Y-107878571D01*
X117411428Y-107735714D01*
X117697142Y-107878571D01*
X117840000Y-108164285D01*
X117697142Y-108450000D01*
X117411428Y-108592857D01*
X117125714Y-108450000D01*
X116554285Y-107878571D01*
D12*
X116729047Y-87082380D02*
X116824285Y-87082380D01*
X116919523Y-87130000D01*
X116967142Y-87177619D01*
X117014761Y-87272857D01*
X117062380Y-87463333D01*
X117062380Y-87701428D01*
X117014761Y-87891904D01*
X116967142Y-87987142D01*
X116919523Y-88034761D01*
X116824285Y-88082380D01*
X116729047Y-88082380D01*
X116633809Y-88034761D01*
X116586190Y-87987142D01*
X116538571Y-87891904D01*
X116490952Y-87701428D01*
X116490952Y-87463333D01*
X116538571Y-87272857D01*
X116586190Y-87177619D01*
X116633809Y-87130000D01*
X116729047Y-87082380D01*
X117919523Y-88082380D02*
X117919523Y-87082380D01*
X117919523Y-88034761D02*
X117824285Y-88082380D01*
X117633809Y-88082380D01*
X117538571Y-88034761D01*
X117490952Y-87987142D01*
X117443333Y-87891904D01*
X117443333Y-87606190D01*
X117490952Y-87510952D01*
X117538571Y-87463333D01*
X117633809Y-87415714D01*
X117824285Y-87415714D01*
X117919523Y-87463333D01*
X118729047Y-87558571D02*
X118871904Y-87606190D01*
X118919523Y-87653809D01*
X118967142Y-87749047D01*
X118967142Y-87891904D01*
X118919523Y-87987142D01*
X118871904Y-88034761D01*
X118776666Y-88082380D01*
X118395714Y-88082380D01*
X118395714Y-87082380D01*
X118729047Y-87082380D01*
X118824285Y-87130000D01*
X118871904Y-87177619D01*
X118919523Y-87272857D01*
X118919523Y-87368095D01*
X118871904Y-87463333D01*
X118824285Y-87510952D01*
X118729047Y-87558571D01*
X118395714Y-87558571D01*
X119300476Y-87415714D02*
X119538571Y-88082380D01*
X119776666Y-87415714D01*
X115443333Y-102941428D02*
X116205238Y-102941428D01*
X116633809Y-102417619D02*
X116681428Y-102370000D01*
X116776666Y-102322380D01*
X117014761Y-102322380D01*
X117110000Y-102370000D01*
X117157619Y-102417619D01*
X117205238Y-102512857D01*
X117205238Y-102608095D01*
X117157619Y-102750952D01*
X116586190Y-103322380D01*
X117205238Y-103322380D01*
X117824285Y-102322380D02*
X117919523Y-102322380D01*
X118014761Y-102370000D01*
X118062380Y-102417619D01*
X118110000Y-102512857D01*
X118157619Y-102703333D01*
X118157619Y-102941428D01*
X118110000Y-103131904D01*
X118062380Y-103227142D01*
X118014761Y-103274761D01*
X117919523Y-103322380D01*
X117824285Y-103322380D01*
X117729047Y-103274761D01*
X117681428Y-103227142D01*
X117633809Y-103131904D01*
X117586190Y-102941428D01*
X117586190Y-102703333D01*
X117633809Y-102512857D01*
X117681428Y-102417619D01*
X117729047Y-102370000D01*
X117824285Y-102322380D01*
X119014761Y-103322380D02*
X119014761Y-102322380D01*
X119014761Y-103274761D02*
X118919523Y-103322380D01*
X118729047Y-103322380D01*
X118633809Y-103274761D01*
X118586190Y-103227142D01*
X118538571Y-103131904D01*
X118538571Y-102846190D01*
X118586190Y-102750952D01*
X118633809Y-102703333D01*
X118729047Y-102655714D01*
X118919523Y-102655714D01*
X119014761Y-102703333D01*
X119824285Y-102798571D02*
X119967142Y-102846190D01*
X120014761Y-102893809D01*
X120062380Y-102989047D01*
X120062380Y-103131904D01*
X120014761Y-103227142D01*
X119967142Y-103274761D01*
X119871904Y-103322380D01*
X119490952Y-103322380D01*
X119490952Y-102322380D01*
X119824285Y-102322380D01*
X119919523Y-102370000D01*
X119967142Y-102417619D01*
X120014761Y-102512857D01*
X120014761Y-102608095D01*
X119967142Y-102703333D01*
X119919523Y-102750952D01*
X119824285Y-102798571D01*
X119490952Y-102798571D01*
X120395714Y-102655714D02*
X120633809Y-103322380D01*
X120871904Y-102655714D01*
X115443333Y-97861428D02*
X116205238Y-97861428D01*
X117205238Y-98242380D02*
X116633809Y-98242380D01*
X116919523Y-98242380D02*
X116919523Y-97242380D01*
X116824285Y-97385238D01*
X116729047Y-97480476D01*
X116633809Y-97528095D01*
X117586190Y-97337619D02*
X117633809Y-97290000D01*
X117729047Y-97242380D01*
X117967142Y-97242380D01*
X118062380Y-97290000D01*
X118110000Y-97337619D01*
X118157619Y-97432857D01*
X118157619Y-97528095D01*
X118110000Y-97670952D01*
X117538571Y-98242380D01*
X118157619Y-98242380D01*
X119014761Y-98242380D02*
X119014761Y-97242380D01*
X119014761Y-98194761D02*
X118919523Y-98242380D01*
X118729047Y-98242380D01*
X118633809Y-98194761D01*
X118586190Y-98147142D01*
X118538571Y-98051904D01*
X118538571Y-97766190D01*
X118586190Y-97670952D01*
X118633809Y-97623333D01*
X118729047Y-97575714D01*
X118919523Y-97575714D01*
X119014761Y-97623333D01*
X119824285Y-97718571D02*
X119967142Y-97766190D01*
X120014761Y-97813809D01*
X120062380Y-97909047D01*
X120062380Y-98051904D01*
X120014761Y-98147142D01*
X119967142Y-98194761D01*
X119871904Y-98242380D01*
X119490952Y-98242380D01*
X119490952Y-97242380D01*
X119824285Y-97242380D01*
X119919523Y-97290000D01*
X119967142Y-97337619D01*
X120014761Y-97432857D01*
X120014761Y-97528095D01*
X119967142Y-97623333D01*
X119919523Y-97670952D01*
X119824285Y-97718571D01*
X119490952Y-97718571D01*
X120395714Y-97575714D02*
X120633809Y-98242380D01*
X120871904Y-97575714D01*
X115919523Y-92781428D02*
X116681428Y-92781428D01*
X117586190Y-92162380D02*
X117395714Y-92162380D01*
X117300476Y-92210000D01*
X117252857Y-92257619D01*
X117157619Y-92400476D01*
X117110000Y-92590952D01*
X117110000Y-92971904D01*
X117157619Y-93067142D01*
X117205238Y-93114761D01*
X117300476Y-93162380D01*
X117490952Y-93162380D01*
X117586190Y-93114761D01*
X117633809Y-93067142D01*
X117681428Y-92971904D01*
X117681428Y-92733809D01*
X117633809Y-92638571D01*
X117586190Y-92590952D01*
X117490952Y-92543333D01*
X117300476Y-92543333D01*
X117205238Y-92590952D01*
X117157619Y-92638571D01*
X117110000Y-92733809D01*
X118538571Y-93162380D02*
X118538571Y-92162380D01*
X118538571Y-93114761D02*
X118443333Y-93162380D01*
X118252857Y-93162380D01*
X118157619Y-93114761D01*
X118110000Y-93067142D01*
X118062380Y-92971904D01*
X118062380Y-92686190D01*
X118110000Y-92590952D01*
X118157619Y-92543333D01*
X118252857Y-92495714D01*
X118443333Y-92495714D01*
X118538571Y-92543333D01*
X119348095Y-92638571D02*
X119490952Y-92686190D01*
X119538571Y-92733809D01*
X119586190Y-92829047D01*
X119586190Y-92971904D01*
X119538571Y-93067142D01*
X119490952Y-93114761D01*
X119395714Y-93162380D01*
X119014761Y-93162380D01*
X119014761Y-92162380D01*
X119348095Y-92162380D01*
X119443333Y-92210000D01*
X119490952Y-92257619D01*
X119538571Y-92352857D01*
X119538571Y-92448095D01*
X119490952Y-92543333D01*
X119443333Y-92590952D01*
X119348095Y-92638571D01*
X119014761Y-92638571D01*
X119919523Y-92495714D02*
X120157619Y-93162380D01*
X120395714Y-92495714D01*
D10*
X157194285Y-107878571D02*
X156908571Y-107735714D01*
X156622857Y-107878571D01*
X156480000Y-108164285D01*
X156622857Y-108450000D01*
X156908571Y-108592857D01*
X157194285Y-108450000D01*
X157765714Y-107878571D01*
X158051428Y-107735714D01*
X158337142Y-107878571D01*
X158480000Y-108164285D01*
X158337142Y-108450000D01*
X158051428Y-108592857D01*
X157765714Y-108450000D01*
X157194285Y-107878571D01*
D12*
X157369047Y-87082380D02*
X157464285Y-87082380D01*
X157559523Y-87130000D01*
X157607142Y-87177619D01*
X157654761Y-87272857D01*
X157702380Y-87463333D01*
X157702380Y-87701428D01*
X157654761Y-87891904D01*
X157607142Y-87987142D01*
X157559523Y-88034761D01*
X157464285Y-88082380D01*
X157369047Y-88082380D01*
X157273809Y-88034761D01*
X157226190Y-87987142D01*
X157178571Y-87891904D01*
X157130952Y-87701428D01*
X157130952Y-87463333D01*
X157178571Y-87272857D01*
X157226190Y-87177619D01*
X157273809Y-87130000D01*
X157369047Y-87082380D01*
X158559523Y-88082380D02*
X158559523Y-87082380D01*
X158559523Y-88034761D02*
X158464285Y-88082380D01*
X158273809Y-88082380D01*
X158178571Y-88034761D01*
X158130952Y-87987142D01*
X158083333Y-87891904D01*
X158083333Y-87606190D01*
X158130952Y-87510952D01*
X158178571Y-87463333D01*
X158273809Y-87415714D01*
X158464285Y-87415714D01*
X158559523Y-87463333D01*
X159369047Y-87558571D02*
X159511904Y-87606190D01*
X159559523Y-87653809D01*
X159607142Y-87749047D01*
X159607142Y-87891904D01*
X159559523Y-87987142D01*
X159511904Y-88034761D01*
X159416666Y-88082380D01*
X159035714Y-88082380D01*
X159035714Y-87082380D01*
X159369047Y-87082380D01*
X159464285Y-87130000D01*
X159511904Y-87177619D01*
X159559523Y-87272857D01*
X159559523Y-87368095D01*
X159511904Y-87463333D01*
X159464285Y-87510952D01*
X159369047Y-87558571D01*
X159035714Y-87558571D01*
X159940476Y-87415714D02*
X160178571Y-88082380D01*
X160416666Y-87415714D01*
X156083333Y-102941428D02*
X156845238Y-102941428D01*
X157273809Y-102417619D02*
X157321428Y-102370000D01*
X157416666Y-102322380D01*
X157654761Y-102322380D01*
X157750000Y-102370000D01*
X157797619Y-102417619D01*
X157845238Y-102512857D01*
X157845238Y-102608095D01*
X157797619Y-102750952D01*
X157226190Y-103322380D01*
X157845238Y-103322380D01*
X158464285Y-102322380D02*
X158559523Y-102322380D01*
X158654761Y-102370000D01*
X158702380Y-102417619D01*
X158750000Y-102512857D01*
X158797619Y-102703333D01*
X158797619Y-102941428D01*
X158750000Y-103131904D01*
X158702380Y-103227142D01*
X158654761Y-103274761D01*
X158559523Y-103322380D01*
X158464285Y-103322380D01*
X158369047Y-103274761D01*
X158321428Y-103227142D01*
X158273809Y-103131904D01*
X158226190Y-102941428D01*
X158226190Y-102703333D01*
X158273809Y-102512857D01*
X158321428Y-102417619D01*
X158369047Y-102370000D01*
X158464285Y-102322380D01*
X159654761Y-103322380D02*
X159654761Y-102322380D01*
X159654761Y-103274761D02*
X159559523Y-103322380D01*
X159369047Y-103322380D01*
X159273809Y-103274761D01*
X159226190Y-103227142D01*
X159178571Y-103131904D01*
X159178571Y-102846190D01*
X159226190Y-102750952D01*
X159273809Y-102703333D01*
X159369047Y-102655714D01*
X159559523Y-102655714D01*
X159654761Y-102703333D01*
X160464285Y-102798571D02*
X160607142Y-102846190D01*
X160654761Y-102893809D01*
X160702380Y-102989047D01*
X160702380Y-103131904D01*
X160654761Y-103227142D01*
X160607142Y-103274761D01*
X160511904Y-103322380D01*
X160130952Y-103322380D01*
X160130952Y-102322380D01*
X160464285Y-102322380D01*
X160559523Y-102370000D01*
X160607142Y-102417619D01*
X160654761Y-102512857D01*
X160654761Y-102608095D01*
X160607142Y-102703333D01*
X160559523Y-102750952D01*
X160464285Y-102798571D01*
X160130952Y-102798571D01*
X161035714Y-102655714D02*
X161273809Y-103322380D01*
X161511904Y-102655714D01*
X156083333Y-97861428D02*
X156845238Y-97861428D01*
X157845238Y-98242380D02*
X157273809Y-98242380D01*
X157559523Y-98242380D02*
X157559523Y-97242380D01*
X157464285Y-97385238D01*
X157369047Y-97480476D01*
X157273809Y-97528095D01*
X158226190Y-97337619D02*
X158273809Y-97290000D01*
X158369047Y-97242380D01*
X158607142Y-97242380D01*
X158702380Y-97290000D01*
X158750000Y-97337619D01*
X158797619Y-97432857D01*
X158797619Y-97528095D01*
X158750000Y-97670952D01*
X158178571Y-98242380D01*
X158797619Y-98242380D01*
X159654761Y-98242380D02*
X159654761Y-97242380D01*
X159654761Y-98194761D02*
X159559523Y-98242380D01*
X159369047Y-98242380D01*
X159273809Y-98194761D01*
X159226190Y-98147142D01*
X159178571Y-98051904D01*
X159178571Y-97766190D01*
X159226190Y-97670952D01*
X159273809Y-97623333D01*
X159369047Y-97575714D01*
X159559523Y-97575714D01*
X159654761Y-97623333D01*
X160464285Y-97718571D02*
X160607142Y-97766190D01*
X160654761Y-97813809D01*
X160702380Y-97909047D01*
X160702380Y-98051904D01*
X160654761Y-98147142D01*
X160607142Y-98194761D01*
X160511904Y-98242380D01*
X160130952Y-98242380D01*
X160130952Y-97242380D01*
X160464285Y-97242380D01*
X160559523Y-97290000D01*
X160607142Y-97337619D01*
X160654761Y-97432857D01*
X160654761Y-97528095D01*
X160607142Y-97623333D01*
X160559523Y-97670952D01*
X160464285Y-97718571D01*
X160130952Y-97718571D01*
X161035714Y-97575714D02*
X161273809Y-98242380D01*
X161511904Y-97575714D01*
X156559523Y-92781428D02*
X157321428Y-92781428D01*
X158226190Y-92162380D02*
X158035714Y-92162380D01*
X157940476Y-92210000D01*
X157892857Y-92257619D01*
X157797619Y-92400476D01*
X157750000Y-92590952D01*
X157750000Y-92971904D01*
X157797619Y-93067142D01*
X157845238Y-93114761D01*
X157940476Y-93162380D01*
X158130952Y-93162380D01*
X158226190Y-93114761D01*
X158273809Y-93067142D01*
X158321428Y-92971904D01*
X158321428Y-92733809D01*
X158273809Y-92638571D01*
X158226190Y-92590952D01*
X158130952Y-92543333D01*
X157940476Y-92543333D01*
X157845238Y-92590952D01*
X157797619Y-92638571D01*
X157750000Y-92733809D01*
X159178571Y-93162380D02*
X159178571Y-92162380D01*
X159178571Y-93114761D02*
X159083333Y-93162380D01*
X158892857Y-93162380D01*
X158797619Y-93114761D01*
X158750000Y-93067142D01*
X158702380Y-92971904D01*
X158702380Y-92686190D01*
X158750000Y-92590952D01*
X158797619Y-92543333D01*
X158892857Y-92495714D01*
X159083333Y-92495714D01*
X159178571Y-92543333D01*
X159988095Y-92638571D02*
X160130952Y-92686190D01*
X160178571Y-92733809D01*
X160226190Y-92829047D01*
X160226190Y-92971904D01*
X160178571Y-93067142D01*
X160130952Y-93114761D01*
X160035714Y-93162380D01*
X159654761Y-93162380D01*
X159654761Y-92162380D01*
X159988095Y-92162380D01*
X160083333Y-92210000D01*
X160130952Y-92257619D01*
X160178571Y-92352857D01*
X160178571Y-92448095D01*
X160130952Y-92543333D01*
X160083333Y-92590952D01*
X159988095Y-92638571D01*
X159654761Y-92638571D01*
X160559523Y-92495714D02*
X160797619Y-93162380D01*
X161035714Y-92495714D01*
D10*
X197834285Y-107878571D02*
X197548571Y-107735714D01*
X197262857Y-107878571D01*
X197120000Y-108164285D01*
X197262857Y-108450000D01*
X197548571Y-108592857D01*
X197834285Y-108450000D01*
X198405714Y-107878571D01*
X198691428Y-107735714D01*
X198977142Y-107878571D01*
X199120000Y-108164285D01*
X198977142Y-108450000D01*
X198691428Y-108592857D01*
X198405714Y-108450000D01*
X197834285Y-107878571D01*
D12*
X198009047Y-87082380D02*
X198104285Y-87082380D01*
X198199523Y-87130000D01*
X198247142Y-87177619D01*
X198294761Y-87272857D01*
X198342380Y-87463333D01*
X198342380Y-87701428D01*
X198294761Y-87891904D01*
X198247142Y-87987142D01*
X198199523Y-88034761D01*
X198104285Y-88082380D01*
X198009047Y-88082380D01*
X197913809Y-88034761D01*
X197866190Y-87987142D01*
X197818571Y-87891904D01*
X197770952Y-87701428D01*
X197770952Y-87463333D01*
X197818571Y-87272857D01*
X197866190Y-87177619D01*
X197913809Y-87130000D01*
X198009047Y-87082380D01*
X199199523Y-88082380D02*
X199199523Y-87082380D01*
X199199523Y-88034761D02*
X199104285Y-88082380D01*
X198913809Y-88082380D01*
X198818571Y-88034761D01*
X198770952Y-87987142D01*
X198723333Y-87891904D01*
X198723333Y-87606190D01*
X198770952Y-87510952D01*
X198818571Y-87463333D01*
X198913809Y-87415714D01*
X199104285Y-87415714D01*
X199199523Y-87463333D01*
X200009047Y-87558571D02*
X200151904Y-87606190D01*
X200199523Y-87653809D01*
X200247142Y-87749047D01*
X200247142Y-87891904D01*
X200199523Y-87987142D01*
X200151904Y-88034761D01*
X200056666Y-88082380D01*
X199675714Y-88082380D01*
X199675714Y-87082380D01*
X200009047Y-87082380D01*
X200104285Y-87130000D01*
X200151904Y-87177619D01*
X200199523Y-87272857D01*
X200199523Y-87368095D01*
X200151904Y-87463333D01*
X200104285Y-87510952D01*
X200009047Y-87558571D01*
X199675714Y-87558571D01*
X200580476Y-87415714D02*
X200818571Y-88082380D01*
X201056666Y-87415714D01*
X196723333Y-102941428D02*
X197485238Y-102941428D01*
X197913809Y-102417619D02*
X197961428Y-102370000D01*
X198056666Y-102322380D01*
X198294761Y-102322380D01*
X198390000Y-102370000D01*
X198437619Y-102417619D01*
X198485238Y-102512857D01*
X198485238Y-102608095D01*
X198437619Y-102750952D01*
X197866190Y-103322380D01*
X198485238Y-103322380D01*
X199104285Y-102322380D02*
X199199523Y-102322380D01*
X199294761Y-102370000D01*
X199342380Y-102417619D01*
X199390000Y-102512857D01*
X199437619Y-102703333D01*
X199437619Y-102941428D01*
X199390000Y-103131904D01*
X199342380Y-103227142D01*
X199294761Y-103274761D01*
X199199523Y-103322380D01*
X199104285Y-103322380D01*
X199009047Y-103274761D01*
X198961428Y-103227142D01*
X198913809Y-103131904D01*
X198866190Y-102941428D01*
X198866190Y-102703333D01*
X198913809Y-102512857D01*
X198961428Y-102417619D01*
X199009047Y-102370000D01*
X199104285Y-102322380D01*
X200294761Y-103322380D02*
X200294761Y-102322380D01*
X200294761Y-103274761D02*
X200199523Y-103322380D01*
X200009047Y-103322380D01*
X199913809Y-103274761D01*
X199866190Y-103227142D01*
X199818571Y-103131904D01*
X199818571Y-102846190D01*
X199866190Y-102750952D01*
X199913809Y-102703333D01*
X200009047Y-102655714D01*
X200199523Y-102655714D01*
X200294761Y-102703333D01*
X201104285Y-102798571D02*
X201247142Y-102846190D01*
X201294761Y-102893809D01*
X201342380Y-102989047D01*
X201342380Y-103131904D01*
X201294761Y-103227142D01*
X201247142Y-103274761D01*
X201151904Y-103322380D01*
X200770952Y-103322380D01*
X200770952Y-102322380D01*
X201104285Y-102322380D01*
X201199523Y-102370000D01*
X201247142Y-102417619D01*
X201294761Y-102512857D01*
X201294761Y-102608095D01*
X201247142Y-102703333D01*
X201199523Y-102750952D01*
X201104285Y-102798571D01*
X200770952Y-102798571D01*
X201675714Y-102655714D02*
X201913809Y-103322380D01*
X202151904Y-102655714D01*
X196723333Y-97861428D02*
X197485238Y-97861428D01*
X198485238Y-98242380D02*
X197913809Y-98242380D01*
X198199523Y-98242380D02*
X198199523Y-97242380D01*
X198104285Y-97385238D01*
X198009047Y-97480476D01*
X197913809Y-97528095D01*
X198866190Y-97337619D02*
X198913809Y-97290000D01*
X199009047Y-97242380D01*
X199247142Y-97242380D01*
X199342380Y-97290000D01*
X199390000Y-97337619D01*
X199437619Y-97432857D01*
X199437619Y-97528095D01*
X199390000Y-97670952D01*
X198818571Y-98242380D01*
X199437619Y-98242380D01*
X200294761Y-98242380D02*
X200294761Y-97242380D01*
X200294761Y-98194761D02*
X200199523Y-98242380D01*
X200009047Y-98242380D01*
X199913809Y-98194761D01*
X199866190Y-98147142D01*
X199818571Y-98051904D01*
X199818571Y-97766190D01*
X199866190Y-97670952D01*
X199913809Y-97623333D01*
X200009047Y-97575714D01*
X200199523Y-97575714D01*
X200294761Y-97623333D01*
X201104285Y-97718571D02*
X201247142Y-97766190D01*
X201294761Y-97813809D01*
X201342380Y-97909047D01*
X201342380Y-98051904D01*
X201294761Y-98147142D01*
X201247142Y-98194761D01*
X201151904Y-98242380D01*
X200770952Y-98242380D01*
X200770952Y-97242380D01*
X201104285Y-97242380D01*
X201199523Y-97290000D01*
X201247142Y-97337619D01*
X201294761Y-97432857D01*
X201294761Y-97528095D01*
X201247142Y-97623333D01*
X201199523Y-97670952D01*
X201104285Y-97718571D01*
X200770952Y-97718571D01*
X201675714Y-97575714D02*
X201913809Y-98242380D01*
X202151904Y-97575714D01*
X197199523Y-92781428D02*
X197961428Y-92781428D01*
X198866190Y-92162380D02*
X198675714Y-92162380D01*
X198580476Y-92210000D01*
X198532857Y-92257619D01*
X198437619Y-92400476D01*
X198390000Y-92590952D01*
X198390000Y-92971904D01*
X198437619Y-93067142D01*
X198485238Y-93114761D01*
X198580476Y-93162380D01*
X198770952Y-93162380D01*
X198866190Y-93114761D01*
X198913809Y-93067142D01*
X198961428Y-92971904D01*
X198961428Y-92733809D01*
X198913809Y-92638571D01*
X198866190Y-92590952D01*
X198770952Y-92543333D01*
X198580476Y-92543333D01*
X198485238Y-92590952D01*
X198437619Y-92638571D01*
X198390000Y-92733809D01*
X199818571Y-93162380D02*
X199818571Y-92162380D01*
X199818571Y-93114761D02*
X199723333Y-93162380D01*
X199532857Y-93162380D01*
X199437619Y-93114761D01*
X199390000Y-93067142D01*
X199342380Y-92971904D01*
X199342380Y-92686190D01*
X199390000Y-92590952D01*
X199437619Y-92543333D01*
X199532857Y-92495714D01*
X199723333Y-92495714D01*
X199818571Y-92543333D01*
X200628095Y-92638571D02*
X200770952Y-92686190D01*
X200818571Y-92733809D01*
X200866190Y-92829047D01*
X200866190Y-92971904D01*
X200818571Y-93067142D01*
X200770952Y-93114761D01*
X200675714Y-93162380D01*
X200294761Y-93162380D01*
X200294761Y-92162380D01*
X200628095Y-92162380D01*
X200723333Y-92210000D01*
X200770952Y-92257619D01*
X200818571Y-92352857D01*
X200818571Y-92448095D01*
X200770952Y-92543333D01*
X200723333Y-92590952D01*
X200628095Y-92638571D01*
X200294761Y-92638571D01*
X201199523Y-92495714D02*
X201437619Y-93162380D01*
X201675714Y-92495714D01*
D10*
X238474285Y-107878571D02*
X238188571Y-107735714D01*
X237902857Y-107878571D01*
X237760000Y-108164285D01*
X237902857Y-108450000D01*
X238188571Y-108592857D01*
X238474285Y-108450000D01*
X239045714Y-107878571D01*
X239331428Y-107735714D01*
X239617142Y-107878571D01*
X239760000Y-108164285D01*
X239617142Y-108450000D01*
X239331428Y-108592857D01*
X239045714Y-108450000D01*
X238474285Y-107878571D01*
D12*
X238649047Y-87082380D02*
X238744285Y-87082380D01*
X238839523Y-87130000D01*
X238887142Y-87177619D01*
X238934761Y-87272857D01*
X238982380Y-87463333D01*
X238982380Y-87701428D01*
X238934761Y-87891904D01*
X238887142Y-87987142D01*
X238839523Y-88034761D01*
X238744285Y-88082380D01*
X238649047Y-88082380D01*
X238553809Y-88034761D01*
X238506190Y-87987142D01*
X238458571Y-87891904D01*
X238410952Y-87701428D01*
X238410952Y-87463333D01*
X238458571Y-87272857D01*
X238506190Y-87177619D01*
X238553809Y-87130000D01*
X238649047Y-87082380D01*
X239839523Y-88082380D02*
X239839523Y-87082380D01*
X239839523Y-88034761D02*
X239744285Y-88082380D01*
X239553809Y-88082380D01*
X239458571Y-88034761D01*
X239410952Y-87987142D01*
X239363333Y-87891904D01*
X239363333Y-87606190D01*
X239410952Y-87510952D01*
X239458571Y-87463333D01*
X239553809Y-87415714D01*
X239744285Y-87415714D01*
X239839523Y-87463333D01*
X240649047Y-87558571D02*
X240791904Y-87606190D01*
X240839523Y-87653809D01*
X240887142Y-87749047D01*
X240887142Y-87891904D01*
X240839523Y-87987142D01*
X240791904Y-88034761D01*
X240696666Y-88082380D01*
X240315714Y-88082380D01*
X240315714Y-87082380D01*
X240649047Y-87082380D01*
X240744285Y-87130000D01*
X240791904Y-87177619D01*
X240839523Y-87272857D01*
X240839523Y-87368095D01*
X240791904Y-87463333D01*
X240744285Y-87510952D01*
X240649047Y-87558571D01*
X240315714Y-87558571D01*
X241220476Y-87415714D02*
X241458571Y-88082380D01*
X241696666Y-87415714D01*
X237363333Y-102941428D02*
X238125238Y-102941428D01*
X238553809Y-102417619D02*
X238601428Y-102370000D01*
X238696666Y-102322380D01*
X238934761Y-102322380D01*
X239030000Y-102370000D01*
X239077619Y-102417619D01*
X239125238Y-102512857D01*
X239125238Y-102608095D01*
X239077619Y-102750952D01*
X238506190Y-103322380D01*
X239125238Y-103322380D01*
X239744285Y-102322380D02*
X239839523Y-102322380D01*
X239934761Y-102370000D01*
X239982380Y-102417619D01*
X240030000Y-102512857D01*
X240077619Y-102703333D01*
X240077619Y-102941428D01*
X240030000Y-103131904D01*
X239982380Y-103227142D01*
X239934761Y-103274761D01*
X239839523Y-103322380D01*
X239744285Y-103322380D01*
X239649047Y-103274761D01*
X239601428Y-103227142D01*
X239553809Y-103131904D01*
X239506190Y-102941428D01*
X239506190Y-102703333D01*
X239553809Y-102512857D01*
X239601428Y-102417619D01*
X239649047Y-102370000D01*
X239744285Y-102322380D01*
X240934761Y-103322380D02*
X240934761Y-102322380D01*
X240934761Y-103274761D02*
X240839523Y-103322380D01*
X240649047Y-103322380D01*
X240553809Y-103274761D01*
X240506190Y-103227142D01*
X240458571Y-103131904D01*
X240458571Y-102846190D01*
X240506190Y-102750952D01*
X240553809Y-102703333D01*
X240649047Y-102655714D01*
X240839523Y-102655714D01*
X240934761Y-102703333D01*
X241744285Y-102798571D02*
X241887142Y-102846190D01*
X241934761Y-102893809D01*
X241982380Y-102989047D01*
X241982380Y-103131904D01*
X241934761Y-103227142D01*
X241887142Y-103274761D01*
X241791904Y-103322380D01*
X241410952Y-103322380D01*
X241410952Y-102322380D01*
X241744285Y-102322380D01*
X241839523Y-102370000D01*
X241887142Y-102417619D01*
X241934761Y-102512857D01*
X241934761Y-102608095D01*
X241887142Y-102703333D01*
X241839523Y-102750952D01*
X241744285Y-102798571D01*
X241410952Y-102798571D01*
X242315714Y-102655714D02*
X242553809Y-103322380D01*
X242791904Y-102655714D01*
X237363333Y-97861428D02*
X238125238Y-97861428D01*
X239125238Y-98242380D02*
X238553809Y-98242380D01*
X238839523Y-98242380D02*
X238839523Y-97242380D01*
X238744285Y-97385238D01*
X238649047Y-97480476D01*
X238553809Y-97528095D01*
X239506190Y-97337619D02*
X239553809Y-97290000D01*
X239649047Y-97242380D01*
X239887142Y-97242380D01*
X239982380Y-97290000D01*
X240030000Y-97337619D01*
X240077619Y-97432857D01*
X240077619Y-97528095D01*
X240030000Y-97670952D01*
X239458571Y-98242380D01*
X240077619Y-98242380D01*
X240934761Y-98242380D02*
X240934761Y-97242380D01*
X240934761Y-98194761D02*
X240839523Y-98242380D01*
X240649047Y-98242380D01*
X240553809Y-98194761D01*
X240506190Y-98147142D01*
X240458571Y-98051904D01*
X240458571Y-97766190D01*
X240506190Y-97670952D01*
X240553809Y-97623333D01*
X240649047Y-97575714D01*
X240839523Y-97575714D01*
X240934761Y-97623333D01*
X241744285Y-97718571D02*
X241887142Y-97766190D01*
X241934761Y-97813809D01*
X241982380Y-97909047D01*
X241982380Y-98051904D01*
X241934761Y-98147142D01*
X241887142Y-98194761D01*
X241791904Y-98242380D01*
X241410952Y-98242380D01*
X241410952Y-97242380D01*
X241744285Y-97242380D01*
X241839523Y-97290000D01*
X241887142Y-97337619D01*
X241934761Y-97432857D01*
X241934761Y-97528095D01*
X241887142Y-97623333D01*
X241839523Y-97670952D01*
X241744285Y-97718571D01*
X241410952Y-97718571D01*
X242315714Y-97575714D02*
X242553809Y-98242380D01*
X242791904Y-97575714D01*
X237839523Y-92781428D02*
X238601428Y-92781428D01*
X239506190Y-92162380D02*
X239315714Y-92162380D01*
X239220476Y-92210000D01*
X239172857Y-92257619D01*
X239077619Y-92400476D01*
X239030000Y-92590952D01*
X239030000Y-92971904D01*
X239077619Y-93067142D01*
X239125238Y-93114761D01*
X239220476Y-93162380D01*
X239410952Y-93162380D01*
X239506190Y-93114761D01*
X239553809Y-93067142D01*
X239601428Y-92971904D01*
X239601428Y-92733809D01*
X239553809Y-92638571D01*
X239506190Y-92590952D01*
X239410952Y-92543333D01*
X239220476Y-92543333D01*
X239125238Y-92590952D01*
X239077619Y-92638571D01*
X239030000Y-92733809D01*
X240458571Y-93162380D02*
X240458571Y-92162380D01*
X240458571Y-93114761D02*
X240363333Y-93162380D01*
X240172857Y-93162380D01*
X240077619Y-93114761D01*
X240030000Y-93067142D01*
X239982380Y-92971904D01*
X239982380Y-92686190D01*
X240030000Y-92590952D01*
X240077619Y-92543333D01*
X240172857Y-92495714D01*
X240363333Y-92495714D01*
X240458571Y-92543333D01*
X241268095Y-92638571D02*
X241410952Y-92686190D01*
X241458571Y-92733809D01*
X241506190Y-92829047D01*
X241506190Y-92971904D01*
X241458571Y-93067142D01*
X241410952Y-93114761D01*
X241315714Y-93162380D01*
X240934761Y-93162380D01*
X240934761Y-92162380D01*
X241268095Y-92162380D01*
X241363333Y-92210000D01*
X241410952Y-92257619D01*
X241458571Y-92352857D01*
X241458571Y-92448095D01*
X241410952Y-92543333D01*
X241363333Y-92590952D01*
X241268095Y-92638571D01*
X240934761Y-92638571D01*
X241839523Y-92495714D02*
X242077619Y-93162380D01*
X242315714Y-92495714D01*
D10*
X279114285Y-107878571D02*
X278828571Y-107735714D01*
X278542857Y-107878571D01*
X278400000Y-108164285D01*
X278542857Y-108450000D01*
X278828571Y-108592857D01*
X279114285Y-108450000D01*
X279685714Y-107878571D01*
X279971428Y-107735714D01*
X280257142Y-107878571D01*
X280400000Y-108164285D01*
X280257142Y-108450000D01*
X279971428Y-108592857D01*
X279685714Y-108450000D01*
X279114285Y-107878571D01*
D12*
X279289047Y-87082380D02*
X279384285Y-87082380D01*
X279479523Y-87130000D01*
X279527142Y-87177619D01*
X279574761Y-87272857D01*
X279622380Y-87463333D01*
X279622380Y-87701428D01*
X279574761Y-87891904D01*
X279527142Y-87987142D01*
X279479523Y-88034761D01*
X279384285Y-88082380D01*
X279289047Y-88082380D01*
X279193809Y-88034761D01*
X279146190Y-87987142D01*
X279098571Y-87891904D01*
X279050952Y-87701428D01*
X279050952Y-87463333D01*
X279098571Y-87272857D01*
X279146190Y-87177619D01*
X279193809Y-87130000D01*
X279289047Y-87082380D01*
X280479523Y-88082380D02*
X280479523Y-87082380D01*
X280479523Y-88034761D02*
X280384285Y-88082380D01*
X280193809Y-88082380D01*
X280098571Y-88034761D01*
X280050952Y-87987142D01*
X280003333Y-87891904D01*
X280003333Y-87606190D01*
X280050952Y-87510952D01*
X280098571Y-87463333D01*
X280193809Y-87415714D01*
X280384285Y-87415714D01*
X280479523Y-87463333D01*
X281289047Y-87558571D02*
X281431904Y-87606190D01*
X281479523Y-87653809D01*
X281527142Y-87749047D01*
X281527142Y-87891904D01*
X281479523Y-87987142D01*
X281431904Y-88034761D01*
X281336666Y-88082380D01*
X280955714Y-88082380D01*
X280955714Y-87082380D01*
X281289047Y-87082380D01*
X281384285Y-87130000D01*
X281431904Y-87177619D01*
X281479523Y-87272857D01*
X281479523Y-87368095D01*
X281431904Y-87463333D01*
X281384285Y-87510952D01*
X281289047Y-87558571D01*
X280955714Y-87558571D01*
X281860476Y-87415714D02*
X282098571Y-88082380D01*
X282336666Y-87415714D01*
X278003333Y-102941428D02*
X278765238Y-102941428D01*
X279193809Y-102417619D02*
X279241428Y-102370000D01*
X279336666Y-102322380D01*
X279574761Y-102322380D01*
X279670000Y-102370000D01*
X279717619Y-102417619D01*
X279765238Y-102512857D01*
X279765238Y-102608095D01*
X279717619Y-102750952D01*
X279146190Y-103322380D01*
X279765238Y-103322380D01*
X280384285Y-102322380D02*
X280479523Y-102322380D01*
X280574761Y-102370000D01*
X280622380Y-102417619D01*
X280670000Y-102512857D01*
X280717619Y-102703333D01*
X280717619Y-102941428D01*
X280670000Y-103131904D01*
X280622380Y-103227142D01*
X280574761Y-103274761D01*
X280479523Y-103322380D01*
X280384285Y-103322380D01*
X280289047Y-103274761D01*
X280241428Y-103227142D01*
X280193809Y-103131904D01*
X280146190Y-102941428D01*
X280146190Y-102703333D01*
X280193809Y-102512857D01*
X280241428Y-102417619D01*
X280289047Y-102370000D01*
X280384285Y-102322380D01*
X281574761Y-103322380D02*
X281574761Y-102322380D01*
X281574761Y-103274761D02*
X281479523Y-103322380D01*
X281289047Y-103322380D01*
X281193809Y-103274761D01*
X281146190Y-103227142D01*
X281098571Y-103131904D01*
X281098571Y-102846190D01*
X281146190Y-102750952D01*
X281193809Y-102703333D01*
X281289047Y-102655714D01*
X281479523Y-102655714D01*
X281574761Y-102703333D01*
X282384285Y-102798571D02*
X282527142Y-102846190D01*
X282574761Y-102893809D01*
X282622380Y-102989047D01*
X282622380Y-103131904D01*
X282574761Y-103227142D01*
X282527142Y-103274761D01*
X282431904Y-103322380D01*
X282050952Y-103322380D01*
X282050952Y-102322380D01*
X282384285Y-102322380D01*
X282479523Y-102370000D01*
X282527142Y-102417619D01*
X282574761Y-102512857D01*
X282574761Y-102608095D01*
X282527142Y-102703333D01*
X282479523Y-102750952D01*
X282384285Y-102798571D01*
X282050952Y-102798571D01*
X282955714Y-102655714D02*
X283193809Y-103322380D01*
X283431904Y-102655714D01*
X278003333Y-97861428D02*
X278765238Y-97861428D01*
X279765238Y-98242380D02*
X279193809Y-98242380D01*
X279479523Y-98242380D02*
X279479523Y-97242380D01*
X279384285Y-97385238D01*
X279289047Y-97480476D01*
X279193809Y-97528095D01*
X280146190Y-97337619D02*
X280193809Y-97290000D01*
X280289047Y-97242380D01*
X280527142Y-97242380D01*
X280622380Y-97290000D01*
X280670000Y-97337619D01*
X280717619Y-97432857D01*
X280717619Y-97528095D01*
X280670000Y-97670952D01*
X280098571Y-98242380D01*
X280717619Y-98242380D01*
X281574761Y-98242380D02*
X281574761Y-97242380D01*
X281574761Y-98194761D02*
X281479523Y-98242380D01*
X281289047Y-98242380D01*
X281193809Y-98194761D01*
X281146190Y-98147142D01*
X281098571Y-98051904D01*
X281098571Y-97766190D01*
X281146190Y-97670952D01*
X281193809Y-97623333D01*
X281289047Y-97575714D01*
X281479523Y-97575714D01*
X281574761Y-97623333D01*
X282384285Y-97718571D02*
X282527142Y-97766190D01*
X282574761Y-97813809D01*
X282622380Y-97909047D01*
X282622380Y-98051904D01*
X282574761Y-98147142D01*
X282527142Y-98194761D01*
X282431904Y-98242380D01*
X282050952Y-98242380D01*
X282050952Y-97242380D01*
X282384285Y-97242380D01*
X282479523Y-97290000D01*
X282527142Y-97337619D01*
X282574761Y-97432857D01*
X282574761Y-97528095D01*
X282527142Y-97623333D01*
X282479523Y-97670952D01*
X282384285Y-97718571D01*
X282050952Y-97718571D01*
X282955714Y-97575714D02*
X283193809Y-98242380D01*
X283431904Y-97575714D01*
X278479523Y-92781428D02*
X279241428Y-92781428D01*
X280146190Y-92162380D02*
X279955714Y-92162380D01*
X279860476Y-92210000D01*
X279812857Y-92257619D01*
X279717619Y-92400476D01*
X279670000Y-92590952D01*
X279670000Y-92971904D01*
X279717619Y-93067142D01*
X279765238Y-93114761D01*
X279860476Y-93162380D01*
X280050952Y-93162380D01*
X280146190Y-93114761D01*
X280193809Y-93067142D01*
X280241428Y-92971904D01*
X280241428Y-92733809D01*
X280193809Y-92638571D01*
X280146190Y-92590952D01*
X280050952Y-92543333D01*
X279860476Y-92543333D01*
X279765238Y-92590952D01*
X279717619Y-92638571D01*
X279670000Y-92733809D01*
X281098571Y-93162380D02*
X281098571Y-92162380D01*
X281098571Y-93114761D02*
X281003333Y-93162380D01*
X280812857Y-93162380D01*
X280717619Y-93114761D01*
X280670000Y-93067142D01*
X280622380Y-92971904D01*
X280622380Y-92686190D01*
X280670000Y-92590952D01*
X280717619Y-92543333D01*
X280812857Y-92495714D01*
X281003333Y-92495714D01*
X281098571Y-92543333D01*
X281908095Y-92638571D02*
X282050952Y-92686190D01*
X282098571Y-92733809D01*
X282146190Y-92829047D01*
X282146190Y-92971904D01*
X282098571Y-93067142D01*
X282050952Y-93114761D01*
X281955714Y-93162380D01*
X281574761Y-93162380D01*
X281574761Y-92162380D01*
X281908095Y-92162380D01*
X282003333Y-92210000D01*
X282050952Y-92257619D01*
X282098571Y-92352857D01*
X282098571Y-92448095D01*
X282050952Y-92543333D01*
X282003333Y-92590952D01*
X281908095Y-92638571D01*
X281574761Y-92638571D01*
X282479523Y-92495714D02*
X282717619Y-93162380D01*
X282955714Y-92495714D01*
D10*
X319754285Y-107878571D02*
X319468571Y-107735714D01*
X319182857Y-107878571D01*
X319040000Y-108164285D01*
X319182857Y-108450000D01*
X319468571Y-108592857D01*
X319754285Y-108450000D01*
X320325714Y-107878571D01*
X320611428Y-107735714D01*
X320897142Y-107878571D01*
X321040000Y-108164285D01*
X320897142Y-108450000D01*
X320611428Y-108592857D01*
X320325714Y-108450000D01*
X319754285Y-107878571D01*
D12*
X319929047Y-87082380D02*
X320024285Y-87082380D01*
X320119523Y-87130000D01*
X320167142Y-87177619D01*
X320214761Y-87272857D01*
X320262380Y-87463333D01*
X320262380Y-87701428D01*
X320214761Y-87891904D01*
X320167142Y-87987142D01*
X320119523Y-88034761D01*
X320024285Y-88082380D01*
X319929047Y-88082380D01*
X319833809Y-88034761D01*
X319786190Y-87987142D01*
X319738571Y-87891904D01*
X319690952Y-87701428D01*
X319690952Y-87463333D01*
X319738571Y-87272857D01*
X319786190Y-87177619D01*
X319833809Y-87130000D01*
X319929047Y-87082380D01*
X321119523Y-88082380D02*
X321119523Y-87082380D01*
X321119523Y-88034761D02*
X321024285Y-88082380D01*
X320833809Y-88082380D01*
X320738571Y-88034761D01*
X320690952Y-87987142D01*
X320643333Y-87891904D01*
X320643333Y-87606190D01*
X320690952Y-87510952D01*
X320738571Y-87463333D01*
X320833809Y-87415714D01*
X321024285Y-87415714D01*
X321119523Y-87463333D01*
X321929047Y-87558571D02*
X322071904Y-87606190D01*
X322119523Y-87653809D01*
X322167142Y-87749047D01*
X322167142Y-87891904D01*
X322119523Y-87987142D01*
X322071904Y-88034761D01*
X321976666Y-88082380D01*
X321595714Y-88082380D01*
X321595714Y-87082380D01*
X321929047Y-87082380D01*
X322024285Y-87130000D01*
X322071904Y-87177619D01*
X322119523Y-87272857D01*
X322119523Y-87368095D01*
X322071904Y-87463333D01*
X322024285Y-87510952D01*
X321929047Y-87558571D01*
X321595714Y-87558571D01*
X322500476Y-87415714D02*
X322738571Y-88082380D01*
X322976666Y-87415714D01*
X318643333Y-102941428D02*
X319405238Y-102941428D01*
X319833809Y-102417619D02*
X319881428Y-102370000D01*
X319976666Y-102322380D01*
X320214761Y-102322380D01*
X320310000Y-102370000D01*
X320357619Y-102417619D01*
X320405238Y-102512857D01*
X320405238Y-102608095D01*
X320357619Y-102750952D01*
X319786190Y-103322380D01*
X320405238Y-103322380D01*
X321024285Y-102322380D02*
X321119523Y-102322380D01*
X321214761Y-102370000D01*
X321262380Y-102417619D01*
X321310000Y-102512857D01*
X321357619Y-102703333D01*
X321357619Y-102941428D01*
X321310000Y-103131904D01*
X321262380Y-103227142D01*
X321214761Y-103274761D01*
X321119523Y-103322380D01*
X321024285Y-103322380D01*
X320929047Y-103274761D01*
X320881428Y-103227142D01*
X320833809Y-103131904D01*
X320786190Y-102941428D01*
X320786190Y-102703333D01*
X320833809Y-102512857D01*
X320881428Y-102417619D01*
X320929047Y-102370000D01*
X321024285Y-102322380D01*
X322214761Y-103322380D02*
X322214761Y-102322380D01*
X322214761Y-103274761D02*
X322119523Y-103322380D01*
X321929047Y-103322380D01*
X321833809Y-103274761D01*
X321786190Y-103227142D01*
X321738571Y-103131904D01*
X321738571Y-102846190D01*
X321786190Y-102750952D01*
X321833809Y-102703333D01*
X321929047Y-102655714D01*
X322119523Y-102655714D01*
X322214761Y-102703333D01*
X323024285Y-102798571D02*
X323167142Y-102846190D01*
X323214761Y-102893809D01*
X323262380Y-102989047D01*
X323262380Y-103131904D01*
X323214761Y-103227142D01*
X323167142Y-103274761D01*
X323071904Y-103322380D01*
X322690952Y-103322380D01*
X322690952Y-102322380D01*
X323024285Y-102322380D01*
X323119523Y-102370000D01*
X323167142Y-102417619D01*
X323214761Y-102512857D01*
X323214761Y-102608095D01*
X323167142Y-102703333D01*
X323119523Y-102750952D01*
X323024285Y-102798571D01*
X322690952Y-102798571D01*
X323595714Y-102655714D02*
X323833809Y-103322380D01*
X324071904Y-102655714D01*
X318643333Y-97861428D02*
X319405238Y-97861428D01*
X320405238Y-98242380D02*
X319833809Y-98242380D01*
X320119523Y-98242380D02*
X320119523Y-97242380D01*
X320024285Y-97385238D01*
X319929047Y-97480476D01*
X319833809Y-97528095D01*
X320786190Y-97337619D02*
X320833809Y-97290000D01*
X320929047Y-97242380D01*
X321167142Y-97242380D01*
X321262380Y-97290000D01*
X321310000Y-97337619D01*
X321357619Y-97432857D01*
X321357619Y-97528095D01*
X321310000Y-97670952D01*
X320738571Y-98242380D01*
X321357619Y-98242380D01*
X322214761Y-98242380D02*
X322214761Y-97242380D01*
X322214761Y-98194761D02*
X322119523Y-98242380D01*
X321929047Y-98242380D01*
X321833809Y-98194761D01*
X321786190Y-98147142D01*
X321738571Y-98051904D01*
X321738571Y-97766190D01*
X321786190Y-97670952D01*
X321833809Y-97623333D01*
X321929047Y-97575714D01*
X322119523Y-97575714D01*
X322214761Y-97623333D01*
X323024285Y-97718571D02*
X323167142Y-97766190D01*
X323214761Y-97813809D01*
X323262380Y-97909047D01*
X323262380Y-98051904D01*
X323214761Y-98147142D01*
X323167142Y-98194761D01*
X323071904Y-98242380D01*
X322690952Y-98242380D01*
X322690952Y-97242380D01*
X323024285Y-97242380D01*
X323119523Y-97290000D01*
X323167142Y-97337619D01*
X323214761Y-97432857D01*
X323214761Y-97528095D01*
X323167142Y-97623333D01*
X323119523Y-97670952D01*
X323024285Y-97718571D01*
X322690952Y-97718571D01*
X323595714Y-97575714D02*
X323833809Y-98242380D01*
X324071904Y-97575714D01*
X319119523Y-92781428D02*
X319881428Y-92781428D01*
X320786190Y-92162380D02*
X320595714Y-92162380D01*
X320500476Y-92210000D01*
X320452857Y-92257619D01*
X320357619Y-92400476D01*
X320310000Y-92590952D01*
X320310000Y-92971904D01*
X320357619Y-93067142D01*
X320405238Y-93114761D01*
X320500476Y-93162380D01*
X320690952Y-93162380D01*
X320786190Y-93114761D01*
X320833809Y-93067142D01*
X320881428Y-92971904D01*
X320881428Y-92733809D01*
X320833809Y-92638571D01*
X320786190Y-92590952D01*
X320690952Y-92543333D01*
X320500476Y-92543333D01*
X320405238Y-92590952D01*
X320357619Y-92638571D01*
X320310000Y-92733809D01*
X321738571Y-93162380D02*
X321738571Y-92162380D01*
X321738571Y-93114761D02*
X321643333Y-93162380D01*
X321452857Y-93162380D01*
X321357619Y-93114761D01*
X321310000Y-93067142D01*
X321262380Y-92971904D01*
X321262380Y-92686190D01*
X321310000Y-92590952D01*
X321357619Y-92543333D01*
X321452857Y-92495714D01*
X321643333Y-92495714D01*
X321738571Y-92543333D01*
X322548095Y-92638571D02*
X322690952Y-92686190D01*
X322738571Y-92733809D01*
X322786190Y-92829047D01*
X322786190Y-92971904D01*
X322738571Y-93067142D01*
X322690952Y-93114761D01*
X322595714Y-93162380D01*
X322214761Y-93162380D01*
X322214761Y-92162380D01*
X322548095Y-92162380D01*
X322643333Y-92210000D01*
X322690952Y-92257619D01*
X322738571Y-92352857D01*
X322738571Y-92448095D01*
X322690952Y-92543333D01*
X322643333Y-92590952D01*
X322548095Y-92638571D01*
X322214761Y-92638571D01*
X323119523Y-92495714D02*
X323357619Y-93162380D01*
X323595714Y-92495714D01*
X359283333Y-102941428D02*
X360045238Y-102941428D01*
X360473809Y-102417619D02*
X360521428Y-102370000D01*
X360616666Y-102322380D01*
X360854761Y-102322380D01*
X360950000Y-102370000D01*
X360997619Y-102417619D01*
X361045238Y-102512857D01*
X361045238Y-102608095D01*
X360997619Y-102750952D01*
X360426190Y-103322380D01*
X361045238Y-103322380D01*
X361664285Y-102322380D02*
X361759523Y-102322380D01*
X361854761Y-102370000D01*
X361902380Y-102417619D01*
X361950000Y-102512857D01*
X361997619Y-102703333D01*
X361997619Y-102941428D01*
X361950000Y-103131904D01*
X361902380Y-103227142D01*
X361854761Y-103274761D01*
X361759523Y-103322380D01*
X361664285Y-103322380D01*
X361569047Y-103274761D01*
X361521428Y-103227142D01*
X361473809Y-103131904D01*
X361426190Y-102941428D01*
X361426190Y-102703333D01*
X361473809Y-102512857D01*
X361521428Y-102417619D01*
X361569047Y-102370000D01*
X361664285Y-102322380D01*
X362854761Y-103322380D02*
X362854761Y-102322380D01*
X362854761Y-103274761D02*
X362759523Y-103322380D01*
X362569047Y-103322380D01*
X362473809Y-103274761D01*
X362426190Y-103227142D01*
X362378571Y-103131904D01*
X362378571Y-102846190D01*
X362426190Y-102750952D01*
X362473809Y-102703333D01*
X362569047Y-102655714D01*
X362759523Y-102655714D01*
X362854761Y-102703333D01*
X363664285Y-102798571D02*
X363807142Y-102846190D01*
X363854761Y-102893809D01*
X363902380Y-102989047D01*
X363902380Y-103131904D01*
X363854761Y-103227142D01*
X363807142Y-103274761D01*
X363711904Y-103322380D01*
X363330952Y-103322380D01*
X363330952Y-102322380D01*
X363664285Y-102322380D01*
X363759523Y-102370000D01*
X363807142Y-102417619D01*
X363854761Y-102512857D01*
X363854761Y-102608095D01*
X363807142Y-102703333D01*
X363759523Y-102750952D01*
X363664285Y-102798571D01*
X363330952Y-102798571D01*
X364235714Y-102655714D02*
X364473809Y-103322380D01*
X364711904Y-102655714D01*
X359283333Y-97861428D02*
X360045238Y-97861428D01*
X361045238Y-98242380D02*
X360473809Y-98242380D01*
X360759523Y-98242380D02*
X360759523Y-97242380D01*
X360664285Y-97385238D01*
X360569047Y-97480476D01*
X360473809Y-97528095D01*
X361426190Y-97337619D02*
X361473809Y-97290000D01*
X361569047Y-97242380D01*
X361807142Y-97242380D01*
X361902380Y-97290000D01*
X361950000Y-97337619D01*
X361997619Y-97432857D01*
X361997619Y-97528095D01*
X361950000Y-97670952D01*
X361378571Y-98242380D01*
X361997619Y-98242380D01*
X362854761Y-98242380D02*
X362854761Y-97242380D01*
X362854761Y-98194761D02*
X362759523Y-98242380D01*
X362569047Y-98242380D01*
X362473809Y-98194761D01*
X362426190Y-98147142D01*
X362378571Y-98051904D01*
X362378571Y-97766190D01*
X362426190Y-97670952D01*
X362473809Y-97623333D01*
X362569047Y-97575714D01*
X362759523Y-97575714D01*
X362854761Y-97623333D01*
X363664285Y-97718571D02*
X363807142Y-97766190D01*
X363854761Y-97813809D01*
X363902380Y-97909047D01*
X363902380Y-98051904D01*
X363854761Y-98147142D01*
X363807142Y-98194761D01*
X363711904Y-98242380D01*
X363330952Y-98242380D01*
X363330952Y-97242380D01*
X363664285Y-97242380D01*
X363759523Y-97290000D01*
X363807142Y-97337619D01*
X363854761Y-97432857D01*
X363854761Y-97528095D01*
X363807142Y-97623333D01*
X363759523Y-97670952D01*
X363664285Y-97718571D01*
X363330952Y-97718571D01*
X364235714Y-97575714D02*
X364473809Y-98242380D01*
X364711904Y-97575714D01*
X359759523Y-92781428D02*
X360521428Y-92781428D01*
X361426190Y-92162380D02*
X361235714Y-92162380D01*
X361140476Y-92210000D01*
X361092857Y-92257619D01*
X360997619Y-92400476D01*
X360950000Y-92590952D01*
X360950000Y-92971904D01*
X360997619Y-93067142D01*
X361045238Y-93114761D01*
X361140476Y-93162380D01*
X361330952Y-93162380D01*
X361426190Y-93114761D01*
X361473809Y-93067142D01*
X361521428Y-92971904D01*
X361521428Y-92733809D01*
X361473809Y-92638571D01*
X361426190Y-92590952D01*
X361330952Y-92543333D01*
X361140476Y-92543333D01*
X361045238Y-92590952D01*
X360997619Y-92638571D01*
X360950000Y-92733809D01*
X362378571Y-93162380D02*
X362378571Y-92162380D01*
X362378571Y-93114761D02*
X362283333Y-93162380D01*
X362092857Y-93162380D01*
X361997619Y-93114761D01*
X361950000Y-93067142D01*
X361902380Y-92971904D01*
X361902380Y-92686190D01*
X361950000Y-92590952D01*
X361997619Y-92543333D01*
X362092857Y-92495714D01*
X362283333Y-92495714D01*
X362378571Y-92543333D01*
X363188095Y-92638571D02*
X363330952Y-92686190D01*
X363378571Y-92733809D01*
X363426190Y-92829047D01*
X363426190Y-92971904D01*
X363378571Y-93067142D01*
X363330952Y-93114761D01*
X363235714Y-93162380D01*
X362854761Y-93162380D01*
X362854761Y-92162380D01*
X363188095Y-92162380D01*
X363283333Y-92210000D01*
X363330952Y-92257619D01*
X363378571Y-92352857D01*
X363378571Y-92448095D01*
X363330952Y-92543333D01*
X363283333Y-92590952D01*
X363188095Y-92638571D01*
X362854761Y-92638571D01*
X363759523Y-92495714D02*
X363997619Y-93162380D01*
X364235714Y-92495714D01*
X360569047Y-87082380D02*
X360664285Y-87082380D01*
X360759523Y-87130000D01*
X360807142Y-87177619D01*
X360854761Y-87272857D01*
X360902380Y-87463333D01*
X360902380Y-87701428D01*
X360854761Y-87891904D01*
X360807142Y-87987142D01*
X360759523Y-88034761D01*
X360664285Y-88082380D01*
X360569047Y-88082380D01*
X360473809Y-88034761D01*
X360426190Y-87987142D01*
X360378571Y-87891904D01*
X360330952Y-87701428D01*
X360330952Y-87463333D01*
X360378571Y-87272857D01*
X360426190Y-87177619D01*
X360473809Y-87130000D01*
X360569047Y-87082380D01*
X361759523Y-88082380D02*
X361759523Y-87082380D01*
X361759523Y-88034761D02*
X361664285Y-88082380D01*
X361473809Y-88082380D01*
X361378571Y-88034761D01*
X361330952Y-87987142D01*
X361283333Y-87891904D01*
X361283333Y-87606190D01*
X361330952Y-87510952D01*
X361378571Y-87463333D01*
X361473809Y-87415714D01*
X361664285Y-87415714D01*
X361759523Y-87463333D01*
X362569047Y-87558571D02*
X362711904Y-87606190D01*
X362759523Y-87653809D01*
X362807142Y-87749047D01*
X362807142Y-87891904D01*
X362759523Y-87987142D01*
X362711904Y-88034761D01*
X362616666Y-88082380D01*
X362235714Y-88082380D01*
X362235714Y-87082380D01*
X362569047Y-87082380D01*
X362664285Y-87130000D01*
X362711904Y-87177619D01*
X362759523Y-87272857D01*
X362759523Y-87368095D01*
X362711904Y-87463333D01*
X362664285Y-87510952D01*
X362569047Y-87558571D01*
X362235714Y-87558571D01*
X363140476Y-87415714D02*
X363378571Y-88082380D01*
X363616666Y-87415714D01*
D10*
X360394285Y-107878571D02*
X360108571Y-107735714D01*
X359822857Y-107878571D01*
X359680000Y-108164285D01*
X359822857Y-108450000D01*
X360108571Y-108592857D01*
X360394285Y-108450000D01*
X360965714Y-107878571D01*
X361251428Y-107735714D01*
X361537142Y-107878571D01*
X361680000Y-108164285D01*
X361537142Y-108450000D01*
X361251428Y-108592857D01*
X360965714Y-108450000D01*
X360394285Y-107878571D01*
D12*
X399923333Y-102941428D02*
X400685238Y-102941428D01*
X401113809Y-102417619D02*
X401161428Y-102370000D01*
X401256666Y-102322380D01*
X401494761Y-102322380D01*
X401590000Y-102370000D01*
X401637619Y-102417619D01*
X401685238Y-102512857D01*
X401685238Y-102608095D01*
X401637619Y-102750952D01*
X401066190Y-103322380D01*
X401685238Y-103322380D01*
X402304285Y-102322380D02*
X402399523Y-102322380D01*
X402494761Y-102370000D01*
X402542380Y-102417619D01*
X402590000Y-102512857D01*
X402637619Y-102703333D01*
X402637619Y-102941428D01*
X402590000Y-103131904D01*
X402542380Y-103227142D01*
X402494761Y-103274761D01*
X402399523Y-103322380D01*
X402304285Y-103322380D01*
X402209047Y-103274761D01*
X402161428Y-103227142D01*
X402113809Y-103131904D01*
X402066190Y-102941428D01*
X402066190Y-102703333D01*
X402113809Y-102512857D01*
X402161428Y-102417619D01*
X402209047Y-102370000D01*
X402304285Y-102322380D01*
X403494761Y-103322380D02*
X403494761Y-102322380D01*
X403494761Y-103274761D02*
X403399523Y-103322380D01*
X403209047Y-103322380D01*
X403113809Y-103274761D01*
X403066190Y-103227142D01*
X403018571Y-103131904D01*
X403018571Y-102846190D01*
X403066190Y-102750952D01*
X403113809Y-102703333D01*
X403209047Y-102655714D01*
X403399523Y-102655714D01*
X403494761Y-102703333D01*
X404304285Y-102798571D02*
X404447142Y-102846190D01*
X404494761Y-102893809D01*
X404542380Y-102989047D01*
X404542380Y-103131904D01*
X404494761Y-103227142D01*
X404447142Y-103274761D01*
X404351904Y-103322380D01*
X403970952Y-103322380D01*
X403970952Y-102322380D01*
X404304285Y-102322380D01*
X404399523Y-102370000D01*
X404447142Y-102417619D01*
X404494761Y-102512857D01*
X404494761Y-102608095D01*
X404447142Y-102703333D01*
X404399523Y-102750952D01*
X404304285Y-102798571D01*
X403970952Y-102798571D01*
X404875714Y-102655714D02*
X405113809Y-103322380D01*
X405351904Y-102655714D01*
X399923333Y-97861428D02*
X400685238Y-97861428D01*
X401685238Y-98242380D02*
X401113809Y-98242380D01*
X401399523Y-98242380D02*
X401399523Y-97242380D01*
X401304285Y-97385238D01*
X401209047Y-97480476D01*
X401113809Y-97528095D01*
X402066190Y-97337619D02*
X402113809Y-97290000D01*
X402209047Y-97242380D01*
X402447142Y-97242380D01*
X402542380Y-97290000D01*
X402590000Y-97337619D01*
X402637619Y-97432857D01*
X402637619Y-97528095D01*
X402590000Y-97670952D01*
X402018571Y-98242380D01*
X402637619Y-98242380D01*
X403494761Y-98242380D02*
X403494761Y-97242380D01*
X403494761Y-98194761D02*
X403399523Y-98242380D01*
X403209047Y-98242380D01*
X403113809Y-98194761D01*
X403066190Y-98147142D01*
X403018571Y-98051904D01*
X403018571Y-97766190D01*
X403066190Y-97670952D01*
X403113809Y-97623333D01*
X403209047Y-97575714D01*
X403399523Y-97575714D01*
X403494761Y-97623333D01*
X404304285Y-97718571D02*
X404447142Y-97766190D01*
X404494761Y-97813809D01*
X404542380Y-97909047D01*
X404542380Y-98051904D01*
X404494761Y-98147142D01*
X404447142Y-98194761D01*
X404351904Y-98242380D01*
X403970952Y-98242380D01*
X403970952Y-97242380D01*
X404304285Y-97242380D01*
X404399523Y-97290000D01*
X404447142Y-97337619D01*
X404494761Y-97432857D01*
X404494761Y-97528095D01*
X404447142Y-97623333D01*
X404399523Y-97670952D01*
X404304285Y-97718571D01*
X403970952Y-97718571D01*
X404875714Y-97575714D02*
X405113809Y-98242380D01*
X405351904Y-97575714D01*
X400399523Y-92781428D02*
X401161428Y-92781428D01*
X402066190Y-92162380D02*
X401875714Y-92162380D01*
X401780476Y-92210000D01*
X401732857Y-92257619D01*
X401637619Y-92400476D01*
X401590000Y-92590952D01*
X401590000Y-92971904D01*
X401637619Y-93067142D01*
X401685238Y-93114761D01*
X401780476Y-93162380D01*
X401970952Y-93162380D01*
X402066190Y-93114761D01*
X402113809Y-93067142D01*
X402161428Y-92971904D01*
X402161428Y-92733809D01*
X402113809Y-92638571D01*
X402066190Y-92590952D01*
X401970952Y-92543333D01*
X401780476Y-92543333D01*
X401685238Y-92590952D01*
X401637619Y-92638571D01*
X401590000Y-92733809D01*
X403018571Y-93162380D02*
X403018571Y-92162380D01*
X403018571Y-93114761D02*
X402923333Y-93162380D01*
X402732857Y-93162380D01*
X402637619Y-93114761D01*
X402590000Y-93067142D01*
X402542380Y-92971904D01*
X402542380Y-92686190D01*
X402590000Y-92590952D01*
X402637619Y-92543333D01*
X402732857Y-92495714D01*
X402923333Y-92495714D01*
X403018571Y-92543333D01*
X403828095Y-92638571D02*
X403970952Y-92686190D01*
X404018571Y-92733809D01*
X404066190Y-92829047D01*
X404066190Y-92971904D01*
X404018571Y-93067142D01*
X403970952Y-93114761D01*
X403875714Y-93162380D01*
X403494761Y-93162380D01*
X403494761Y-92162380D01*
X403828095Y-92162380D01*
X403923333Y-92210000D01*
X403970952Y-92257619D01*
X404018571Y-92352857D01*
X404018571Y-92448095D01*
X403970952Y-92543333D01*
X403923333Y-92590952D01*
X403828095Y-92638571D01*
X403494761Y-92638571D01*
X404399523Y-92495714D02*
X404637619Y-93162380D01*
X404875714Y-92495714D01*
X401209047Y-87082380D02*
X401304285Y-87082380D01*
X401399523Y-87130000D01*
X401447142Y-87177619D01*
X401494761Y-87272857D01*
X401542380Y-87463333D01*
X401542380Y-87701428D01*
X401494761Y-87891904D01*
X401447142Y-87987142D01*
X401399523Y-88034761D01*
X401304285Y-88082380D01*
X401209047Y-88082380D01*
X401113809Y-88034761D01*
X401066190Y-87987142D01*
X401018571Y-87891904D01*
X400970952Y-87701428D01*
X400970952Y-87463333D01*
X401018571Y-87272857D01*
X401066190Y-87177619D01*
X401113809Y-87130000D01*
X401209047Y-87082380D01*
X402399523Y-88082380D02*
X402399523Y-87082380D01*
X402399523Y-88034761D02*
X402304285Y-88082380D01*
X402113809Y-88082380D01*
X402018571Y-88034761D01*
X401970952Y-87987142D01*
X401923333Y-87891904D01*
X401923333Y-87606190D01*
X401970952Y-87510952D01*
X402018571Y-87463333D01*
X402113809Y-87415714D01*
X402304285Y-87415714D01*
X402399523Y-87463333D01*
X403209047Y-87558571D02*
X403351904Y-87606190D01*
X403399523Y-87653809D01*
X403447142Y-87749047D01*
X403447142Y-87891904D01*
X403399523Y-87987142D01*
X403351904Y-88034761D01*
X403256666Y-88082380D01*
X402875714Y-88082380D01*
X402875714Y-87082380D01*
X403209047Y-87082380D01*
X403304285Y-87130000D01*
X403351904Y-87177619D01*
X403399523Y-87272857D01*
X403399523Y-87368095D01*
X403351904Y-87463333D01*
X403304285Y-87510952D01*
X403209047Y-87558571D01*
X402875714Y-87558571D01*
X403780476Y-87415714D02*
X404018571Y-88082380D01*
X404256666Y-87415714D01*
X491363333Y-102941428D02*
X492125238Y-102941428D01*
X493125238Y-103322380D02*
X492553809Y-103322380D01*
X492839523Y-103322380D02*
X492839523Y-102322380D01*
X492744285Y-102465238D01*
X492649047Y-102560476D01*
X492553809Y-102608095D01*
X493506190Y-102417619D02*
X493553809Y-102370000D01*
X493649047Y-102322380D01*
X493887142Y-102322380D01*
X493982380Y-102370000D01*
X494030000Y-102417619D01*
X494077619Y-102512857D01*
X494077619Y-102608095D01*
X494030000Y-102750952D01*
X493458571Y-103322380D01*
X494077619Y-103322380D01*
X494934761Y-103322380D02*
X494934761Y-102322380D01*
X494934761Y-103274761D02*
X494839523Y-103322380D01*
X494649047Y-103322380D01*
X494553809Y-103274761D01*
X494506190Y-103227142D01*
X494458571Y-103131904D01*
X494458571Y-102846190D01*
X494506190Y-102750952D01*
X494553809Y-102703333D01*
X494649047Y-102655714D01*
X494839523Y-102655714D01*
X494934761Y-102703333D01*
X495744285Y-102798571D02*
X495887142Y-102846190D01*
X495934761Y-102893809D01*
X495982380Y-102989047D01*
X495982380Y-103131904D01*
X495934761Y-103227142D01*
X495887142Y-103274761D01*
X495791904Y-103322380D01*
X495410952Y-103322380D01*
X495410952Y-102322380D01*
X495744285Y-102322380D01*
X495839523Y-102370000D01*
X495887142Y-102417619D01*
X495934761Y-102512857D01*
X495934761Y-102608095D01*
X495887142Y-102703333D01*
X495839523Y-102750952D01*
X495744285Y-102798571D01*
X495410952Y-102798571D01*
X496315714Y-102655714D02*
X496553809Y-103322380D01*
X496791904Y-102655714D01*
X492649047Y-97242380D02*
X492744285Y-97242380D01*
X492839523Y-97290000D01*
X492887142Y-97337619D01*
X492934761Y-97432857D01*
X492982380Y-97623333D01*
X492982380Y-97861428D01*
X492934761Y-98051904D01*
X492887142Y-98147142D01*
X492839523Y-98194761D01*
X492744285Y-98242380D01*
X492649047Y-98242380D01*
X492553809Y-98194761D01*
X492506190Y-98147142D01*
X492458571Y-98051904D01*
X492410952Y-97861428D01*
X492410952Y-97623333D01*
X492458571Y-97432857D01*
X492506190Y-97337619D01*
X492553809Y-97290000D01*
X492649047Y-97242380D01*
X493839523Y-98242380D02*
X493839523Y-97242380D01*
X493839523Y-98194761D02*
X493744285Y-98242380D01*
X493553809Y-98242380D01*
X493458571Y-98194761D01*
X493410952Y-98147142D01*
X493363333Y-98051904D01*
X493363333Y-97766190D01*
X493410952Y-97670952D01*
X493458571Y-97623333D01*
X493553809Y-97575714D01*
X493744285Y-97575714D01*
X493839523Y-97623333D01*
X494649047Y-97718571D02*
X494791904Y-97766190D01*
X494839523Y-97813809D01*
X494887142Y-97909047D01*
X494887142Y-98051904D01*
X494839523Y-98147142D01*
X494791904Y-98194761D01*
X494696666Y-98242380D01*
X494315714Y-98242380D01*
X494315714Y-97242380D01*
X494649047Y-97242380D01*
X494744285Y-97290000D01*
X494791904Y-97337619D01*
X494839523Y-97432857D01*
X494839523Y-97528095D01*
X494791904Y-97623333D01*
X494744285Y-97670952D01*
X494649047Y-97718571D01*
X494315714Y-97718571D01*
X495220476Y-97575714D02*
X495458571Y-98242380D01*
X495696666Y-97575714D01*
X491839523Y-92781428D02*
X492601428Y-92781428D01*
X492220476Y-93162380D02*
X492220476Y-92400476D01*
X493506190Y-92495714D02*
X493506190Y-93162380D01*
X493268095Y-92114761D02*
X493030000Y-92829047D01*
X493649047Y-92829047D01*
X494458571Y-93162380D02*
X494458571Y-92162380D01*
X494458571Y-93114761D02*
X494363333Y-93162380D01*
X494172857Y-93162380D01*
X494077619Y-93114761D01*
X494030000Y-93067142D01*
X493982380Y-92971904D01*
X493982380Y-92686190D01*
X494030000Y-92590952D01*
X494077619Y-92543333D01*
X494172857Y-92495714D01*
X494363333Y-92495714D01*
X494458571Y-92543333D01*
X495268095Y-92638571D02*
X495410952Y-92686190D01*
X495458571Y-92733809D01*
X495506190Y-92829047D01*
X495506190Y-92971904D01*
X495458571Y-93067142D01*
X495410952Y-93114761D01*
X495315714Y-93162380D01*
X494934761Y-93162380D01*
X494934761Y-92162380D01*
X495268095Y-92162380D01*
X495363333Y-92210000D01*
X495410952Y-92257619D01*
X495458571Y-92352857D01*
X495458571Y-92448095D01*
X495410952Y-92543333D01*
X495363333Y-92590952D01*
X495268095Y-92638571D01*
X494934761Y-92638571D01*
X495839523Y-92495714D02*
X496077619Y-93162380D01*
X496315714Y-92495714D01*
X491839523Y-87701428D02*
X492601428Y-87701428D01*
X492220476Y-88082380D02*
X492220476Y-87320476D01*
X493506190Y-87082380D02*
X493315714Y-87082380D01*
X493220476Y-87130000D01*
X493172857Y-87177619D01*
X493077619Y-87320476D01*
X493030000Y-87510952D01*
X493030000Y-87891904D01*
X493077619Y-87987142D01*
X493125238Y-88034761D01*
X493220476Y-88082380D01*
X493410952Y-88082380D01*
X493506190Y-88034761D01*
X493553809Y-87987142D01*
X493601428Y-87891904D01*
X493601428Y-87653809D01*
X493553809Y-87558571D01*
X493506190Y-87510952D01*
X493410952Y-87463333D01*
X493220476Y-87463333D01*
X493125238Y-87510952D01*
X493077619Y-87558571D01*
X493030000Y-87653809D01*
X494458571Y-88082380D02*
X494458571Y-87082380D01*
X494458571Y-88034761D02*
X494363333Y-88082380D01*
X494172857Y-88082380D01*
X494077619Y-88034761D01*
X494030000Y-87987142D01*
X493982380Y-87891904D01*
X493982380Y-87606190D01*
X494030000Y-87510952D01*
X494077619Y-87463333D01*
X494172857Y-87415714D01*
X494363333Y-87415714D01*
X494458571Y-87463333D01*
X495268095Y-87558571D02*
X495410952Y-87606190D01*
X495458571Y-87653809D01*
X495506190Y-87749047D01*
X495506190Y-87891904D01*
X495458571Y-87987142D01*
X495410952Y-88034761D01*
X495315714Y-88082380D01*
X494934761Y-88082380D01*
X494934761Y-87082380D01*
X495268095Y-87082380D01*
X495363333Y-87130000D01*
X495410952Y-87177619D01*
X495458571Y-87272857D01*
X495458571Y-87368095D01*
X495410952Y-87463333D01*
X495363333Y-87510952D01*
X495268095Y-87558571D01*
X494934761Y-87558571D01*
X495839523Y-87415714D02*
X496077619Y-88082380D01*
X496315714Y-87415714D01*
D10*
X492474285Y-107878571D02*
X492188571Y-107735714D01*
X491902857Y-107878571D01*
X491760000Y-108164285D01*
X491902857Y-108450000D01*
X492188571Y-108592857D01*
X492474285Y-108450000D01*
X493045714Y-107878571D01*
X493331428Y-107735714D01*
X493617142Y-107878571D01*
X493760000Y-108164285D01*
X493617142Y-108450000D01*
X493331428Y-108592857D01*
X493045714Y-108450000D01*
X492474285Y-107878571D01*
D12*
X450723333Y-102941428D02*
X451485238Y-102941428D01*
X452485238Y-103322380D02*
X451913809Y-103322380D01*
X452199523Y-103322380D02*
X452199523Y-102322380D01*
X452104285Y-102465238D01*
X452009047Y-102560476D01*
X451913809Y-102608095D01*
X452866190Y-102417619D02*
X452913809Y-102370000D01*
X453009047Y-102322380D01*
X453247142Y-102322380D01*
X453342380Y-102370000D01*
X453390000Y-102417619D01*
X453437619Y-102512857D01*
X453437619Y-102608095D01*
X453390000Y-102750952D01*
X452818571Y-103322380D01*
X453437619Y-103322380D01*
X454294761Y-103322380D02*
X454294761Y-102322380D01*
X454294761Y-103274761D02*
X454199523Y-103322380D01*
X454009047Y-103322380D01*
X453913809Y-103274761D01*
X453866190Y-103227142D01*
X453818571Y-103131904D01*
X453818571Y-102846190D01*
X453866190Y-102750952D01*
X453913809Y-102703333D01*
X454009047Y-102655714D01*
X454199523Y-102655714D01*
X454294761Y-102703333D01*
X455104285Y-102798571D02*
X455247142Y-102846190D01*
X455294761Y-102893809D01*
X455342380Y-102989047D01*
X455342380Y-103131904D01*
X455294761Y-103227142D01*
X455247142Y-103274761D01*
X455151904Y-103322380D01*
X454770952Y-103322380D01*
X454770952Y-102322380D01*
X455104285Y-102322380D01*
X455199523Y-102370000D01*
X455247142Y-102417619D01*
X455294761Y-102512857D01*
X455294761Y-102608095D01*
X455247142Y-102703333D01*
X455199523Y-102750952D01*
X455104285Y-102798571D01*
X454770952Y-102798571D01*
X455675714Y-102655714D02*
X455913809Y-103322380D01*
X456151904Y-102655714D01*
X452009047Y-97242380D02*
X452104285Y-97242380D01*
X452199523Y-97290000D01*
X452247142Y-97337619D01*
X452294761Y-97432857D01*
X452342380Y-97623333D01*
X452342380Y-97861428D01*
X452294761Y-98051904D01*
X452247142Y-98147142D01*
X452199523Y-98194761D01*
X452104285Y-98242380D01*
X452009047Y-98242380D01*
X451913809Y-98194761D01*
X451866190Y-98147142D01*
X451818571Y-98051904D01*
X451770952Y-97861428D01*
X451770952Y-97623333D01*
X451818571Y-97432857D01*
X451866190Y-97337619D01*
X451913809Y-97290000D01*
X452009047Y-97242380D01*
X453199523Y-98242380D02*
X453199523Y-97242380D01*
X453199523Y-98194761D02*
X453104285Y-98242380D01*
X452913809Y-98242380D01*
X452818571Y-98194761D01*
X452770952Y-98147142D01*
X452723333Y-98051904D01*
X452723333Y-97766190D01*
X452770952Y-97670952D01*
X452818571Y-97623333D01*
X452913809Y-97575714D01*
X453104285Y-97575714D01*
X453199523Y-97623333D01*
X454009047Y-97718571D02*
X454151904Y-97766190D01*
X454199523Y-97813809D01*
X454247142Y-97909047D01*
X454247142Y-98051904D01*
X454199523Y-98147142D01*
X454151904Y-98194761D01*
X454056666Y-98242380D01*
X453675714Y-98242380D01*
X453675714Y-97242380D01*
X454009047Y-97242380D01*
X454104285Y-97290000D01*
X454151904Y-97337619D01*
X454199523Y-97432857D01*
X454199523Y-97528095D01*
X454151904Y-97623333D01*
X454104285Y-97670952D01*
X454009047Y-97718571D01*
X453675714Y-97718571D01*
X454580476Y-97575714D02*
X454818571Y-98242380D01*
X455056666Y-97575714D01*
X451199523Y-92781428D02*
X451961428Y-92781428D01*
X451580476Y-93162380D02*
X451580476Y-92400476D01*
X452866190Y-92495714D02*
X452866190Y-93162380D01*
X452628095Y-92114761D02*
X452390000Y-92829047D01*
X453009047Y-92829047D01*
X453818571Y-93162380D02*
X453818571Y-92162380D01*
X453818571Y-93114761D02*
X453723333Y-93162380D01*
X453532857Y-93162380D01*
X453437619Y-93114761D01*
X453390000Y-93067142D01*
X453342380Y-92971904D01*
X453342380Y-92686190D01*
X453390000Y-92590952D01*
X453437619Y-92543333D01*
X453532857Y-92495714D01*
X453723333Y-92495714D01*
X453818571Y-92543333D01*
X454628095Y-92638571D02*
X454770952Y-92686190D01*
X454818571Y-92733809D01*
X454866190Y-92829047D01*
X454866190Y-92971904D01*
X454818571Y-93067142D01*
X454770952Y-93114761D01*
X454675714Y-93162380D01*
X454294761Y-93162380D01*
X454294761Y-92162380D01*
X454628095Y-92162380D01*
X454723333Y-92210000D01*
X454770952Y-92257619D01*
X454818571Y-92352857D01*
X454818571Y-92448095D01*
X454770952Y-92543333D01*
X454723333Y-92590952D01*
X454628095Y-92638571D01*
X454294761Y-92638571D01*
X455199523Y-92495714D02*
X455437619Y-93162380D01*
X455675714Y-92495714D01*
X451199523Y-87701428D02*
X451961428Y-87701428D01*
X451580476Y-88082380D02*
X451580476Y-87320476D01*
X452866190Y-87082380D02*
X452675714Y-87082380D01*
X452580476Y-87130000D01*
X452532857Y-87177619D01*
X452437619Y-87320476D01*
X452390000Y-87510952D01*
X452390000Y-87891904D01*
X452437619Y-87987142D01*
X452485238Y-88034761D01*
X452580476Y-88082380D01*
X452770952Y-88082380D01*
X452866190Y-88034761D01*
X452913809Y-87987142D01*
X452961428Y-87891904D01*
X452961428Y-87653809D01*
X452913809Y-87558571D01*
X452866190Y-87510952D01*
X452770952Y-87463333D01*
X452580476Y-87463333D01*
X452485238Y-87510952D01*
X452437619Y-87558571D01*
X452390000Y-87653809D01*
X453818571Y-88082380D02*
X453818571Y-87082380D01*
X453818571Y-88034761D02*
X453723333Y-88082380D01*
X453532857Y-88082380D01*
X453437619Y-88034761D01*
X453390000Y-87987142D01*
X453342380Y-87891904D01*
X453342380Y-87606190D01*
X453390000Y-87510952D01*
X453437619Y-87463333D01*
X453532857Y-87415714D01*
X453723333Y-87415714D01*
X453818571Y-87463333D01*
X454628095Y-87558571D02*
X454770952Y-87606190D01*
X454818571Y-87653809D01*
X454866190Y-87749047D01*
X454866190Y-87891904D01*
X454818571Y-87987142D01*
X454770952Y-88034761D01*
X454675714Y-88082380D01*
X454294761Y-88082380D01*
X454294761Y-87082380D01*
X454628095Y-87082380D01*
X454723333Y-87130000D01*
X454770952Y-87177619D01*
X454818571Y-87272857D01*
X454818571Y-87368095D01*
X454770952Y-87463333D01*
X454723333Y-87510952D01*
X454628095Y-87558571D01*
X454294761Y-87558571D01*
X455199523Y-87415714D02*
X455437619Y-88082380D01*
X455675714Y-87415714D01*
D10*
X451834285Y-107878571D02*
X451548571Y-107735714D01*
X451262857Y-107878571D01*
X451120000Y-108164285D01*
X451262857Y-108450000D01*
X451548571Y-108592857D01*
X451834285Y-108450000D01*
X452405714Y-107878571D01*
X452691428Y-107735714D01*
X452977142Y-107878571D01*
X453120000Y-108164285D01*
X452977142Y-108450000D01*
X452691428Y-108592857D01*
X452405714Y-108450000D01*
X451834285Y-107878571D01*
X401034285Y-107878571D02*
X400748571Y-107735714D01*
X400462857Y-107878571D01*
X400320000Y-108164285D01*
X400462857Y-108450000D01*
X400748571Y-108592857D01*
X401034285Y-108450000D01*
X401605714Y-107878571D01*
X401891428Y-107735714D01*
X402177142Y-107878571D01*
X402320000Y-108164285D01*
X402177142Y-108450000D01*
X401891428Y-108592857D01*
X401605714Y-108450000D01*
X401034285Y-107878571D01*
X381742142Y-111652857D02*
X381956428Y-111724285D01*
X382027857Y-111795714D01*
X382099285Y-111938571D01*
X382099285Y-112152857D01*
X382027857Y-112295714D01*
X381956428Y-112367142D01*
X381813571Y-112438571D01*
X381242142Y-112438571D01*
X381242142Y-110938571D01*
X381742142Y-110938571D01*
X381885000Y-111010000D01*
X381956428Y-111081428D01*
X382027857Y-111224285D01*
X382027857Y-111367142D01*
X381956428Y-111510000D01*
X381885000Y-111581428D01*
X381742142Y-111652857D01*
X381242142Y-111652857D01*
X341102142Y-111652857D02*
X341316428Y-111724285D01*
X341387857Y-111795714D01*
X341459285Y-111938571D01*
X341459285Y-112152857D01*
X341387857Y-112295714D01*
X341316428Y-112367142D01*
X341173571Y-112438571D01*
X340602142Y-112438571D01*
X340602142Y-110938571D01*
X341102142Y-110938571D01*
X341245000Y-111010000D01*
X341316428Y-111081428D01*
X341387857Y-111224285D01*
X341387857Y-111367142D01*
X341316428Y-111510000D01*
X341245000Y-111581428D01*
X341102142Y-111652857D01*
X340602142Y-111652857D01*
X300462142Y-111652857D02*
X300676428Y-111724285D01*
X300747857Y-111795714D01*
X300819285Y-111938571D01*
X300819285Y-112152857D01*
X300747857Y-112295714D01*
X300676428Y-112367142D01*
X300533571Y-112438571D01*
X299962142Y-112438571D01*
X299962142Y-110938571D01*
X300462142Y-110938571D01*
X300605000Y-111010000D01*
X300676428Y-111081428D01*
X300747857Y-111224285D01*
X300747857Y-111367142D01*
X300676428Y-111510000D01*
X300605000Y-111581428D01*
X300462142Y-111652857D01*
X299962142Y-111652857D01*
X259822142Y-111652857D02*
X260036428Y-111724285D01*
X260107857Y-111795714D01*
X260179285Y-111938571D01*
X260179285Y-112152857D01*
X260107857Y-112295714D01*
X260036428Y-112367142D01*
X259893571Y-112438571D01*
X259322142Y-112438571D01*
X259322142Y-110938571D01*
X259822142Y-110938571D01*
X259965000Y-111010000D01*
X260036428Y-111081428D01*
X260107857Y-111224285D01*
X260107857Y-111367142D01*
X260036428Y-111510000D01*
X259965000Y-111581428D01*
X259822142Y-111652857D01*
X259322142Y-111652857D01*
X219182142Y-111652857D02*
X219396428Y-111724285D01*
X219467857Y-111795714D01*
X219539285Y-111938571D01*
X219539285Y-112152857D01*
X219467857Y-112295714D01*
X219396428Y-112367142D01*
X219253571Y-112438571D01*
X218682142Y-112438571D01*
X218682142Y-110938571D01*
X219182142Y-110938571D01*
X219325000Y-111010000D01*
X219396428Y-111081428D01*
X219467857Y-111224285D01*
X219467857Y-111367142D01*
X219396428Y-111510000D01*
X219325000Y-111581428D01*
X219182142Y-111652857D01*
X218682142Y-111652857D01*
X178542142Y-111652857D02*
X178756428Y-111724285D01*
X178827857Y-111795714D01*
X178899285Y-111938571D01*
X178899285Y-112152857D01*
X178827857Y-112295714D01*
X178756428Y-112367142D01*
X178613571Y-112438571D01*
X178042142Y-112438571D01*
X178042142Y-110938571D01*
X178542142Y-110938571D01*
X178685000Y-111010000D01*
X178756428Y-111081428D01*
X178827857Y-111224285D01*
X178827857Y-111367142D01*
X178756428Y-111510000D01*
X178685000Y-111581428D01*
X178542142Y-111652857D01*
X178042142Y-111652857D01*
X137902142Y-111652857D02*
X138116428Y-111724285D01*
X138187857Y-111795714D01*
X138259285Y-111938571D01*
X138259285Y-112152857D01*
X138187857Y-112295714D01*
X138116428Y-112367142D01*
X137973571Y-112438571D01*
X137402142Y-112438571D01*
X137402142Y-110938571D01*
X137902142Y-110938571D01*
X138045000Y-111010000D01*
X138116428Y-111081428D01*
X138187857Y-111224285D01*
X138187857Y-111367142D01*
X138116428Y-111510000D01*
X138045000Y-111581428D01*
X137902142Y-111652857D01*
X137402142Y-111652857D01*
X97262142Y-111652857D02*
X97476428Y-111724285D01*
X97547857Y-111795714D01*
X97619285Y-111938571D01*
X97619285Y-112152857D01*
X97547857Y-112295714D01*
X97476428Y-112367142D01*
X97333571Y-112438571D01*
X96762142Y-112438571D01*
X96762142Y-110938571D01*
X97262142Y-110938571D01*
X97405000Y-111010000D01*
X97476428Y-111081428D01*
X97547857Y-111224285D01*
X97547857Y-111367142D01*
X97476428Y-111510000D01*
X97405000Y-111581428D01*
X97262142Y-111652857D01*
X96762142Y-111652857D01*
X370482857Y-112010000D02*
X371197142Y-112010000D01*
X370340000Y-112438571D02*
X370840000Y-110938571D01*
X371340000Y-112438571D01*
X329842857Y-112010000D02*
X330557142Y-112010000D01*
X329700000Y-112438571D02*
X330200000Y-110938571D01*
X330700000Y-112438571D01*
X289202857Y-112010000D02*
X289917142Y-112010000D01*
X289060000Y-112438571D02*
X289560000Y-110938571D01*
X290060000Y-112438571D01*
X248562857Y-112010000D02*
X249277142Y-112010000D01*
X248420000Y-112438571D02*
X248920000Y-110938571D01*
X249420000Y-112438571D01*
X207922857Y-112010000D02*
X208637142Y-112010000D01*
X207780000Y-112438571D02*
X208280000Y-110938571D01*
X208780000Y-112438571D01*
X167282857Y-112010000D02*
X167997142Y-112010000D01*
X167140000Y-112438571D02*
X167640000Y-110938571D01*
X168140000Y-112438571D01*
X126642857Y-112010000D02*
X127357142Y-112010000D01*
X126500000Y-112438571D02*
X127000000Y-110938571D01*
X127500000Y-112438571D01*
X86002857Y-112010000D02*
X86717142Y-112010000D01*
X85860000Y-112438571D02*
X86360000Y-110938571D01*
X86860000Y-112438571D01*
X479147142Y-97432857D02*
X479861428Y-97670952D01*
X480099523Y-97909047D01*
X480337619Y-98385238D01*
X480337619Y-99099523D01*
X480099523Y-99575714D01*
X479861428Y-99813809D01*
X479385238Y-100051904D01*
X477480476Y-100051904D01*
X477480476Y-95051904D01*
X479147142Y-95051904D01*
X479623333Y-95290000D01*
X479861428Y-95528095D01*
X480099523Y-96004285D01*
X480099523Y-96480476D01*
X479861428Y-96956666D01*
X479623333Y-97194761D01*
X479147142Y-97432857D01*
X477480476Y-97432857D01*
X436959523Y-98623333D02*
X439340476Y-98623333D01*
X436483333Y-100051904D02*
X438150000Y-95051904D01*
X439816666Y-100051904D01*
X387826190Y-97194761D02*
X388302380Y-96956666D01*
X388540476Y-96718571D01*
X388778571Y-96242380D01*
X388778571Y-96004285D01*
X388540476Y-95528095D01*
X388302380Y-95290000D01*
X387826190Y-95051904D01*
X386873809Y-95051904D01*
X386397619Y-95290000D01*
X386159523Y-95528095D01*
X385921428Y-96004285D01*
X385921428Y-96242380D01*
X386159523Y-96718571D01*
X386397619Y-96956666D01*
X386873809Y-97194761D01*
X387826190Y-97194761D01*
X388302380Y-97432857D01*
X388540476Y-97670952D01*
X388778571Y-98147142D01*
X388778571Y-99099523D01*
X388540476Y-99575714D01*
X388302380Y-99813809D01*
X387826190Y-100051904D01*
X386873809Y-100051904D01*
X386397619Y-99813809D01*
X386159523Y-99575714D01*
X385921428Y-99099523D01*
X385921428Y-98147142D01*
X386159523Y-97670952D01*
X386397619Y-97432857D01*
X386873809Y-97194761D01*
X345043333Y-95051904D02*
X348376666Y-95051904D01*
X346233809Y-100051904D01*
X305752380Y-95051904D02*
X304800000Y-95051904D01*
X304323809Y-95290000D01*
X304085714Y-95528095D01*
X303609523Y-96242380D01*
X303371428Y-97194761D01*
X303371428Y-99099523D01*
X303609523Y-99575714D01*
X303847619Y-99813809D01*
X304323809Y-100051904D01*
X305276190Y-100051904D01*
X305752380Y-99813809D01*
X305990476Y-99575714D01*
X306228571Y-99099523D01*
X306228571Y-97909047D01*
X305990476Y-97432857D01*
X305752380Y-97194761D01*
X305276190Y-96956666D01*
X304323809Y-96956666D01*
X303847619Y-97194761D01*
X303609523Y-97432857D01*
X303371428Y-97909047D01*
X265350476Y-95051904D02*
X262969523Y-95051904D01*
X262731428Y-97432857D01*
X262969523Y-97194761D01*
X263445714Y-96956666D01*
X264636190Y-96956666D01*
X265112380Y-97194761D01*
X265350476Y-97432857D01*
X265588571Y-97909047D01*
X265588571Y-99099523D01*
X265350476Y-99575714D01*
X265112380Y-99813809D01*
X264636190Y-100051904D01*
X263445714Y-100051904D01*
X262969523Y-99813809D01*
X262731428Y-99575714D01*
X224472380Y-96718571D02*
X224472380Y-100051904D01*
X223281904Y-94813809D02*
X222091428Y-98385238D01*
X225186666Y-98385238D01*
X181213333Y-95051904D02*
X184308571Y-95051904D01*
X182641904Y-96956666D01*
X183356190Y-96956666D01*
X183832380Y-97194761D01*
X184070476Y-97432857D01*
X184308571Y-97909047D01*
X184308571Y-99099523D01*
X184070476Y-99575714D01*
X183832380Y-99813809D01*
X183356190Y-100051904D01*
X181927619Y-100051904D01*
X181451428Y-99813809D01*
X181213333Y-99575714D01*
X103028571Y-100051904D02*
X100171428Y-100051904D01*
X101600000Y-100051904D02*
X101600000Y-95051904D01*
X101123809Y-95766190D01*
X100647619Y-96242380D01*
X100171428Y-96480476D01*
X140811428Y-95528095D02*
X141049523Y-95290000D01*
X141525714Y-95051904D01*
X142716190Y-95051904D01*
X143192380Y-95290000D01*
X143430476Y-95528095D01*
X143668571Y-96004285D01*
X143668571Y-96480476D01*
X143430476Y-97194761D01*
X140573333Y-100051904D01*
X143668571Y-100051904D01*
D11*
X463550000Y-78740000D02*
X463550000Y-116840000D01*
X408940000Y-78740000D02*
X408940000Y-116840000D01*
X368300000Y-78740000D02*
X368300000Y-116840000D01*
X327660000Y-78740000D02*
X327660000Y-116840000D01*
X287020000Y-78740000D02*
X287020000Y-116840000D01*
X246380000Y-78740000D02*
X246380000Y-116840000D01*
X205740000Y-116840000D02*
X205740000Y-78740000D01*
X165100000Y-78740000D02*
X165100000Y-116840000D01*
X124460000Y-78740000D02*
X124460000Y-116840000D01*
G04 #@! TO.C,REF\002A\002A*
D13*
X53911666Y-72842380D02*
X53578333Y-72366190D01*
X53340238Y-72842380D02*
X53340238Y-71842380D01*
X53721190Y-71842380D01*
X53816428Y-71890000D01*
X53864047Y-71937619D01*
X53911666Y-72032857D01*
X53911666Y-72175714D01*
X53864047Y-72270952D01*
X53816428Y-72318571D01*
X53721190Y-72366190D01*
X53340238Y-72366190D01*
X54340238Y-72318571D02*
X54673571Y-72318571D01*
X54816428Y-72842380D02*
X54340238Y-72842380D01*
X54340238Y-71842380D01*
X54816428Y-71842380D01*
X55578333Y-72318571D02*
X55245000Y-72318571D01*
X55245000Y-72842380D02*
X55245000Y-71842380D01*
X55721190Y-71842380D01*
X56245000Y-71842380D02*
X56245000Y-72080476D01*
X56006904Y-71985238D02*
X56245000Y-72080476D01*
X56483095Y-71985238D01*
X56102142Y-72270952D02*
X56245000Y-72080476D01*
X56387857Y-72270952D01*
X57006904Y-71842380D02*
X57006904Y-72080476D01*
X56768809Y-71985238D02*
X57006904Y-72080476D01*
X57245000Y-71985238D01*
X56864047Y-72270952D02*
X57006904Y-72080476D01*
X57149761Y-72270952D01*
X53276666Y-125547380D02*
X52943333Y-125071190D01*
X52705238Y-125547380D02*
X52705238Y-124547380D01*
X53086190Y-124547380D01*
X53181428Y-124595000D01*
X53229047Y-124642619D01*
X53276666Y-124737857D01*
X53276666Y-124880714D01*
X53229047Y-124975952D01*
X53181428Y-125023571D01*
X53086190Y-125071190D01*
X52705238Y-125071190D01*
X53705238Y-125023571D02*
X54038571Y-125023571D01*
X54181428Y-125547380D02*
X53705238Y-125547380D01*
X53705238Y-124547380D01*
X54181428Y-124547380D01*
X54943333Y-125023571D02*
X54610000Y-125023571D01*
X54610000Y-125547380D02*
X54610000Y-124547380D01*
X55086190Y-124547380D01*
X55610000Y-124547380D02*
X55610000Y-124785476D01*
X55371904Y-124690238D02*
X55610000Y-124785476D01*
X55848095Y-124690238D01*
X55467142Y-124975952D02*
X55610000Y-124785476D01*
X55752857Y-124975952D01*
X56371904Y-124547380D02*
X56371904Y-124785476D01*
X56133809Y-124690238D02*
X56371904Y-124785476D01*
X56610000Y-124690238D01*
X56229047Y-124975952D02*
X56371904Y-124785476D01*
X56514761Y-124975952D01*
X522541666Y-129865380D02*
X522208333Y-129389190D01*
X521970238Y-129865380D02*
X521970238Y-128865380D01*
X522351190Y-128865380D01*
X522446428Y-128913000D01*
X522494047Y-128960619D01*
X522541666Y-129055857D01*
X522541666Y-129198714D01*
X522494047Y-129293952D01*
X522446428Y-129341571D01*
X522351190Y-129389190D01*
X521970238Y-129389190D01*
X522970238Y-129341571D02*
X523303571Y-129341571D01*
X523446428Y-129865380D02*
X522970238Y-129865380D01*
X522970238Y-128865380D01*
X523446428Y-128865380D01*
X524208333Y-129341571D02*
X523875000Y-129341571D01*
X523875000Y-129865380D02*
X523875000Y-128865380D01*
X524351190Y-128865380D01*
X524875000Y-128865380D02*
X524875000Y-129103476D01*
X524636904Y-129008238D02*
X524875000Y-129103476D01*
X525113095Y-129008238D01*
X524732142Y-129293952D02*
X524875000Y-129103476D01*
X525017857Y-129293952D01*
X525636904Y-128865380D02*
X525636904Y-129103476D01*
X525398809Y-129008238D02*
X525636904Y-129103476D01*
X525875000Y-129008238D01*
X525494047Y-129293952D02*
X525636904Y-129103476D01*
X525779761Y-129293952D01*
X523176666Y-67889380D02*
X522843333Y-67413190D01*
X522605238Y-67889380D02*
X522605238Y-66889380D01*
X522986190Y-66889380D01*
X523081428Y-66937000D01*
X523129047Y-66984619D01*
X523176666Y-67079857D01*
X523176666Y-67222714D01*
X523129047Y-67317952D01*
X523081428Y-67365571D01*
X522986190Y-67413190D01*
X522605238Y-67413190D01*
X523605238Y-67365571D02*
X523938571Y-67365571D01*
X524081428Y-67889380D02*
X523605238Y-67889380D01*
X523605238Y-66889380D01*
X524081428Y-66889380D01*
X524843333Y-67365571D02*
X524510000Y-67365571D01*
X524510000Y-67889380D02*
X524510000Y-66889380D01*
X524986190Y-66889380D01*
X525510000Y-66889380D02*
X525510000Y-67127476D01*
X525271904Y-67032238D02*
X525510000Y-67127476D01*
X525748095Y-67032238D01*
X525367142Y-67317952D02*
X525510000Y-67127476D01*
X525652857Y-67317952D01*
X526271904Y-66889380D02*
X526271904Y-67127476D01*
X526033809Y-67032238D02*
X526271904Y-67127476D01*
X526510000Y-67032238D01*
X526129047Y-67317952D02*
X526271904Y-67127476D01*
X526414761Y-67317952D01*
X374760666Y-127452380D02*
X374427333Y-126976190D01*
X374189238Y-127452380D02*
X374189238Y-126452380D01*
X374570190Y-126452380D01*
X374665428Y-126500000D01*
X374713047Y-126547619D01*
X374760666Y-126642857D01*
X374760666Y-126785714D01*
X374713047Y-126880952D01*
X374665428Y-126928571D01*
X374570190Y-126976190D01*
X374189238Y-126976190D01*
X375189238Y-126928571D02*
X375522571Y-126928571D01*
X375665428Y-127452380D02*
X375189238Y-127452380D01*
X375189238Y-126452380D01*
X375665428Y-126452380D01*
X376427333Y-126928571D02*
X376094000Y-126928571D01*
X376094000Y-127452380D02*
X376094000Y-126452380D01*
X376570190Y-126452380D01*
X377094000Y-126452380D02*
X377094000Y-126690476D01*
X376855904Y-126595238D02*
X377094000Y-126690476D01*
X377332095Y-126595238D01*
X376951142Y-126880952D02*
X377094000Y-126690476D01*
X377236857Y-126880952D01*
X377855904Y-126452380D02*
X377855904Y-126690476D01*
X377617809Y-126595238D02*
X377855904Y-126690476D01*
X378094000Y-126595238D01*
X377713047Y-126880952D02*
X377855904Y-126690476D01*
X377998761Y-126880952D01*
X333946666Y-126817380D02*
X333613333Y-126341190D01*
X333375238Y-126817380D02*
X333375238Y-125817380D01*
X333756190Y-125817380D01*
X333851428Y-125865000D01*
X333899047Y-125912619D01*
X333946666Y-126007857D01*
X333946666Y-126150714D01*
X333899047Y-126245952D01*
X333851428Y-126293571D01*
X333756190Y-126341190D01*
X333375238Y-126341190D01*
X334375238Y-126293571D02*
X334708571Y-126293571D01*
X334851428Y-126817380D02*
X334375238Y-126817380D01*
X334375238Y-125817380D01*
X334851428Y-125817380D01*
X335613333Y-126293571D02*
X335280000Y-126293571D01*
X335280000Y-126817380D02*
X335280000Y-125817380D01*
X335756190Y-125817380D01*
X336280000Y-125817380D02*
X336280000Y-126055476D01*
X336041904Y-125960238D02*
X336280000Y-126055476D01*
X336518095Y-125960238D01*
X336137142Y-126245952D02*
X336280000Y-126055476D01*
X336422857Y-126245952D01*
X337041904Y-125817380D02*
X337041904Y-126055476D01*
X336803809Y-125960238D02*
X337041904Y-126055476D01*
X337280000Y-125960238D01*
X336899047Y-126245952D02*
X337041904Y-126055476D01*
X337184761Y-126245952D01*
X293480666Y-126817380D02*
X293147333Y-126341190D01*
X292909238Y-126817380D02*
X292909238Y-125817380D01*
X293290190Y-125817380D01*
X293385428Y-125865000D01*
X293433047Y-125912619D01*
X293480666Y-126007857D01*
X293480666Y-126150714D01*
X293433047Y-126245952D01*
X293385428Y-126293571D01*
X293290190Y-126341190D01*
X292909238Y-126341190D01*
X293909238Y-126293571D02*
X294242571Y-126293571D01*
X294385428Y-126817380D02*
X293909238Y-126817380D01*
X293909238Y-125817380D01*
X294385428Y-125817380D01*
X295147333Y-126293571D02*
X294814000Y-126293571D01*
X294814000Y-126817380D02*
X294814000Y-125817380D01*
X295290190Y-125817380D01*
X295814000Y-125817380D02*
X295814000Y-126055476D01*
X295575904Y-125960238D02*
X295814000Y-126055476D01*
X296052095Y-125960238D01*
X295671142Y-126245952D02*
X295814000Y-126055476D01*
X295956857Y-126245952D01*
X296575904Y-125817380D02*
X296575904Y-126055476D01*
X296337809Y-125960238D02*
X296575904Y-126055476D01*
X296814000Y-125960238D01*
X296433047Y-126245952D02*
X296575904Y-126055476D01*
X296718761Y-126245952D01*
X252819066Y-126182380D02*
X252485733Y-125706190D01*
X252247638Y-126182380D02*
X252247638Y-125182380D01*
X252628590Y-125182380D01*
X252723828Y-125230000D01*
X252771447Y-125277619D01*
X252819066Y-125372857D01*
X252819066Y-125515714D01*
X252771447Y-125610952D01*
X252723828Y-125658571D01*
X252628590Y-125706190D01*
X252247638Y-125706190D01*
X253247638Y-125658571D02*
X253580971Y-125658571D01*
X253723828Y-126182380D02*
X253247638Y-126182380D01*
X253247638Y-125182380D01*
X253723828Y-125182380D01*
X254485733Y-125658571D02*
X254152400Y-125658571D01*
X254152400Y-126182380D02*
X254152400Y-125182380D01*
X254628590Y-125182380D01*
X255152400Y-125182380D02*
X255152400Y-125420476D01*
X254914304Y-125325238D02*
X255152400Y-125420476D01*
X255390495Y-125325238D01*
X255009542Y-125610952D02*
X255152400Y-125420476D01*
X255295257Y-125610952D01*
X255914304Y-125182380D02*
X255914304Y-125420476D01*
X255676209Y-125325238D02*
X255914304Y-125420476D01*
X256152400Y-125325238D01*
X255771447Y-125610952D02*
X255914304Y-125420476D01*
X256057161Y-125610952D01*
X212179066Y-124912380D02*
X211845733Y-124436190D01*
X211607638Y-124912380D02*
X211607638Y-123912380D01*
X211988590Y-123912380D01*
X212083828Y-123960000D01*
X212131447Y-124007619D01*
X212179066Y-124102857D01*
X212179066Y-124245714D01*
X212131447Y-124340952D01*
X212083828Y-124388571D01*
X211988590Y-124436190D01*
X211607638Y-124436190D01*
X212607638Y-124388571D02*
X212940971Y-124388571D01*
X213083828Y-124912380D02*
X212607638Y-124912380D01*
X212607638Y-123912380D01*
X213083828Y-123912380D01*
X213845733Y-124388571D02*
X213512400Y-124388571D01*
X213512400Y-124912380D02*
X213512400Y-123912380D01*
X213988590Y-123912380D01*
X214512400Y-123912380D02*
X214512400Y-124150476D01*
X214274304Y-124055238D02*
X214512400Y-124150476D01*
X214750495Y-124055238D01*
X214369542Y-124340952D02*
X214512400Y-124150476D01*
X214655257Y-124340952D01*
X215274304Y-123912380D02*
X215274304Y-124150476D01*
X215036209Y-124055238D02*
X215274304Y-124150476D01*
X215512400Y-124055238D01*
X215131447Y-124340952D02*
X215274304Y-124150476D01*
X215417161Y-124340952D01*
X171589866Y-123642380D02*
X171256533Y-123166190D01*
X171018438Y-123642380D02*
X171018438Y-122642380D01*
X171399390Y-122642380D01*
X171494628Y-122690000D01*
X171542247Y-122737619D01*
X171589866Y-122832857D01*
X171589866Y-122975714D01*
X171542247Y-123070952D01*
X171494628Y-123118571D01*
X171399390Y-123166190D01*
X171018438Y-123166190D01*
X172018438Y-123118571D02*
X172351771Y-123118571D01*
X172494628Y-123642380D02*
X172018438Y-123642380D01*
X172018438Y-122642380D01*
X172494628Y-122642380D01*
X173256533Y-123118571D02*
X172923200Y-123118571D01*
X172923200Y-123642380D02*
X172923200Y-122642380D01*
X173399390Y-122642380D01*
X173923200Y-122642380D02*
X173923200Y-122880476D01*
X173685104Y-122785238D02*
X173923200Y-122880476D01*
X174161295Y-122785238D01*
X173780342Y-123070952D02*
X173923200Y-122880476D01*
X174066057Y-123070952D01*
X174685104Y-122642380D02*
X174685104Y-122880476D01*
X174447009Y-122785238D02*
X174685104Y-122880476D01*
X174923200Y-122785238D01*
X174542247Y-123070952D02*
X174685104Y-122880476D01*
X174827961Y-123070952D01*
X130746666Y-127452380D02*
X130413333Y-126976190D01*
X130175238Y-127452380D02*
X130175238Y-126452380D01*
X130556190Y-126452380D01*
X130651428Y-126500000D01*
X130699047Y-126547619D01*
X130746666Y-126642857D01*
X130746666Y-126785714D01*
X130699047Y-126880952D01*
X130651428Y-126928571D01*
X130556190Y-126976190D01*
X130175238Y-126976190D01*
X131175238Y-126928571D02*
X131508571Y-126928571D01*
X131651428Y-127452380D02*
X131175238Y-127452380D01*
X131175238Y-126452380D01*
X131651428Y-126452380D01*
X132413333Y-126928571D02*
X132080000Y-126928571D01*
X132080000Y-127452380D02*
X132080000Y-126452380D01*
X132556190Y-126452380D01*
X133080000Y-126452380D02*
X133080000Y-126690476D01*
X132841904Y-126595238D02*
X133080000Y-126690476D01*
X133318095Y-126595238D01*
X132937142Y-126880952D02*
X133080000Y-126690476D01*
X133222857Y-126880952D01*
X133841904Y-126452380D02*
X133841904Y-126690476D01*
X133603809Y-126595238D02*
X133841904Y-126690476D01*
X134080000Y-126595238D01*
X133699047Y-126880952D02*
X133841904Y-126690476D01*
X133984761Y-126880952D01*
X90280666Y-125547380D02*
X89947333Y-125071190D01*
X89709238Y-125547380D02*
X89709238Y-124547380D01*
X90090190Y-124547380D01*
X90185428Y-124595000D01*
X90233047Y-124642619D01*
X90280666Y-124737857D01*
X90280666Y-124880714D01*
X90233047Y-124975952D01*
X90185428Y-125023571D01*
X90090190Y-125071190D01*
X89709238Y-125071190D01*
X90709238Y-125023571D02*
X91042571Y-125023571D01*
X91185428Y-125547380D02*
X90709238Y-125547380D01*
X90709238Y-124547380D01*
X91185428Y-124547380D01*
X91947333Y-125023571D02*
X91614000Y-125023571D01*
X91614000Y-125547380D02*
X91614000Y-124547380D01*
X92090190Y-124547380D01*
X92614000Y-124547380D02*
X92614000Y-124785476D01*
X92375904Y-124690238D02*
X92614000Y-124785476D01*
X92852095Y-124690238D01*
X92471142Y-124975952D02*
X92614000Y-124785476D01*
X92756857Y-124975952D01*
X93375904Y-124547380D02*
X93375904Y-124785476D01*
X93137809Y-124690238D02*
X93375904Y-124785476D01*
X93614000Y-124690238D01*
X93233047Y-124975952D02*
X93375904Y-124785476D01*
X93518761Y-124975952D01*
X90741666Y-70937380D02*
X90408333Y-70461190D01*
X90170238Y-70937380D02*
X90170238Y-69937380D01*
X90551190Y-69937380D01*
X90646428Y-69985000D01*
X90694047Y-70032619D01*
X90741666Y-70127857D01*
X90741666Y-70270714D01*
X90694047Y-70365952D01*
X90646428Y-70413571D01*
X90551190Y-70461190D01*
X90170238Y-70461190D01*
X91170238Y-70413571D02*
X91503571Y-70413571D01*
X91646428Y-70937380D02*
X91170238Y-70937380D01*
X91170238Y-69937380D01*
X91646428Y-69937380D01*
X92408333Y-70413571D02*
X92075000Y-70413571D01*
X92075000Y-70937380D02*
X92075000Y-69937380D01*
X92551190Y-69937380D01*
X93075000Y-69937380D02*
X93075000Y-70175476D01*
X92836904Y-70080238D02*
X93075000Y-70175476D01*
X93313095Y-70080238D01*
X92932142Y-70365952D02*
X93075000Y-70175476D01*
X93217857Y-70365952D01*
X93836904Y-69937380D02*
X93836904Y-70175476D01*
X93598809Y-70080238D02*
X93836904Y-70175476D01*
X94075000Y-70080238D01*
X93694047Y-70365952D02*
X93836904Y-70175476D01*
X93979761Y-70365952D01*
X131457866Y-70302380D02*
X131124533Y-69826190D01*
X130886438Y-70302380D02*
X130886438Y-69302380D01*
X131267390Y-69302380D01*
X131362628Y-69350000D01*
X131410247Y-69397619D01*
X131457866Y-69492857D01*
X131457866Y-69635714D01*
X131410247Y-69730952D01*
X131362628Y-69778571D01*
X131267390Y-69826190D01*
X130886438Y-69826190D01*
X131886438Y-69778571D02*
X132219771Y-69778571D01*
X132362628Y-70302380D02*
X131886438Y-70302380D01*
X131886438Y-69302380D01*
X132362628Y-69302380D01*
X133124533Y-69778571D02*
X132791200Y-69778571D01*
X132791200Y-70302380D02*
X132791200Y-69302380D01*
X133267390Y-69302380D01*
X133791200Y-69302380D02*
X133791200Y-69540476D01*
X133553104Y-69445238D02*
X133791200Y-69540476D01*
X134029295Y-69445238D01*
X133648342Y-69730952D02*
X133791200Y-69540476D01*
X133934057Y-69730952D01*
X134553104Y-69302380D02*
X134553104Y-69540476D01*
X134315009Y-69445238D02*
X134553104Y-69540476D01*
X134791200Y-69445238D01*
X134410247Y-69730952D02*
X134553104Y-69540476D01*
X134695961Y-69730952D01*
X172068666Y-69667380D02*
X171735333Y-69191190D01*
X171497238Y-69667380D02*
X171497238Y-68667380D01*
X171878190Y-68667380D01*
X171973428Y-68715000D01*
X172021047Y-68762619D01*
X172068666Y-68857857D01*
X172068666Y-69000714D01*
X172021047Y-69095952D01*
X171973428Y-69143571D01*
X171878190Y-69191190D01*
X171497238Y-69191190D01*
X172497238Y-69143571D02*
X172830571Y-69143571D01*
X172973428Y-69667380D02*
X172497238Y-69667380D01*
X172497238Y-68667380D01*
X172973428Y-68667380D01*
X173735333Y-69143571D02*
X173402000Y-69143571D01*
X173402000Y-69667380D02*
X173402000Y-68667380D01*
X173878190Y-68667380D01*
X174402000Y-68667380D02*
X174402000Y-68905476D01*
X174163904Y-68810238D02*
X174402000Y-68905476D01*
X174640095Y-68810238D01*
X174259142Y-69095952D02*
X174402000Y-68905476D01*
X174544857Y-69095952D01*
X175163904Y-68667380D02*
X175163904Y-68905476D01*
X174925809Y-68810238D02*
X175163904Y-68905476D01*
X175402000Y-68810238D01*
X175021047Y-69095952D02*
X175163904Y-68905476D01*
X175306761Y-69095952D01*
X212661666Y-67762380D02*
X212328333Y-67286190D01*
X212090238Y-67762380D02*
X212090238Y-66762380D01*
X212471190Y-66762380D01*
X212566428Y-66810000D01*
X212614047Y-66857619D01*
X212661666Y-66952857D01*
X212661666Y-67095714D01*
X212614047Y-67190952D01*
X212566428Y-67238571D01*
X212471190Y-67286190D01*
X212090238Y-67286190D01*
X213090238Y-67238571D02*
X213423571Y-67238571D01*
X213566428Y-67762380D02*
X213090238Y-67762380D01*
X213090238Y-66762380D01*
X213566428Y-66762380D01*
X214328333Y-67238571D02*
X213995000Y-67238571D01*
X213995000Y-67762380D02*
X213995000Y-66762380D01*
X214471190Y-66762380D01*
X214995000Y-66762380D02*
X214995000Y-67000476D01*
X214756904Y-66905238D02*
X214995000Y-67000476D01*
X215233095Y-66905238D01*
X214852142Y-67190952D02*
X214995000Y-67000476D01*
X215137857Y-67190952D01*
X215756904Y-66762380D02*
X215756904Y-67000476D01*
X215518809Y-66905238D02*
X215756904Y-67000476D01*
X215995000Y-66905238D01*
X215614047Y-67190952D02*
X215756904Y-67000476D01*
X215899761Y-67190952D01*
X253348666Y-69032380D02*
X253015333Y-68556190D01*
X252777238Y-69032380D02*
X252777238Y-68032380D01*
X253158190Y-68032380D01*
X253253428Y-68080000D01*
X253301047Y-68127619D01*
X253348666Y-68222857D01*
X253348666Y-68365714D01*
X253301047Y-68460952D01*
X253253428Y-68508571D01*
X253158190Y-68556190D01*
X252777238Y-68556190D01*
X253777238Y-68508571D02*
X254110571Y-68508571D01*
X254253428Y-69032380D02*
X253777238Y-69032380D01*
X253777238Y-68032380D01*
X254253428Y-68032380D01*
X255015333Y-68508571D02*
X254682000Y-68508571D01*
X254682000Y-69032380D02*
X254682000Y-68032380D01*
X255158190Y-68032380D01*
X255682000Y-68032380D02*
X255682000Y-68270476D01*
X255443904Y-68175238D02*
X255682000Y-68270476D01*
X255920095Y-68175238D01*
X255539142Y-68460952D02*
X255682000Y-68270476D01*
X255824857Y-68460952D01*
X256443904Y-68032380D02*
X256443904Y-68270476D01*
X256205809Y-68175238D02*
X256443904Y-68270476D01*
X256682000Y-68175238D01*
X256301047Y-68460952D02*
X256443904Y-68270476D01*
X256586761Y-68460952D01*
X293941666Y-70302380D02*
X293608333Y-69826190D01*
X293370238Y-70302380D02*
X293370238Y-69302380D01*
X293751190Y-69302380D01*
X293846428Y-69350000D01*
X293894047Y-69397619D01*
X293941666Y-69492857D01*
X293941666Y-69635714D01*
X293894047Y-69730952D01*
X293846428Y-69778571D01*
X293751190Y-69826190D01*
X293370238Y-69826190D01*
X294370238Y-69778571D02*
X294703571Y-69778571D01*
X294846428Y-70302380D02*
X294370238Y-70302380D01*
X294370238Y-69302380D01*
X294846428Y-69302380D01*
X295608333Y-69778571D02*
X295275000Y-69778571D01*
X295275000Y-70302380D02*
X295275000Y-69302380D01*
X295751190Y-69302380D01*
X296275000Y-69302380D02*
X296275000Y-69540476D01*
X296036904Y-69445238D02*
X296275000Y-69540476D01*
X296513095Y-69445238D01*
X296132142Y-69730952D02*
X296275000Y-69540476D01*
X296417857Y-69730952D01*
X297036904Y-69302380D02*
X297036904Y-69540476D01*
X296798809Y-69445238D02*
X297036904Y-69540476D01*
X297275000Y-69445238D01*
X296894047Y-69730952D02*
X297036904Y-69540476D01*
X297179761Y-69730952D01*
X469836666Y-69667380D02*
X469503333Y-69191190D01*
X469265238Y-69667380D02*
X469265238Y-68667380D01*
X469646190Y-68667380D01*
X469741428Y-68715000D01*
X469789047Y-68762619D01*
X469836666Y-68857857D01*
X469836666Y-69000714D01*
X469789047Y-69095952D01*
X469741428Y-69143571D01*
X469646190Y-69191190D01*
X469265238Y-69191190D01*
X470265238Y-69143571D02*
X470598571Y-69143571D01*
X470741428Y-69667380D02*
X470265238Y-69667380D01*
X470265238Y-68667380D01*
X470741428Y-68667380D01*
X471503333Y-69143571D02*
X471170000Y-69143571D01*
X471170000Y-69667380D02*
X471170000Y-68667380D01*
X471646190Y-68667380D01*
X472170000Y-68667380D02*
X472170000Y-68905476D01*
X471931904Y-68810238D02*
X472170000Y-68905476D01*
X472408095Y-68810238D01*
X472027142Y-69095952D02*
X472170000Y-68905476D01*
X472312857Y-69095952D01*
X472931904Y-68667380D02*
X472931904Y-68905476D01*
X472693809Y-68810238D02*
X472931904Y-68905476D01*
X473170000Y-68810238D01*
X472789047Y-69095952D02*
X472931904Y-68905476D01*
X473074761Y-69095952D01*
X429196666Y-72207380D02*
X428863333Y-71731190D01*
X428625238Y-72207380D02*
X428625238Y-71207380D01*
X429006190Y-71207380D01*
X429101428Y-71255000D01*
X429149047Y-71302619D01*
X429196666Y-71397857D01*
X429196666Y-71540714D01*
X429149047Y-71635952D01*
X429101428Y-71683571D01*
X429006190Y-71731190D01*
X428625238Y-71731190D01*
X429625238Y-71683571D02*
X429958571Y-71683571D01*
X430101428Y-72207380D02*
X429625238Y-72207380D01*
X429625238Y-71207380D01*
X430101428Y-71207380D01*
X430863333Y-71683571D02*
X430530000Y-71683571D01*
X430530000Y-72207380D02*
X430530000Y-71207380D01*
X431006190Y-71207380D01*
X431530000Y-71207380D02*
X431530000Y-71445476D01*
X431291904Y-71350238D02*
X431530000Y-71445476D01*
X431768095Y-71350238D01*
X431387142Y-71635952D02*
X431530000Y-71445476D01*
X431672857Y-71635952D01*
X432291904Y-71207380D02*
X432291904Y-71445476D01*
X432053809Y-71350238D02*
X432291904Y-71445476D01*
X432530000Y-71350238D01*
X432149047Y-71635952D02*
X432291904Y-71445476D01*
X432434761Y-71635952D01*
X375268666Y-67762380D02*
X374935333Y-67286190D01*
X374697238Y-67762380D02*
X374697238Y-66762380D01*
X375078190Y-66762380D01*
X375173428Y-66810000D01*
X375221047Y-66857619D01*
X375268666Y-66952857D01*
X375268666Y-67095714D01*
X375221047Y-67190952D01*
X375173428Y-67238571D01*
X375078190Y-67286190D01*
X374697238Y-67286190D01*
X375697238Y-67238571D02*
X376030571Y-67238571D01*
X376173428Y-67762380D02*
X375697238Y-67762380D01*
X375697238Y-66762380D01*
X376173428Y-66762380D01*
X376935333Y-67238571D02*
X376602000Y-67238571D01*
X376602000Y-67762380D02*
X376602000Y-66762380D01*
X377078190Y-66762380D01*
X377602000Y-66762380D02*
X377602000Y-67000476D01*
X377363904Y-66905238D02*
X377602000Y-67000476D01*
X377840095Y-66905238D01*
X377459142Y-67190952D02*
X377602000Y-67000476D01*
X377744857Y-67190952D01*
X378363904Y-66762380D02*
X378363904Y-67000476D01*
X378125809Y-66905238D02*
X378363904Y-67000476D01*
X378602000Y-66905238D01*
X378221047Y-67190952D02*
X378363904Y-67000476D01*
X378506761Y-67190952D01*
X334581666Y-67762380D02*
X334248333Y-67286190D01*
X334010238Y-67762380D02*
X334010238Y-66762380D01*
X334391190Y-66762380D01*
X334486428Y-66810000D01*
X334534047Y-66857619D01*
X334581666Y-66952857D01*
X334581666Y-67095714D01*
X334534047Y-67190952D01*
X334486428Y-67238571D01*
X334391190Y-67286190D01*
X334010238Y-67286190D01*
X335010238Y-67238571D02*
X335343571Y-67238571D01*
X335486428Y-67762380D02*
X335010238Y-67762380D01*
X335010238Y-66762380D01*
X335486428Y-66762380D01*
X336248333Y-67238571D02*
X335915000Y-67238571D01*
X335915000Y-67762380D02*
X335915000Y-66762380D01*
X336391190Y-66762380D01*
X336915000Y-66762380D02*
X336915000Y-67000476D01*
X336676904Y-66905238D02*
X336915000Y-67000476D01*
X337153095Y-66905238D01*
X336772142Y-67190952D02*
X336915000Y-67000476D01*
X337057857Y-67190952D01*
X337676904Y-66762380D02*
X337676904Y-67000476D01*
X337438809Y-66905238D02*
X337676904Y-67000476D01*
X337915000Y-66905238D01*
X337534047Y-67190952D02*
X337676904Y-67000476D01*
X337819761Y-67190952D01*
G04 #@! TD*
M02*
