G04 #@! TF.GenerationSoftware,KiCad,Pcbnew,(5.0.0)*
G04 #@! TF.CreationDate,2018-10-02T01:26:42+01:00*
G04 #@! TF.ProjectId,FrontPanel_1URack_8Input_AB_2Output_Mixer,46726F6E7450616E656C5F3155526163,rev?*
G04 #@! TF.SameCoordinates,Original*
G04 #@! TF.FileFunction,Profile,NP*
%FSLAX46Y46*%
G04 Gerber Fmt 4.6, Leading zero omitted, Abs format (unit mm)*
G04 Created by KiCad (PCBNEW (5.0.0)) date 10/02/18 01:26:42*
%MOMM*%
%LPD*%
G01*
G04 APERTURE LIST*
%ADD10C,0.150000*%
G04 APERTURE END LIST*
D10*
X488518200Y-111277400D02*
X485724200Y-111277400D01*
X488518200Y-84302600D02*
X488518200Y-111277400D01*
X485724200Y-84302600D02*
X488518200Y-84302600D01*
X485724200Y-111277400D02*
X485724200Y-84302600D01*
X447878200Y-111277400D02*
X445084200Y-111277400D01*
X447878200Y-84302600D02*
X447878200Y-111277400D01*
X445084200Y-84302600D02*
X447878200Y-84302600D01*
X445084200Y-111277400D02*
X445084200Y-84302600D01*
X396925800Y-111277400D02*
X394131800Y-111277400D01*
X396925800Y-84302600D02*
X396925800Y-111277400D01*
X394131800Y-84302600D02*
X396925800Y-84302600D01*
X394131800Y-111277400D02*
X394131800Y-84302600D01*
X356285800Y-111277400D02*
X353491800Y-111277400D01*
X356285800Y-84302600D02*
X356285800Y-111277400D01*
X353491800Y-84302600D02*
X356285800Y-84302600D01*
X353491800Y-111277400D02*
X353491800Y-84302600D01*
X315645800Y-111277400D02*
X312851800Y-111277400D01*
X315645800Y-84302600D02*
X315645800Y-111277400D01*
X312851800Y-84302600D02*
X315645800Y-84302600D01*
X312851800Y-111277400D02*
X312851800Y-84302600D01*
X275005800Y-111277400D02*
X272211800Y-111277400D01*
X275005800Y-84302600D02*
X275005800Y-111277400D01*
X272211800Y-84302600D02*
X275005800Y-84302600D01*
X272211800Y-111277400D02*
X272211800Y-84302600D01*
X234365800Y-111277400D02*
X231571800Y-111277400D01*
X234365800Y-84302600D02*
X234365800Y-111277400D01*
X231571800Y-84302600D02*
X234365800Y-84302600D01*
X231571800Y-111277400D02*
X231571800Y-84302600D01*
X190931800Y-111277400D02*
X190931800Y-84302600D01*
X190931800Y-84302600D02*
X193725800Y-84302600D01*
X193725800Y-84302600D02*
X193725800Y-111277400D01*
X193725800Y-111277400D02*
X190931800Y-111277400D01*
X150291800Y-84302600D02*
X153085800Y-84302600D01*
X153085800Y-111277400D02*
X150291800Y-111277400D01*
X153085800Y-84302600D02*
X153085800Y-111277400D01*
X150291800Y-111277400D02*
X150291800Y-84302600D01*
X109651800Y-111277400D02*
X109651800Y-84302600D01*
X112445800Y-111277400D02*
X109651800Y-111277400D01*
X109651800Y-84302600D02*
X112445800Y-84302600D01*
X112445800Y-84302600D02*
X112445800Y-111277400D01*
X502551700Y-119380000D02*
X502551700Y-76200000D01*
X76555600Y-119380000D02*
X502551700Y-119380000D01*
X502551700Y-76200000D02*
X76555600Y-76200000D01*
X76555600Y-76200000D02*
X76555600Y-119380000D01*
M02*
